<svg width="16" height="16" viewBox="0 0 16 16" fill="none" xmlns="http://www.w3.org/2000/svg">
<path d="M13.8333 0.46582C14.2754 0.46582 14.6993 0.641415 15.0118 0.953976C15.3244 1.26654 15.5 1.69046 15.5 2.13249V13.7992C15.5 14.2412 15.3244 14.6651 15.0118 14.9777C14.6993 15.2902 14.2754 15.4658 13.8333 15.4658H2.16667C1.72464 15.4658 1.30072 15.2902 0.988155 14.9777C0.675595 14.6651 0.5 14.2412 0.5 13.7992V2.13249C0.5 1.69046 0.675595 1.26654 0.988155 0.953976C1.30072 0.641415 1.72464 0.46582 2.16667 0.46582H13.8333ZM13.4167 13.3825V8.96582C13.4167 8.24532 13.1304 7.55432 12.621 7.04485C12.1115 6.53537 11.4205 6.24915 10.7 6.24915C9.99167 6.24915 9.16667 6.68249 8.76667 7.33249V6.40749H6.44167V13.3825H8.76667V9.27415C8.76667 8.63249 9.28333 8.10749 9.925 8.10749C10.2344 8.10749 10.5312 8.2304 10.75 8.4492C10.9688 8.66799 11.0917 8.96473 11.0917 9.27415V13.3825H13.4167ZM3.73333 5.09915C4.10464 5.09915 4.46073 4.95165 4.72328 4.6891C4.98583 4.42655 5.13333 4.07046 5.13333 3.69915C5.13333 2.92415 4.50833 2.29082 3.73333 2.29082C3.35982 2.29082 3.0016 2.4392 2.73749 2.70331C2.47338 2.96743 2.325 3.32564 2.325 3.69915C2.325 4.47415 2.95833 5.09915 3.73333 5.09915ZM4.89167 13.3825V6.40749H2.58333V13.3825H4.89167Z" fill="#2F2F2F"/>
</svg>
