<svg width="18" height="15" viewBox="0 0 18 15" fill="none" xmlns="http://www.w3.org/2000/svg">
<path d="M17.7165 1.96549C17.0749 2.25716 16.3832 2.44883 15.6665 2.54049C16.3999 2.09883 16.9665 1.39883 17.2332 0.557161C16.5415 0.973828 15.7749 1.26549 14.9665 1.43216C14.3082 0.715495 13.3832 0.298828 12.3332 0.298828C10.3749 0.298828 8.77487 1.89883 8.77487 3.87383C8.77487 4.15716 8.8082 4.43216 8.86654 4.6905C5.89987 4.5405 3.2582 3.11549 1.49987 0.957161C1.19154 1.48216 1.01654 2.09883 1.01654 2.74883C1.01654 3.99049 1.64154 5.0905 2.6082 5.7155C2.01654 5.7155 1.46654 5.54883 0.983203 5.29883V5.32383C0.983203 7.05716 2.21654 8.50716 3.84987 8.83216C3.32548 8.97567 2.77495 8.99564 2.24154 8.8905C2.46788 9.60089 2.91115 10.2225 3.50905 10.6679C4.10695 11.1134 4.82941 11.3602 5.57487 11.3738C4.31123 12.3742 2.74487 12.9149 1.1332 12.9072C0.84987 12.9072 0.566536 12.8905 0.283203 12.8572C1.86654 13.8738 3.74987 14.4655 5.76654 14.4655C12.3332 14.4655 15.9415 9.0155 15.9415 4.29049C15.9415 4.13216 15.9415 3.98216 15.9332 3.82383C16.6332 3.32383 17.2332 2.6905 17.7165 1.96549Z" fill="#2F2F2F"/>
</svg>
