<svg width="18" height="12" viewBox="0 0 18 12" fill="none" xmlns="http://www.w3.org/2000/svg">
<path d="M7.33268 8.46517L11.6577 5.96517L7.33268 3.46517V8.46517ZM16.966 1.94017C17.0743 2.33184 17.1493 2.85684 17.1993 3.5235C17.2577 4.19017 17.2827 4.76517 17.2827 5.26517L17.3327 5.96517C17.3327 7.79017 17.1993 9.13184 16.966 9.99017C16.7577 10.7402 16.2743 11.2235 15.5243 11.4318C15.1327 11.5402 14.416 11.6152 13.316 11.6652C12.2327 11.7235 11.241 11.7485 10.3243 11.7485L8.99935 11.7985C5.50768 11.7985 3.33268 11.6652 2.47435 11.4318C1.72435 11.2235 1.24102 10.7402 1.03268 9.99017C0.924349 9.5985 0.849349 9.0735 0.799349 8.40684C0.741016 7.74017 0.716016 7.16517 0.716016 6.66517L0.666016 5.96517C0.666016 4.14017 0.799349 2.7985 1.03268 1.94017C1.24102 1.19017 1.72435 0.706836 2.47435 0.498503C2.86602 0.390169 3.58268 0.315169 4.68268 0.265169C5.76602 0.206836 6.75768 0.181836 7.67435 0.181836L8.99935 0.131836C12.491 0.131836 14.666 0.265169 15.5243 0.498503C16.2743 0.706836 16.7577 1.19017 16.966 1.94017Z" fill="#2F2F2F"/>
</svg>
