<svg width="276" height="324" viewBox="0 0 276 324" fill="none" xmlns="http://www.w3.org/2000/svg">
<path d="M173.514 125.539C173.24 126.332 172.401 126.71 171.603 126.504C170.811 126.273 170.325 125.448 170.516 124.653C170.712 123.84 171.577 123.378 172.446 123.63C173.319 123.86 173.782 124.769 173.514 125.539Z" fill="#32A27A" fill-opacity="0.2"/>
<path d="M180.597 128.774C180.186 129.488 180.43 130.398 181.118 130.854L182.739 128.336C181.985 127.838 181.013 128.057 180.597 128.774Z" fill="#32A27A" fill-opacity="0.2"/>
<path d="M162.809 123.557C162.848 122.728 162.149 122.042 161.246 122.019V125.013C162.07 125.034 162.77 124.382 162.809 123.557Z" fill="#32A27A" fill-opacity="0.2"/>
<path d="M191.159 137.931C190.51 138.442 189.577 138.326 189.028 137.713C188.496 137.08 188.512 136.143 189.11 135.57C189.708 135 190.707 135.059 191.289 135.751C191.889 136.423 191.809 137.42 191.159 137.931Z" fill="#32A27A" fill-opacity="0.2"/>
<path d="M195.373 144.478C194.632 144.862 194.364 145.753 194.69 146.511L197.412 145.264C197.053 144.435 196.101 144.103 195.373 144.478Z" fill="#32A27A" fill-opacity="0.2"/>
<path d="M183.227 130.468C183.705 129.797 183.509 128.812 182.741 128.336L181.119 130.853C181.82 131.286 182.743 131.143 183.227 130.468Z" fill="#32A27A" fill-opacity="0.2"/>
<path d="M199.316 157.888C198.494 157.965 197.74 157.366 197.637 156.549C197.53 155.731 198.042 154.951 198.865 154.794C199.666 154.64 200.483 155.23 200.602 156.126C200.715 157.021 200.14 157.812 199.316 157.888Z" fill="#32A27A" fill-opacity="0.2"/>
<path d="M199.315 165.678C198.494 165.601 197.739 166.2 197.637 167.018L200.601 167.44C200.715 166.544 200.14 165.754 199.315 165.678Z" fill="#32A27A" fill-opacity="0.2"/>
<path d="M196.675 147.321C197.449 147.011 197.796 146.083 197.412 145.264L194.69 146.511C195.04 147.256 195.915 147.625 196.675 147.321Z" fill="#32A27A" fill-opacity="0.2"/>
<path d="M195.373 179.087C194.632 178.702 194.364 177.813 194.689 177.056C195.04 176.31 195.914 175.94 196.674 176.243C197.449 176.555 197.796 177.482 197.412 178.3C197.053 179.131 196.101 179.464 195.373 179.087Z" fill="#32A27A" fill-opacity="0.2"/>
<path d="M191.157 185.635C190.508 185.124 189.575 185.24 189.025 185.855L191.287 187.816C191.887 187.143 191.807 186.146 191.157 185.635Z" fill="#32A27A" fill-opacity="0.2"/>
<path d="M198.865 168.772C199.666 168.927 200.483 168.337 200.602 167.441L197.637 167.019C197.53 167.835 198.042 168.615 198.865 168.772Z" fill="#32A27A" fill-opacity="0.2"/>
<path d="M180.598 194.792C180.186 194.078 180.43 193.168 181.118 192.711C181.819 192.279 182.742 192.421 183.226 193.097C183.704 193.768 183.508 194.753 182.739 195.229C181.985 195.727 181.014 195.509 180.598 194.792Z" fill="#32A27A" fill-opacity="0.2"/>
<path d="M173.514 198.027C173.24 197.234 172.401 196.856 171.604 197.063L172.446 199.935C173.319 199.706 173.782 198.797 173.514 198.027Z" fill="#32A27A" fill-opacity="0.2"/>
<path d="M189.11 187.995C189.708 188.565 190.707 188.508 191.289 187.815L189.028 185.854C188.496 186.487 188.512 187.424 189.11 187.995Z" fill="#32A27A" fill-opacity="0.2"/>
<path d="M159.681 200.01C159.721 199.185 160.42 198.532 161.245 198.553C162.069 198.532 162.769 199.185 162.807 200.01C162.846 200.838 162.148 201.524 161.245 201.547C160.341 201.524 159.642 200.838 159.681 200.01Z" fill="#32A27A" fill-opacity="0.2"/>
<path d="M151.971 198.913C152.162 198.119 151.673 197.294 150.882 197.064L150.041 199.935C150.911 200.189 151.775 199.727 151.971 198.913Z" fill="#32A27A" fill-opacity="0.2"/>
<path d="M170.516 198.913C170.712 199.727 171.577 200.189 172.446 199.935L171.603 197.064C170.811 197.294 170.325 198.119 170.516 198.913Z" fill="#32A27A" fill-opacity="0.2"/>
<path d="M139.264 193.097C139.746 192.423 140.669 192.279 141.371 192.711C142.058 193.168 142.303 194.078 141.891 194.792C141.475 195.509 140.503 195.727 139.75 195.229C138.98 194.753 138.785 193.768 139.264 193.097Z" fill="#32A27A" fill-opacity="0.2"/>
<path d="M133.379 187.995C133.977 187.424 133.992 186.487 133.462 185.854L131.201 187.815C131.781 188.508 132.781 188.565 133.379 187.995Z" fill="#32A27A" fill-opacity="0.2"/>
<path d="M148.974 198.027C148.707 198.797 149.166 199.706 150.042 199.935L150.883 197.063C150.088 196.856 149.249 197.234 148.974 198.027Z" fill="#32A27A" fill-opacity="0.2"/>
<path d="M125.813 176.245C126.574 175.94 127.448 176.31 127.798 177.056C128.124 177.813 127.857 178.702 127.116 179.087C126.388 179.464 125.434 179.131 125.074 178.3C124.692 177.482 125.039 176.555 125.813 176.245Z" fill="#32A27A" fill-opacity="0.2"/>
<path d="M123.625 168.772C124.445 168.615 124.96 167.835 124.852 167.019L121.887 167.441C122.007 168.337 122.823 168.927 123.625 168.772Z" fill="#32A27A" fill-opacity="0.2"/>
<path d="M131.332 185.635C130.682 186.146 130.602 187.143 131.203 187.816L133.465 185.855C132.915 185.24 131.981 185.124 131.332 185.635Z" fill="#32A27A" fill-opacity="0.2"/>
<path d="M123.624 154.795C124.444 154.952 124.958 155.733 124.851 156.549C124.747 157.366 123.993 157.966 123.172 157.888C122.347 157.812 121.772 157.022 121.885 156.126C122.006 155.23 122.821 154.64 123.624 154.795Z" fill="#32A27A" fill-opacity="0.2"/>
<path d="M125.813 147.321C126.574 147.625 127.448 147.256 127.798 146.511L125.074 145.264C124.692 146.083 125.039 147.011 125.813 147.321Z" fill="#32A27A" fill-opacity="0.2"/>
<path d="M123.172 165.678C122.347 165.754 121.772 166.544 121.885 167.44L124.851 167.018C124.747 166.2 123.993 165.601 123.172 165.678Z" fill="#32A27A" fill-opacity="0.2"/>
<path d="M133.38 135.57C133.979 136.143 133.994 137.08 133.465 137.713C132.915 138.326 131.981 138.442 131.332 137.931C130.682 137.42 130.602 136.423 131.203 135.751C131.783 135.059 132.784 135 133.38 135.57Z" fill="#32A27A" fill-opacity="0.2"/>
<path d="M139.264 130.468C139.745 131.143 140.669 131.286 141.371 130.853L139.75 128.336C138.98 128.812 138.785 129.797 139.264 130.468Z" fill="#32A27A" fill-opacity="0.2"/>
<path d="M127.118 144.479C126.39 144.103 125.436 144.435 125.076 145.265L127.8 146.511C128.126 145.753 127.859 144.862 127.118 144.479Z" fill="#32A27A" fill-opacity="0.2"/>
<path d="M151.972 124.653C152.16 125.448 151.674 126.275 150.883 126.504C150.088 126.71 149.249 126.332 148.974 125.539C148.707 124.769 149.166 123.86 150.042 123.63C150.909 123.378 151.776 123.84 151.972 124.653Z" fill="#32A27A" fill-opacity="0.2"/>
<path d="M159.681 123.557C159.721 124.382 160.42 125.034 161.245 125.013V122.019C160.341 122.042 159.641 122.728 159.681 123.557Z" fill="#32A27A" fill-opacity="0.2"/>
<path d="M141.891 128.774C141.475 128.057 140.503 127.838 139.75 128.336L141.372 130.854C142.058 130.398 142.303 129.488 141.891 128.774Z" fill="#32A27A" fill-opacity="0.2"/>
<path d="M174.755 110.271C174.506 111.203 173.583 111.805 172.701 111.602C171.82 111.384 171.242 110.474 171.421 109.518C171.602 108.553 172.531 107.915 173.484 108.15C174.44 108.37 175.011 109.314 174.755 110.271Z" fill="#32A27A" fill-opacity="0.2"/>
<path d="M182.793 113.092C182.4 113.989 182.755 115.017 183.58 115.393L185.119 112.204C184.226 111.798 183.184 112.199 182.793 113.092Z" fill="#32A27A" fill-opacity="0.2"/>
<path d="M162.955 108.58C162.992 107.602 162.226 106.79 161.246 106.767V110.306C162.154 110.33 162.92 109.556 162.955 108.58Z" fill="#32A27A" fill-opacity="0.2"/>
<path d="M195.754 121.248C195.112 121.993 194.055 122.091 193.331 121.543C192.617 120.985 192.51 119.89 193.091 119.105C193.672 118.319 194.769 118.173 195.539 118.781C196.32 119.373 196.388 120.512 195.754 121.248Z" fill="#32A27A" fill-opacity="0.2"/>
<path d="M201.778 127.273C201.033 127.915 200.935 128.972 201.483 129.696L204.247 127.488C203.653 126.706 202.514 126.64 201.778 127.273Z" fill="#32A27A" fill-opacity="0.2"/>
<path d="M185.872 114.576C186.33 113.713 185.993 112.65 185.119 112.203L183.58 115.392C184.388 115.806 185.414 115.441 185.872 114.576Z" fill="#32A27A" fill-opacity="0.2"/>
<path d="M209.935 140.233C209.039 140.623 208.011 140.27 207.636 139.444C207.222 138.638 207.586 137.612 208.45 137.155C209.314 136.697 210.377 137.032 210.823 137.907C211.23 138.801 210.829 139.842 209.935 140.233Z" fill="#32A27A" fill-opacity="0.2"/>
<path d="M212.755 148.273C211.823 148.522 211.221 149.444 211.424 150.327L214.876 149.544C214.655 148.586 213.712 148.015 212.755 148.273Z" fill="#32A27A" fill-opacity="0.2"/>
<path d="M203.924 129.937C204.71 129.357 204.855 128.259 204.248 127.488L201.484 129.696C202.044 130.41 203.139 130.517 203.924 129.937Z" fill="#32A27A" fill-opacity="0.2"/>
<path d="M214.45 163.491C213.474 163.457 212.7 162.689 212.723 161.783C212.7 160.876 213.474 160.11 214.45 160.074C215.426 160.038 216.238 160.802 216.262 161.783C216.238 162.763 215.426 163.53 214.45 163.491Z" fill="#32A27A" fill-opacity="0.2"/>
<path d="M213.508 171.961C212.554 171.781 211.644 172.358 211.426 173.24L214.878 174.022C215.11 173.07 214.475 172.141 213.508 171.961Z" fill="#32A27A" fill-opacity="0.2"/>
<path d="M213.508 151.606C214.475 151.426 215.11 150.497 214.878 149.543L211.426 150.327C211.644 151.207 212.554 151.785 213.508 151.606Z" fill="#32A27A" fill-opacity="0.2"/>
<path d="M208.45 186.411C207.587 185.955 207.221 184.928 207.636 184.121C208.011 183.296 209.039 182.943 209.934 183.334C210.829 183.724 211.23 184.766 210.823 185.66C210.377 186.534 209.314 186.869 208.45 186.411Z" fill="#32A27A" fill-opacity="0.2"/>
<path d="M203.924 193.629C203.139 193.048 202.044 193.156 201.484 193.87L204.248 196.079C204.855 195.306 204.71 194.212 203.924 193.629Z" fill="#32A27A" fill-opacity="0.2"/>
<path d="M212.756 175.293C213.713 175.549 214.656 174.979 214.876 174.022L211.425 173.24C211.22 174.123 211.823 175.043 212.756 175.293Z" fill="#32A27A" fill-opacity="0.2"/>
<path d="M193.091 204.459C192.51 203.675 192.617 202.58 193.331 202.022C194.055 201.473 195.112 201.572 195.754 202.317C196.388 203.052 196.32 204.192 195.539 204.785C194.769 205.391 193.672 205.246 193.091 204.459Z" fill="#32A27A" fill-opacity="0.2"/>
<path d="M185.872 208.988C185.414 208.126 184.388 207.759 183.58 208.175L185.119 211.362C185.993 210.916 186.33 209.852 185.872 208.988Z" fill="#32A27A" fill-opacity="0.2"/>
<path d="M201.778 196.293C202.514 196.926 203.653 196.86 204.247 196.079L201.483 193.87C200.935 194.593 201.033 195.651 201.778 196.293Z" fill="#32A27A" fill-opacity="0.2"/>
<path d="M171.424 214.049C171.243 213.094 171.821 212.184 172.702 211.966C173.585 211.763 174.507 212.364 174.756 213.297C175.012 214.253 174.441 215.195 173.485 215.416C172.532 215.65 171.603 215.015 171.424 214.049Z" fill="#32A27A" fill-opacity="0.2"/>
<path d="M162.955 214.986C162.92 214.01 162.154 213.237 161.246 213.26V216.799C162.226 216.777 162.992 215.964 162.955 214.986Z" fill="#32A27A" fill-opacity="0.2"/>
<path d="M182.793 210.474C183.184 211.368 184.226 211.769 185.119 211.362L183.58 208.175C182.755 208.549 182.4 209.577 182.793 210.474Z" fill="#32A27A" fill-opacity="0.2"/>
<path d="M147.735 213.297C147.984 212.364 148.908 211.763 149.789 211.966C150.671 212.184 151.248 213.094 151.07 214.049C150.888 215.015 149.959 215.65 149.004 215.416C148.05 215.195 147.48 214.253 147.735 213.297Z" fill="#32A27A" fill-opacity="0.2"/>
<path d="M139.695 210.474C140.086 209.577 139.733 208.549 138.908 208.175L137.369 211.362C138.263 211.769 139.305 211.368 139.695 210.474Z" fill="#32A27A" fill-opacity="0.2"/>
<path d="M159.534 214.986C159.498 215.964 160.264 216.777 161.244 216.799V213.26C160.336 213.237 159.571 214.01 159.534 214.986Z" fill="#32A27A" fill-opacity="0.2"/>
<path d="M126.735 202.318C127.377 201.573 128.434 201.474 129.158 202.023C129.873 202.581 129.98 203.676 129.398 204.46C128.817 205.247 127.721 205.394 126.95 204.786C126.169 204.193 126.101 203.053 126.735 202.318Z" fill="#32A27A" fill-opacity="0.2"/>
<path d="M120.711 196.293C121.456 195.651 121.555 194.593 121.006 193.87L118.242 196.079C118.836 196.86 119.975 196.926 120.711 196.293Z" fill="#32A27A" fill-opacity="0.2"/>
<path d="M136.617 208.988C136.159 209.852 136.494 210.916 137.369 211.362L138.908 208.175C138.099 207.759 137.074 208.126 136.617 208.988Z" fill="#32A27A" fill-opacity="0.2"/>
<path d="M112.554 183.334C113.45 182.943 114.478 183.296 114.853 184.121C115.268 184.928 114.901 185.955 114.039 186.411C113.175 186.869 112.113 186.534 111.665 185.66C111.258 184.766 111.659 183.724 112.554 183.334Z" fill="#32A27A" fill-opacity="0.2"/>
<path d="M109.732 175.293C110.664 175.043 111.266 174.123 111.063 173.24L107.611 174.022C107.831 174.979 108.775 175.549 109.732 175.293Z" fill="#32A27A" fill-opacity="0.2"/>
<path d="M118.568 193.629C117.782 194.212 117.634 195.306 118.242 196.079L121.006 193.87C120.446 193.156 119.352 193.048 118.568 193.629Z" fill="#32A27A" fill-opacity="0.2"/>
<path d="M108.042 160.074C109.018 160.109 109.791 160.878 109.768 161.783C109.791 162.692 109.018 163.456 108.042 163.491C107.065 163.53 106.252 162.764 106.229 161.783C106.252 160.803 107.065 160.037 108.042 160.074Z" fill="#32A27A" fill-opacity="0.2"/>
<path d="M108.979 151.606C109.934 151.785 110.843 151.207 111.062 150.327L107.611 149.543C107.378 150.497 108.013 151.426 108.979 151.606Z" fill="#32A27A" fill-opacity="0.2"/>
<path d="M108.979 171.961C108.013 172.141 107.378 173.07 107.611 174.022L111.062 173.24C110.843 172.358 109.934 171.781 108.979 171.961Z" fill="#32A27A" fill-opacity="0.2"/>
<path d="M114.039 137.155C114.901 137.614 115.268 138.638 114.853 139.444C114.478 140.27 113.45 140.623 112.554 140.232C111.659 139.842 111.258 138.801 111.665 137.906C112.111 137.032 113.175 136.697 114.039 137.155Z" fill="#32A27A" fill-opacity="0.2"/>
<path d="M118.568 129.937C119.352 130.517 120.444 130.41 121.006 129.696L118.242 127.488C117.634 128.259 117.782 129.357 118.568 129.937Z" fill="#32A27A" fill-opacity="0.2"/>
<path d="M109.732 148.273C108.775 148.015 107.831 148.586 107.611 149.544L111.063 150.327C111.266 149.444 110.664 148.522 109.732 148.273Z" fill="#32A27A" fill-opacity="0.2"/>
<path d="M129.399 119.105C129.979 119.89 129.872 120.985 129.158 121.543C128.435 122.091 127.377 121.994 126.735 121.248C126.101 120.512 126.169 119.373 126.95 118.78C127.722 118.172 128.817 118.319 129.399 119.105Z" fill="#32A27A" fill-opacity="0.2"/>
<path d="M136.617 114.576C137.074 115.441 138.099 115.806 138.908 115.392L137.369 112.203C136.494 112.65 136.159 113.713 136.617 114.576Z" fill="#32A27A" fill-opacity="0.2"/>
<path d="M120.711 127.273C119.975 126.64 118.833 126.706 118.242 127.488L121.006 129.696C121.555 128.972 121.456 127.915 120.711 127.273Z" fill="#32A27A" fill-opacity="0.2"/>
<path d="M151.068 109.518C151.247 110.474 150.67 111.384 149.789 111.602C148.905 111.805 147.983 111.203 147.732 110.271C147.479 109.314 148.049 108.37 149.004 108.15C149.959 107.917 150.887 108.553 151.068 109.518Z" fill="#32A27A" fill-opacity="0.2"/>
<path d="M159.534 108.58C159.571 109.556 160.336 110.33 161.244 110.306V106.767C160.264 106.79 159.498 107.602 159.534 108.58Z" fill="#32A27A" fill-opacity="0.2"/>
<path d="M139.695 113.092C139.305 112.199 138.263 111.798 137.369 112.204L138.908 115.393C139.733 115.017 140.086 113.989 139.695 113.092Z" fill="#32A27A" fill-opacity="0.2"/>
<path d="M177.425 95.5009C177.151 96.5961 176.069 97.2865 175.009 97.0399C173.945 96.8074 173.227 95.7818 173.423 94.6595C173.615 93.5608 174.712 92.7937 175.854 93.0451C176.992 93.3082 177.696 94.4081 177.425 95.5009Z" fill="#32A27A" fill-opacity="0.2"/>
<path d="M187.116 98.6459C186.695 99.6891 187.176 100.855 188.16 101.321L189.823 97.5908C188.766 97.0952 187.54 97.5967 187.116 98.6459Z" fill="#32A27A" fill-opacity="0.2"/>
<path d="M163.29 93.6072C163.329 92.4814 162.413 91.5431 161.246 91.5148V95.5969C162.335 95.6264 163.251 94.7354 163.29 93.6072Z" fill="#32A27A" fill-opacity="0.2"/>
<path d="M202.974 107.822C202.269 108.719 201.039 108.857 200.138 108.245C199.252 107.612 199.042 106.344 199.674 105.41C200.304 104.474 201.588 104.265 202.541 104.943C203.506 105.605 203.661 106.944 202.974 107.822Z" fill="#32A27A" fill-opacity="0.2"/>
<path d="M210.541 114.647C209.727 115.434 209.694 116.693 210.426 117.502L213.459 114.767C212.674 113.902 211.348 113.867 210.541 114.647Z" fill="#32A27A" fill-opacity="0.2"/>
<path d="M190.854 100.3C191.352 99.2837 190.889 98.0752 189.823 97.5914L188.16 101.322C189.153 101.771 190.361 101.31 190.854 100.3Z" fill="#32A27A" fill-opacity="0.2"/>
<path d="M221.335 129.453C220.352 129.975 219.099 129.642 218.557 128.699C218.027 127.744 218.335 126.51 219.279 125.917C220.245 125.312 221.52 125.63 222.091 126.652C222.671 127.667 222.343 128.916 221.335 129.453Z" fill="#32A27A" fill-opacity="0.2"/>
<path d="M225.479 138.762C224.419 139.148 223.845 140.297 224.194 141.33L228.078 140.07C227.703 138.96 226.539 138.376 225.479 138.762Z" fill="#32A27A" fill-opacity="0.2"/>
<path d="M213.279 117.678C214.144 116.956 214.225 115.651 213.459 114.767L210.426 117.501C211.139 118.326 212.418 118.403 213.279 117.678Z" fill="#32A27A" fill-opacity="0.2"/>
<path d="M229.261 156.688C228.133 156.765 227.165 155.947 227.068 154.863C226.93 153.782 227.726 152.777 228.842 152.622C229.957 152.467 230.983 153.28 231.129 154.439C231.234 155.604 230.385 156.612 229.261 156.688Z" fill="#32A27A" fill-opacity="0.2"/>
<path d="M229.261 166.879C228.133 166.801 227.165 167.619 227.068 168.703L231.129 169.127C231.234 167.962 230.385 166.954 229.261 166.879Z" fill="#32A27A" fill-opacity="0.2"/>
<path d="M226.733 142.653C227.802 142.349 228.471 141.17 228.077 140.07L224.193 141.33C224.564 142.355 225.633 142.969 226.733 142.653Z" fill="#32A27A" fill-opacity="0.2"/>
<path d="M225.479 184.803C224.422 184.418 223.844 183.266 224.194 182.234C224.564 181.21 225.634 180.597 226.733 180.912C227.803 181.217 228.472 182.396 228.078 183.497C227.702 184.605 226.539 185.188 225.479 184.803Z" fill="#32A27A" fill-opacity="0.2"/>
<path d="M221.337 194.114C220.354 193.59 219.1 193.924 218.559 194.867L222.093 196.913C222.673 195.898 222.344 194.651 221.337 194.114Z" fill="#32A27A" fill-opacity="0.2"/>
<path d="M228.842 170.945C229.957 171.101 230.983 170.286 231.129 169.127L227.068 168.704C226.93 169.785 227.726 170.789 228.842 170.945Z" fill="#32A27A" fill-opacity="0.2"/>
<path d="M210.541 208.92C209.727 208.133 209.694 206.87 210.426 206.065C211.138 205.239 212.418 205.162 213.279 205.886C214.144 206.61 214.224 207.914 213.459 208.798C212.674 209.663 211.348 209.7 210.541 208.92Z" fill="#32A27A" fill-opacity="0.2"/>
<path d="M202.974 215.741C202.27 214.843 201.04 214.707 200.138 215.32L202.541 218.622C203.507 217.961 203.661 216.62 202.974 215.741Z" fill="#32A27A" fill-opacity="0.2"/>
<path d="M219.279 197.65C220.245 198.254 221.52 197.936 222.091 196.914L218.557 194.867C218.027 195.821 218.335 197.057 219.279 197.65Z" fill="#32A27A" fill-opacity="0.2"/>
<path d="M187.117 224.917C186.694 223.876 187.176 222.709 188.16 222.245C189.152 221.795 190.361 222.254 190.854 223.266C191.352 224.282 190.888 225.492 189.823 225.974C188.765 226.471 187.539 225.969 187.117 224.917Z" fill="#32A27A" fill-opacity="0.2"/>
<path d="M177.426 228.064C177.152 226.969 176.071 226.28 175.01 226.525L175.855 230.521C176.995 230.258 177.697 229.157 177.426 228.064Z" fill="#32A27A" fill-opacity="0.2"/>
<path d="M199.674 218.156C200.304 219.092 201.588 219.3 202.541 218.623L200.138 215.32C199.252 215.952 199.042 217.223 199.674 218.156Z" fill="#32A27A" fill-opacity="0.2"/>
<path d="M159.2 229.959C159.239 228.831 160.156 227.939 161.246 227.969C162.335 227.939 163.251 228.831 163.29 229.959C163.329 231.084 162.413 232.024 161.246 232.051C160.077 232.024 159.161 231.084 159.2 229.959Z" fill="#32A27A" fill-opacity="0.2"/>
<path d="M149.066 228.906C149.262 227.783 148.543 226.759 147.48 226.525L146.635 230.52C147.778 230.772 148.873 230.005 149.066 228.906Z" fill="#32A27A" fill-opacity="0.2"/>
<path d="M173.423 228.906C173.615 230.005 174.712 230.772 175.854 230.52L175.009 226.525C173.945 226.759 173.227 227.783 173.423 228.906Z" fill="#32A27A" fill-opacity="0.2"/>
<path d="M131.634 223.266C132.128 222.254 133.335 221.795 134.327 222.245C135.312 222.709 135.794 223.876 135.372 224.919C134.949 225.969 133.722 226.471 132.663 225.974C131.601 225.492 131.136 224.282 131.634 223.266Z" fill="#32A27A" fill-opacity="0.2"/>
<path d="M122.814 218.156C123.446 217.223 123.238 215.952 122.349 215.32L119.947 218.623C120.9 219.3 122.184 219.092 122.814 218.156Z" fill="#32A27A" fill-opacity="0.2"/>
<path d="M145.065 228.064C144.792 229.157 145.494 230.258 146.634 230.521L147.479 226.525C146.418 226.28 145.337 226.969 145.065 228.064Z" fill="#32A27A" fill-opacity="0.2"/>
<path d="M109.206 205.886C110.071 205.162 111.35 205.239 112.064 206.065C112.794 206.872 112.762 208.133 111.947 208.92C111.142 209.7 109.815 209.663 109.03 208.798C108.264 207.914 108.345 206.61 109.206 205.886Z" fill="#32A27A" fill-opacity="0.2"/>
<path d="M103.209 197.65C104.155 197.057 104.462 195.821 103.932 194.867L100.398 196.914C100.969 197.936 102.245 198.254 103.209 197.65Z" fill="#32A27A" fill-opacity="0.2"/>
<path d="M119.514 215.741C118.828 216.62 118.982 217.961 119.948 218.622L122.349 215.32C121.449 214.707 120.219 214.843 119.514 215.741Z" fill="#32A27A" fill-opacity="0.2"/>
<path d="M95.7554 180.912C96.8548 180.597 97.9244 181.212 98.2954 182.234C98.6444 183.267 98.0673 184.418 97.0093 184.803C95.9489 185.188 94.7863 184.605 94.4115 183.497C94.0164 182.396 94.6858 181.217 95.7554 180.912Z" fill="#32A27A" fill-opacity="0.2"/>
<path d="M93.6469 170.945C94.7639 170.789 95.559 169.785 95.4203 168.704L91.3594 169.127C91.5055 170.286 92.5313 171.101 93.6469 170.945Z" fill="#32A27A" fill-opacity="0.2"/>
<path d="M101.155 194.114C100.146 194.651 99.8155 195.898 100.399 196.913L103.932 194.867C103.39 193.924 102.138 193.59 101.155 194.114Z" fill="#32A27A" fill-opacity="0.2"/>
<path d="M93.6459 152.622C94.7629 152.779 95.5581 153.782 95.4193 154.863C95.323 155.947 94.3549 156.765 93.2263 156.688C92.1038 156.612 91.2533 155.604 91.3584 154.439C91.5045 153.28 92.5303 152.467 93.6459 152.622Z" fill="#32A27A" fill-opacity="0.2"/>
<path d="M95.7554 142.653C96.8548 142.969 97.9244 142.355 98.2954 141.33L94.4115 140.07C94.0164 141.17 94.6858 142.349 95.7554 142.653Z" fill="#32A27A" fill-opacity="0.2"/>
<path d="M93.2262 166.879C92.1037 166.954 91.2531 167.962 91.3583 169.127L95.4192 168.703C95.3229 167.619 94.3548 166.801 93.2262 166.879Z" fill="#32A27A" fill-opacity="0.2"/>
<path d="M103.208 125.917C104.155 126.509 104.462 127.744 103.932 128.698C103.39 129.641 102.138 129.975 101.155 129.452C100.146 128.915 99.8155 127.667 100.399 126.652C100.969 125.63 102.245 125.312 103.208 125.917Z" fill="#32A27A" fill-opacity="0.2"/>
<path d="M109.206 117.678C110.071 118.403 111.35 118.326 112.064 117.501L109.03 114.767C108.264 115.651 108.345 116.956 109.206 117.678Z" fill="#32A27A" fill-opacity="0.2"/>
<path d="M97.0079 138.762C95.9475 138.376 94.785 138.96 94.4102 140.07L98.294 141.33C98.643 140.297 98.0659 139.148 97.0079 138.762Z" fill="#32A27A" fill-opacity="0.2"/>
<path d="M122.814 105.41C123.444 106.344 123.238 107.613 122.349 108.245C121.449 108.858 120.219 108.722 119.514 107.823C118.828 106.945 118.982 105.605 119.948 104.943C120.9 104.266 122.184 104.475 122.814 105.41Z" fill="#32A27A" fill-opacity="0.2"/>
<path d="M131.634 100.3C132.128 101.31 133.335 101.771 134.327 101.322L132.663 97.5914C131.601 98.0752 131.136 99.2837 131.634 100.3Z" fill="#32A27A" fill-opacity="0.2"/>
<path d="M111.946 114.647C111.141 113.867 109.814 113.902 109.029 114.767L112.063 117.502C112.793 116.693 112.761 115.434 111.946 114.647Z" fill="#32A27A" fill-opacity="0.2"/>
<path d="M149.064 94.6617C149.26 95.7817 148.542 96.8073 147.479 97.0397C146.418 97.2864 145.337 96.596 145.065 95.5008C144.792 94.408 145.494 93.3081 146.634 93.045C147.778 92.7936 148.873 93.5607 149.064 94.6617Z" fill="#32A27A" fill-opacity="0.2"/>
<path d="M159.2 93.6072C159.239 94.7354 160.156 95.6264 161.246 95.5969V91.5148C160.076 91.5431 159.161 92.4814 159.2 93.6072Z" fill="#32A27A" fill-opacity="0.2"/>
<path d="M135.372 98.6459C134.948 97.5967 133.722 97.0952 132.662 97.5908L134.326 101.321C135.312 100.855 135.793 99.6891 135.372 98.6459Z" fill="#32A27A" fill-opacity="0.2"/>
<path d="M179.768 80.6476C179.477 81.8986 178.259 82.6727 177.033 82.4332C175.809 82.1901 174.976 81.0016 175.181 79.7436C175.389 78.4785 176.622 77.6323 177.93 77.8931C179.24 78.1504 180.058 79.4096 179.768 80.6476Z" fill="#32A27A" fill-opacity="0.2"/>
<path d="M190.92 84.0303C190.47 85.2246 191.052 86.55 192.206 87.0303L193.977 82.7558C192.747 82.2424 191.369 82.8325 190.92 84.0303Z" fill="#32A27A" fill-opacity="0.2"/>
<path d="M163.583 78.6106C163.625 77.323 162.578 76.281 161.246 76.2609V80.8894C162.494 80.9071 163.541 79.878 163.583 78.6106Z" fill="#32A27A" fill-opacity="0.2"/>
<path d="M209.396 93.9185C208.651 94.9594 207.22 95.2143 206.186 94.5156C205.147 93.8229 204.839 92.402 205.51 91.3222C206.189 90.2329 207.651 89.9296 208.759 90.6719C209.864 91.4154 210.141 92.8823 209.396 93.9185Z" fill="#32A27A" fill-opacity="0.2"/>
<path d="M218.403 101.32C217.535 102.247 217.552 103.709 218.445 104.582L221.719 101.309C220.764 100.378 219.281 100.381 218.403 101.32Z" fill="#32A27A" fill-opacity="0.2"/>
<path d="M195.237 85.8185C195.766 84.6619 195.211 83.2658 193.976 82.756L192.205 87.0305C193.359 87.5061 194.707 86.9868 195.237 85.8185Z" fill="#32A27A" fill-opacity="0.2"/>
<path d="M231.705 117.514C230.625 118.188 229.204 117.88 228.512 116.841C227.813 115.807 228.068 114.376 229.109 113.627C230.144 112.886 231.611 113.161 232.357 114.265C233.095 115.376 232.794 116.836 231.705 117.514Z" fill="#32A27A" fill-opacity="0.2"/>
<path d="M237.209 127.787C236.041 128.318 235.52 129.667 235.996 130.821L240.271 129.05C239.762 127.815 238.365 127.261 237.209 127.787Z" fill="#32A27A" fill-opacity="0.2"/>
<path d="M221.706 104.626C222.646 103.746 222.648 102.263 221.717 101.31L218.443 104.582C219.318 105.476 220.78 105.493 221.706 104.626Z" fill="#32A27A" fill-opacity="0.2"/>
<path d="M243.283 147.846C242.026 148.05 240.838 147.219 240.595 145.996C240.353 144.769 241.129 143.55 242.38 143.259C243.618 142.971 244.876 143.789 245.135 145.096C245.394 146.406 244.55 147.64 243.283 147.846Z" fill="#32A27A" fill-opacity="0.2"/>
<path d="M244.419 159.445C243.15 159.488 242.12 160.536 242.139 161.783H246.766C246.747 160.451 245.705 159.404 244.419 159.445Z" fill="#32A27A" fill-opacity="0.2"/>
<path d="M238.996 132.108C240.195 131.657 240.785 130.281 240.272 129.05L235.996 130.821C236.478 131.972 237.803 132.556 238.996 132.108Z" fill="#32A27A" fill-opacity="0.2"/>
<path d="M242.38 180.303C241.129 180.013 240.355 178.794 240.594 177.569C240.837 176.345 242.026 175.513 243.283 175.719C244.549 175.926 245.394 177.158 245.134 178.467C244.877 179.775 243.618 180.595 242.38 180.303Z" fill="#32A27A" fill-opacity="0.2"/>
<path d="M238.996 191.459C237.803 191.009 236.478 191.594 235.996 192.744L240.272 194.516C240.785 193.285 240.195 191.909 238.996 191.459Z" fill="#32A27A" fill-opacity="0.2"/>
<path d="M244.419 164.121C245.705 164.163 246.747 163.115 246.766 161.783H242.139C242.12 163.032 243.15 164.078 244.419 164.121Z" fill="#32A27A" fill-opacity="0.2"/>
<path d="M229.109 209.939C228.068 209.189 227.813 207.759 228.512 206.725C229.204 205.685 230.625 205.379 231.705 206.05C232.794 206.728 233.097 208.19 232.357 209.299C231.611 210.403 230.144 210.681 229.109 209.939Z" fill="#32A27A" fill-opacity="0.2"/>
<path d="M221.706 218.941C220.78 218.073 219.318 218.089 218.443 218.982L221.717 222.255C222.648 221.303 222.646 219.819 221.706 218.941Z" fill="#32A27A" fill-opacity="0.2"/>
<path d="M237.209 195.777C238.365 196.304 239.762 195.748 240.271 194.515L235.996 192.744C235.52 193.898 236.041 195.247 237.209 195.777Z" fill="#32A27A" fill-opacity="0.2"/>
<path d="M205.51 232.243C204.839 231.164 205.147 229.741 206.186 229.05C207.22 228.35 208.651 228.605 209.399 229.646C210.141 230.682 209.866 232.149 208.759 232.894C207.651 233.635 206.189 233.333 205.51 232.243Z" fill="#32A27A" fill-opacity="0.2"/>
<path d="M195.237 237.748C194.707 236.579 193.359 236.06 192.205 236.535L193.976 240.811C195.211 240.301 195.766 238.906 195.237 237.748Z" fill="#32A27A" fill-opacity="0.2"/>
<path d="M218.403 222.246C219.281 223.185 220.764 223.187 221.719 222.255L218.445 218.982C217.552 219.857 217.535 221.318 218.403 222.246Z" fill="#32A27A" fill-opacity="0.2"/>
<path d="M175.182 243.822C174.975 242.564 175.808 241.375 177.032 241.132C178.258 240.892 179.476 241.668 179.769 242.917C180.057 244.156 179.239 245.415 177.929 245.671C176.622 245.933 175.388 245.087 175.182 243.822Z" fill="#32A27A" fill-opacity="0.2"/>
<path d="M163.583 244.956C163.541 243.687 162.494 242.657 161.246 242.676V247.305C162.578 247.284 163.625 246.243 163.583 244.956Z" fill="#32A27A" fill-opacity="0.2"/>
<path d="M190.92 239.536C191.369 240.735 192.747 241.325 193.977 240.81L192.206 236.535C191.052 237.017 190.47 238.341 190.92 239.536Z" fill="#32A27A" fill-opacity="0.2"/>
<path d="M142.72 242.917C143.012 241.668 144.231 240.892 145.458 241.132C146.681 241.375 147.513 242.564 147.308 243.822C147.1 245.087 145.867 245.933 144.56 245.671C143.251 245.415 142.432 244.156 142.72 242.917Z" fill="#32A27A" fill-opacity="0.2"/>
<path d="M131.569 239.536C132.018 238.341 131.434 237.017 130.282 236.535L128.51 240.81C129.742 241.325 131.118 240.735 131.569 239.536Z" fill="#32A27A" fill-opacity="0.2"/>
<path d="M158.907 244.956C158.865 246.243 159.913 247.284 161.245 247.305V242.676C159.994 242.657 158.949 243.687 158.907 244.956Z" fill="#32A27A" fill-opacity="0.2"/>
<path d="M113.089 229.647C113.838 228.605 115.268 228.351 116.302 229.05C117.342 229.742 117.649 231.164 116.977 232.244C116.3 233.333 114.837 233.636 113.729 232.894C112.624 232.149 112.347 230.682 113.089 229.647Z" fill="#32A27A" fill-opacity="0.2"/>
<path d="M104.087 222.246C104.955 221.318 104.939 219.857 104.044 218.982L100.771 222.255C101.726 223.187 103.209 223.185 104.087 222.246Z" fill="#32A27A" fill-opacity="0.2"/>
<path d="M127.247 237.748C126.722 238.906 127.274 240.301 128.509 240.811L130.281 236.535C129.128 236.06 127.779 236.579 127.247 237.748Z" fill="#32A27A" fill-opacity="0.2"/>
<path d="M90.7849 206.05C91.8645 205.379 93.2857 205.686 93.9783 206.726C94.6767 207.759 94.4235 209.19 93.3817 209.939C92.3462 210.681 90.8794 210.405 90.1326 209.299C89.3927 208.19 89.6955 206.73 90.7849 206.05Z" fill="#32A27A" fill-opacity="0.2"/>
<path d="M85.279 195.777C86.4486 195.247 86.9677 193.898 86.4915 192.744L82.2167 194.515C82.7261 195.748 84.122 196.304 85.279 195.777Z" fill="#32A27A" fill-opacity="0.2"/>
<path d="M100.779 218.941C99.8422 219.819 99.8398 221.303 100.771 222.255L104.044 218.982C103.171 218.089 101.709 218.073 100.779 218.941Z" fill="#32A27A" fill-opacity="0.2"/>
<path d="M79.2046 175.72C80.4623 175.513 81.6503 176.345 81.8937 177.569C82.1334 178.794 81.3584 180.013 80.1083 180.305C78.8704 180.595 77.6111 179.775 77.3538 178.467C77.0934 177.159 77.9393 175.927 79.2046 175.72Z" fill="#32A27A" fill-opacity="0.2"/>
<path d="M78.07 164.121C79.3391 164.078 80.3695 163.032 80.3511 161.783H75.7227C75.7425 163.115 76.7843 164.163 78.07 164.121Z" fill="#32A27A" fill-opacity="0.2"/>
<path d="M83.4924 191.459C82.2938 191.909 81.7037 193.285 82.2172 194.516L86.4921 192.744C86.0113 191.594 84.6863 191.009 83.4924 191.459Z" fill="#32A27A" fill-opacity="0.2"/>
<path d="M80.1073 143.261C81.3584 143.55 82.1334 144.77 81.8937 145.996C81.6503 147.22 80.4623 148.05 79.2046 147.847C77.9393 147.64 77.0934 146.406 77.3538 145.096C77.6111 143.789 78.8704 142.971 80.1073 143.261Z" fill="#32A27A" fill-opacity="0.2"/>
<path d="M83.4924 132.108C84.6863 132.556 86.0113 131.972 86.4921 130.821L82.2172 129.05C81.7037 130.281 82.2938 131.657 83.4924 132.108Z" fill="#32A27A" fill-opacity="0.2"/>
<path d="M78.07 159.445C76.7843 159.404 75.7425 160.451 75.7227 161.783H80.3511C80.3695 160.536 79.3391 159.488 78.07 159.445Z" fill="#32A27A" fill-opacity="0.2"/>
<path d="M93.3803 113.627C94.4208 114.376 94.6767 115.807 93.9783 116.841C93.2849 117.88 91.8645 118.188 90.7849 117.514C89.6955 116.837 89.3927 115.376 90.1326 114.265C90.8794 113.162 92.3462 112.886 93.3803 113.627Z" fill="#32A27A" fill-opacity="0.2"/>
<path d="M100.779 104.626C101.709 105.493 103.17 105.476 104.044 104.582L100.771 101.31C99.8396 102.263 99.8419 103.746 100.779 104.626Z" fill="#32A27A" fill-opacity="0.2"/>
<path d="M85.2792 127.787C84.1221 127.261 82.7263 127.815 82.2168 129.05L86.4916 130.821C86.9678 129.667 86.4487 128.318 85.2792 127.787Z" fill="#32A27A" fill-opacity="0.2"/>
<path d="M116.978 91.3222C117.648 92.402 117.343 93.8229 116.302 94.5156C115.269 95.2143 113.838 94.9594 113.089 93.9185C112.347 92.8823 112.623 91.4154 113.729 90.6719C114.837 89.9308 116.298 90.2329 116.978 91.3222Z" fill="#32A27A" fill-opacity="0.2"/>
<path d="M127.247 85.8185C127.779 86.9868 129.128 87.5061 130.281 87.0305L128.509 82.756C127.274 83.2658 126.722 84.6619 127.247 85.8185Z" fill="#32A27A" fill-opacity="0.2"/>
<path d="M104.087 101.32C103.209 100.381 101.726 100.378 100.771 101.309L104.044 104.582C104.939 103.709 104.955 102.247 104.087 101.32Z" fill="#32A27A" fill-opacity="0.2"/>
<path d="M147.307 79.7436C147.514 81.0016 146.682 82.1901 145.458 82.4332C144.232 82.6727 143.01 81.8986 142.72 80.6476C142.432 79.4096 143.25 78.1504 144.56 77.8931C145.867 77.6323 147.1 78.4785 147.307 79.7436Z" fill="#32A27A" fill-opacity="0.2"/>
<path d="M158.907 78.6106C158.949 79.878 159.994 80.9071 161.245 80.8894V76.2609C159.913 76.281 158.865 77.323 158.907 78.6106Z" fill="#32A27A" fill-opacity="0.2"/>
<path d="M131.569 84.0303C131.118 82.8325 129.742 82.2424 128.51 82.7558L130.282 87.0303C131.434 86.55 132.018 85.2246 131.569 84.0303Z" fill="#32A27A" fill-opacity="0.2"/>
<path d="M181.836 65.7663C181.533 67.1565 180.185 68.0499 178.818 67.7985C177.454 67.5401 176.513 66.2348 176.733 64.8163C176.948 63.4107 178.311 62.4371 179.762 62.7133C181.218 62.9823 182.143 64.3631 181.836 65.7663Z" fill="#32A27A" fill-opacity="0.2"/>
<path d="M194.288 69.301C193.814 70.6416 194.492 72.1156 195.784 72.6172L197.654 67.7951C196.276 67.2605 194.763 67.9474 194.288 69.301Z" fill="#32A27A" fill-opacity="0.2"/>
<path d="M163.841 63.6289C163.886 62.1986 162.724 61.0291 161.246 61.0102V66.1804C162.635 66.2005 163.798 65.0546 163.841 63.6289Z" fill="#32A27A" fill-opacity="0.2"/>
<path d="M215.122 79.694C214.331 80.8848 212.756 81.2188 211.572 80.4918C210.398 79.7483 209.991 78.1999 210.712 76.9549C211.421 75.7275 213.049 75.3062 214.3 76.0981C215.559 76.8711 215.912 78.5056 215.122 79.694Z" fill="#32A27A" fill-opacity="0.2"/>
<path d="M225.45 87.4987C224.521 88.5809 224.613 90.206 225.648 91.1348L229.133 87.3123C228.032 86.3245 226.379 86.4118 225.45 87.4987Z" fill="#32A27A" fill-opacity="0.2"/>
<path d="M199.128 71.1758C199.684 69.867 199.032 68.3281 197.653 67.7946L195.783 72.6167C197.081 73.1171 198.568 72.4952 199.128 71.1758Z" fill="#32A27A" fill-opacity="0.2"/>
<path d="M241.141 104.703C239.97 105.532 238.376 105.28 237.538 104.173C236.7 103.064 236.899 101.457 238.008 100.564C239.123 99.6628 240.77 99.874 241.663 101.054C242.556 102.231 242.301 103.882 241.141 104.703Z" fill="#32A27A" fill-opacity="0.2"/>
<path d="M247.962 115.704C246.697 116.386 246.232 117.916 246.838 119.168L251.466 116.857C250.819 115.528 249.211 115.032 247.962 115.704Z" fill="#32A27A" fill-opacity="0.2"/>
<path d="M229.284 90.9996C230.285 89.9681 230.217 88.3171 229.133 87.3116L225.648 91.1341C226.666 92.0794 228.296 92.0169 229.284 90.9996Z" fill="#32A27A" fill-opacity="0.2"/>
<path d="M256.38 137.412C255.004 137.758 253.579 136.953 253.219 135.612C252.82 134.281 253.609 132.85 254.964 132.418C256.332 131.982 257.772 132.782 258.194 134.198C258.578 135.628 257.775 137.064 256.38 137.412Z" fill="#32A27A" fill-opacity="0.2"/>
<path d="M258.741 150.14C257.313 150.315 256.325 151.573 256.436 152.959L261.586 152.487C261.467 151.013 260.148 149.966 258.741 150.14Z" fill="#32A27A" fill-opacity="0.2"/>
<path d="M250.277 120.352C251.572 119.756 252.134 118.177 251.464 116.858L246.836 119.168C247.465 120.406 248.977 120.95 250.277 120.352Z" fill="#32A27A" fill-opacity="0.2"/>
<path d="M258.741 173.424C257.313 173.249 256.325 171.993 256.436 170.607C256.571 169.223 257.787 168.168 259.212 168.255C260.639 168.342 261.729 169.606 261.586 171.079C261.467 172.551 260.148 173.598 258.741 173.424Z" fill="#32A27A" fill-opacity="0.2"/>
<path d="M256.38 186.154C255.004 185.81 253.579 186.613 253.219 187.955L258.194 189.367C258.578 187.939 257.775 186.503 256.38 186.154Z" fill="#32A27A" fill-opacity="0.2"/>
<path d="M259.211 155.311C260.638 155.224 261.728 153.959 261.586 152.487L256.436 152.959C256.57 154.341 257.787 155.398 259.211 155.311Z" fill="#32A27A" fill-opacity="0.2"/>
<path d="M247.962 207.862C246.697 207.179 246.232 205.649 246.838 204.398C247.467 203.16 248.978 202.617 250.279 203.216C251.573 203.809 252.135 205.388 251.466 206.709C250.82 208.038 249.211 208.533 247.962 207.862Z" fill="#32A27A" fill-opacity="0.2"/>
<path d="M241.14 218.862C239.969 218.033 238.375 218.283 237.537 219.393L241.662 222.512C242.555 221.334 242.3 219.684 241.14 218.862Z" fill="#32A27A" fill-opacity="0.2"/>
<path d="M254.964 191.148C256.332 191.583 257.772 190.784 258.194 189.366L253.219 187.954C252.82 189.285 253.61 190.718 254.964 191.148Z" fill="#32A27A" fill-opacity="0.2"/>
<path d="M225.45 236.067C224.521 234.985 224.613 233.36 225.648 232.431C226.665 231.487 228.295 231.547 229.284 232.567C230.285 233.597 230.217 235.247 229.133 236.255C228.032 237.24 226.381 237.154 225.45 236.067Z" fill="#32A27A" fill-opacity="0.2"/>
<path d="M215.122 243.873C214.331 242.681 212.757 242.347 211.572 243.073L214.3 247.469C215.559 246.693 215.912 245.06 215.122 243.873Z" fill="#32A27A" fill-opacity="0.2"/>
<path d="M238.008 223.001C239.124 223.904 240.77 223.692 241.663 222.512L237.538 219.393C236.7 220.501 236.899 222.11 238.008 223.001Z" fill="#32A27A" fill-opacity="0.2"/>
<path d="M194.288 254.264C193.814 252.926 194.492 251.452 195.784 250.949C197.082 250.447 198.569 251.071 199.129 252.391C199.685 253.699 199.033 255.239 197.656 255.772C196.276 256.306 194.763 255.617 194.288 254.264Z" fill="#32A27A" fill-opacity="0.2"/>
<path d="M181.836 257.8C181.533 256.411 180.185 255.516 178.818 255.768L179.762 260.852C181.218 260.584 182.143 259.202 181.836 257.8Z" fill="#32A27A" fill-opacity="0.2"/>
<path d="M210.712 246.611C211.421 247.838 213.049 248.26 214.3 247.469L211.572 243.073C210.398 243.818 209.991 245.366 210.712 246.611Z" fill="#32A27A" fill-opacity="0.2"/>
<path d="M158.648 259.937C158.693 258.511 159.854 257.365 161.244 257.385C162.633 257.365 163.795 258.511 163.839 259.937C163.884 261.366 162.722 262.537 161.244 262.557C159.768 262.537 158.604 261.366 158.648 259.937Z" fill="#32A27A" fill-opacity="0.2"/>
<path d="M145.757 258.75C145.976 257.332 145.035 256.028 143.671 255.768L142.727 260.852C144.179 261.13 145.541 260.157 145.757 258.75Z" fill="#32A27A" fill-opacity="0.2"/>
<path d="M176.733 258.75C176.948 260.157 178.311 261.13 179.762 260.852L178.818 255.768C177.454 256.028 176.513 257.332 176.733 258.75Z" fill="#32A27A" fill-opacity="0.2"/>
<path d="M123.36 252.391C123.921 251.071 125.407 250.447 126.703 250.949C127.998 251.452 128.675 252.926 128.203 254.265C127.726 255.617 126.213 256.306 124.833 255.772C123.456 255.239 122.805 253.7 123.36 252.391Z" fill="#32A27A" fill-opacity="0.2"/>
<path d="M111.777 246.611C112.497 245.366 112.091 243.817 110.917 243.073L108.189 247.469C109.44 248.259 111.067 247.838 111.777 246.611Z" fill="#32A27A" fill-opacity="0.2"/>
<path d="M140.654 257.8C140.349 259.201 141.273 260.584 142.728 260.851L143.672 255.768C142.305 255.516 140.958 256.411 140.654 257.8Z" fill="#32A27A" fill-opacity="0.2"/>
<path d="M93.2043 232.568C94.1932 231.547 95.8227 231.487 96.8401 232.431C97.8756 233.361 97.9673 234.985 97.0388 236.067C96.1099 237.154 94.4558 237.242 93.355 236.255C92.2716 235.25 92.2039 233.597 93.2043 232.568Z" fill="#32A27A" fill-opacity="0.2"/>
<path d="M84.4819 223.001C85.5891 222.11 85.7888 220.501 84.9507 219.393L80.8262 222.512C81.7182 223.692 83.3654 223.904 84.4819 223.001Z" fill="#32A27A" fill-opacity="0.2"/>
<path d="M107.367 243.873C106.577 245.06 106.93 246.693 108.189 247.469L110.917 243.073C109.732 242.347 108.158 242.681 107.367 243.873Z" fill="#32A27A" fill-opacity="0.2"/>
<path d="M72.2111 203.218C73.5112 202.617 75.0232 203.163 75.6524 204.398C76.2572 205.65 75.7931 207.179 74.5276 207.862C73.2797 208.533 71.6694 208.038 71.0241 206.709C70.3547 205.388 70.9166 203.812 72.2111 203.218Z" fill="#32A27A" fill-opacity="0.2"/>
<path d="M67.5239 191.148C68.8783 190.718 69.6661 189.285 69.2687 187.954L64.2932 189.366C64.7164 190.784 66.1556 191.583 67.5239 191.148Z" fill="#32A27A" fill-opacity="0.2"/>
<path d="M81.3477 218.861C80.1869 219.684 79.9325 221.334 80.8254 222.512L84.9499 219.393C84.1123 218.283 82.5158 218.033 81.3477 218.861Z" fill="#32A27A" fill-opacity="0.2"/>
<path d="M63.273 168.256C64.6998 168.17 65.9169 169.226 66.0514 170.607C66.1598 171.994 65.1747 173.25 63.7465 173.427C62.3395 173.6 61.0188 172.552 60.9013 171.079C60.7584 169.609 61.8486 168.342 63.273 168.256Z" fill="#32A27A" fill-opacity="0.2"/>
<path d="M63.273 155.311C64.6998 155.398 65.9169 154.341 66.0514 152.959L60.9013 152.487C60.7584 153.959 61.8486 155.225 63.273 155.311Z" fill="#32A27A" fill-opacity="0.2"/>
<path d="M66.1069 186.154C64.7129 186.503 63.9093 187.939 64.2929 189.367L69.2684 187.955C68.9088 186.613 67.4829 185.81 66.1069 186.154Z" fill="#32A27A" fill-opacity="0.2"/>
<path d="M67.5235 132.418C68.878 132.85 69.6657 134.281 69.2684 135.612C68.9088 136.953 67.4829 137.757 66.1069 137.414C64.7129 137.063 63.9093 135.627 64.2929 134.198C64.7161 132.782 66.1553 131.982 67.5235 132.418Z" fill="#32A27A" fill-opacity="0.2"/>
<path d="M72.2111 120.352C73.5112 120.95 75.0219 120.406 75.6524 119.168L71.0241 116.858C70.3547 118.177 70.9166 119.756 72.2111 120.352Z" fill="#32A27A" fill-opacity="0.2"/>
<path d="M63.7476 150.14C62.3406 149.966 61.0199 151.013 60.9023 152.487L66.0525 152.959C66.1608 151.573 65.1758 150.315 63.7476 150.14Z" fill="#32A27A" fill-opacity="0.2"/>
<path d="M84.4811 100.565C85.5883 101.458 85.788 103.064 84.9499 104.174C84.1123 105.283 82.5158 105.532 81.3477 104.703C80.1869 103.882 79.9325 102.233 80.8254 101.054C81.7151 99.8743 83.3646 99.6654 84.4811 100.565Z" fill="#32A27A" fill-opacity="0.2"/>
<path d="M93.2046 90.9996C94.1934 92.0169 95.823 92.0794 96.8404 91.1341L93.3553 87.3116C92.2711 88.3171 92.2042 89.9681 93.2046 90.9996Z" fill="#32A27A" fill-opacity="0.2"/>
<path d="M74.5269 115.704C73.279 115.032 71.6687 115.528 71.0234 116.857L75.6517 119.168C76.2566 117.916 75.7924 116.386 74.5269 115.704Z" fill="#32A27A" fill-opacity="0.2"/>
<path d="M111.777 76.9549C112.497 78.1999 112.091 79.7495 110.917 80.4918C109.732 81.2188 108.158 80.8848 107.367 79.694C106.577 78.5056 106.93 76.8711 108.189 76.0993C109.438 75.3086 111.067 75.7275 111.777 76.9549Z" fill="#32A27A" fill-opacity="0.2"/>
<path d="M123.361 71.1758C123.921 72.4952 125.407 73.1171 126.703 72.6167L124.834 67.7946C123.454 68.3281 122.805 69.867 123.361 71.1758Z" fill="#32A27A" fill-opacity="0.2"/>
<path d="M97.0393 87.4987C96.1104 86.4118 94.4563 86.3257 93.3555 87.3123L96.8406 91.1348C97.876 90.206 97.9677 88.5809 97.0393 87.4987Z" fill="#32A27A" fill-opacity="0.2"/>
<path d="M145.758 64.8163C145.977 66.2348 145.036 67.5401 143.672 67.7985C142.305 68.0499 140.957 67.1565 140.654 65.7663C140.348 64.3631 141.272 62.9823 142.726 62.7133C144.179 62.4371 145.542 63.4131 145.758 64.8163Z" fill="#32A27A" fill-opacity="0.2"/>
<path d="M158.648 63.6289C158.69 65.0546 159.854 66.2005 161.244 66.1804V61.0102C159.768 61.0291 158.603 62.1986 158.648 63.6289Z" fill="#32A27A" fill-opacity="0.2"/>
<path d="M128.203 69.301C127.727 67.9474 126.214 67.2605 124.834 67.7951L126.703 72.6172C127.999 72.1156 128.675 70.6416 128.203 69.301Z" fill="#32A27A" fill-opacity="0.2"/>
<path d="M183.677 50.843C183.358 52.3937 181.898 53.4027 180.408 53.136C178.914 52.887 177.886 51.4212 178.111 49.867C178.339 48.2939 179.807 47.2412 181.393 47.5043C182.976 47.7864 183.995 49.3017 183.677 50.843Z" fill="#32A27A" fill-opacity="0.2"/>
<path d="M197.291 54.4801C196.799 55.9695 197.552 57.598 198.981 58.0996L200.937 52.7288C199.419 52.1953 197.79 52.9719 197.291 54.4801Z" fill="#32A27A" fill-opacity="0.2"/>
<path d="M164.071 48.6517C164.116 47.0738 162.852 45.7768 161.246 45.758V51.4734C162.761 51.4935 164.025 50.2295 164.071 48.6517Z" fill="#32A27A" fill-opacity="0.2"/>
<path d="M220.261 65.21C219.436 66.5424 217.705 67.0062 216.402 66.2356C215.088 65.485 214.619 63.7679 215.371 62.3777C216.119 60.991 217.869 60.4906 219.265 61.2884C220.651 62.1051 221.097 63.8576 220.261 65.21Z" fill="#32A27A" fill-opacity="0.2"/>
<path d="M231.796 73.3033C230.81 74.5508 230.993 76.2986 232.144 77.2852L235.821 72.9068C234.598 71.8612 232.768 72.0736 231.796 73.3033Z" fill="#32A27A" fill-opacity="0.2"/>
<path d="M202.604 56.4135C203.187 54.9501 202.445 53.2896 200.938 52.729L198.982 58.0999C200.4 58.6286 202.019 57.8816 202.604 56.4135Z" fill="#32A27A" fill-opacity="0.2"/>
<path d="M249.724 91.2318C248.478 92.2172 246.73 92.0343 245.743 90.8837C244.775 89.72 244.913 87.9545 246.089 86.9054C247.268 85.8527 249.094 85.9707 250.121 87.2063C251.167 88.429 250.953 90.2594 249.724 91.2318Z" fill="#32A27A" fill-opacity="0.2"/>
<path d="M257.819 102.766C256.485 103.592 256.022 105.32 256.793 106.626L261.74 103.763C260.923 102.377 259.169 101.93 257.819 102.766Z" fill="#32A27A" fill-opacity="0.2"/>
<path d="M236.123 76.9401C237.175 75.7611 237.056 73.9354 235.822 72.9075L232.145 77.2858C233.308 78.2547 235.074 78.1167 236.123 76.9401Z" fill="#32A27A" fill-opacity="0.2"/>
<path d="M268.547 125.736C267.058 126.227 265.429 125.474 264.928 124.045C264.399 122.627 265.145 121.008 266.614 120.424C268.077 119.841 269.738 120.583 270.298 122.089C270.832 123.607 270.054 125.235 268.547 125.736Z" fill="#32A27A" fill-opacity="0.2"/>
<path d="M272.185 139.351C270.634 139.669 269.625 141.131 269.892 142.621L275.524 141.636C275.238 140.053 273.726 139.033 272.185 139.351Z" fill="#32A27A" fill-opacity="0.2"/>
<path d="M260.651 107.657C262.036 106.91 262.538 105.157 261.74 103.763L256.793 106.626C257.542 107.941 259.259 108.41 260.651 107.657Z" fill="#32A27A" fill-opacity="0.2"/>
<path d="M274.376 164.609C272.798 164.563 271.534 163.297 271.553 161.783C271.534 160.269 272.798 159.002 274.376 158.957C275.954 158.913 277.251 160.177 277.27 161.783C277.251 163.389 275.954 164.654 274.376 164.609Z" fill="#32A27A" fill-opacity="0.2"/>
<path d="M273.16 178.65C271.605 178.424 270.137 179.451 269.891 180.945L275.522 181.931C275.785 180.346 274.732 178.878 273.16 178.65Z" fill="#32A27A" fill-opacity="0.2"/>
<path d="M273.16 144.918C274.732 144.69 275.785 143.222 275.522 141.636L269.891 142.621C270.138 144.115 271.605 145.142 273.16 144.918Z" fill="#32A27A" fill-opacity="0.2"/>
<path d="M266.614 203.139C265.145 202.556 264.399 200.937 264.928 199.52C265.429 198.091 267.058 197.338 268.547 197.829C270.054 198.328 270.832 199.958 270.298 201.475C269.738 202.981 268.077 203.724 266.614 203.139Z" fill="#32A27A" fill-opacity="0.2"/>
<path d="M260.649 215.908C259.258 215.157 257.54 215.624 256.789 216.94L261.737 219.805C262.536 218.408 262.035 216.656 260.649 215.908Z" fill="#32A27A" fill-opacity="0.2"/>
<path d="M272.185 184.216C273.727 184.532 275.238 183.513 275.524 181.93L269.892 180.945C269.626 182.436 270.633 183.896 272.185 184.216Z" fill="#32A27A" fill-opacity="0.2"/>
<path d="M246.088 236.661C244.912 235.613 244.776 233.847 245.742 232.682C246.729 231.532 248.477 231.348 249.723 232.334C250.953 233.308 251.166 235.137 250.12 236.36C249.093 237.593 247.267 237.714 246.088 236.661Z" fill="#32A27A" fill-opacity="0.2"/>
<path d="M236.123 246.626C235.074 245.45 233.308 245.312 232.145 246.283L235.822 250.66C237.056 249.63 237.175 247.806 236.123 246.626Z" fill="#32A27A" fill-opacity="0.2"/>
<path d="M257.817 220.799C259.167 221.636 260.922 221.188 261.738 219.804L256.789 216.94C256.021 218.243 256.484 219.974 257.817 220.799Z" fill="#32A27A" fill-opacity="0.2"/>
<path d="M215.371 261.189C214.619 259.797 215.088 258.08 216.402 257.33C217.706 256.56 219.436 257.022 220.261 258.355C221.097 259.707 220.651 261.46 219.265 262.277C217.872 263.075 216.119 262.573 215.371 261.189Z" fill="#32A27A" fill-opacity="0.2"/>
<path d="M202.604 267.153C202.019 265.683 200.4 264.938 198.982 265.467L200.938 270.837C202.445 270.276 203.187 268.617 202.604 267.153Z" fill="#32A27A" fill-opacity="0.2"/>
<path d="M231.796 250.263C232.768 251.493 234.598 251.705 235.821 250.662L232.144 246.284C230.993 247.269 230.81 249.017 231.796 250.263Z" fill="#32A27A" fill-opacity="0.2"/>
<path d="M178.111 273.698C177.885 272.145 178.913 270.678 180.407 270.431C181.898 270.163 183.359 271.173 183.676 272.722C183.995 274.265 182.975 275.778 181.393 276.06C179.807 276.325 178.339 275.27 178.111 273.698Z" fill="#32A27A" fill-opacity="0.2"/>
<path d="M164.071 274.915C164.025 273.338 162.76 272.073 161.246 272.093V277.81C162.852 277.789 164.116 276.493 164.071 274.915Z" fill="#32A27A" fill-opacity="0.2"/>
<path d="M197.291 269.084C197.79 270.593 199.419 271.371 200.937 270.836L198.981 265.467C197.552 265.967 196.799 267.596 197.291 269.084Z" fill="#32A27A" fill-opacity="0.2"/>
<path d="M138.812 272.722C139.13 271.173 140.592 270.163 142.081 270.431C143.575 270.678 144.603 272.145 144.379 273.698C144.15 275.27 142.682 276.325 141.096 276.06C139.514 275.778 138.494 274.265 138.812 272.722Z" fill="#32A27A" fill-opacity="0.2"/>
<path d="M125.199 269.084C125.69 267.596 124.936 265.967 123.508 265.467L121.553 270.836C123.07 271.371 124.699 270.593 125.199 269.084Z" fill="#32A27A" fill-opacity="0.2"/>
<path d="M158.419 274.915C158.372 276.493 159.638 277.789 161.246 277.81V272.093C159.729 272.073 158.465 273.338 158.419 274.915Z" fill="#32A27A" fill-opacity="0.2"/>
<path d="M102.228 258.357C103.053 257.022 104.783 256.56 106.087 257.329C107.403 258.08 107.871 259.797 107.119 261.188C106.372 262.573 104.618 263.074 103.222 262.277C101.84 261.46 101.391 259.707 102.228 258.357Z" fill="#32A27A" fill-opacity="0.2"/>
<path d="M90.6915 250.262C91.677 249.016 91.4935 247.268 90.3433 246.284L86.666 250.659C87.8886 251.705 89.7187 251.492 90.6915 250.262Z" fill="#32A27A" fill-opacity="0.2"/>
<path d="M119.886 267.153C119.304 268.617 120.046 270.276 121.552 270.837L123.507 265.467C122.089 264.938 120.471 265.683 119.886 267.153Z" fill="#32A27A" fill-opacity="0.2"/>
<path d="M72.7667 232.334C74.0128 231.348 75.7609 231.531 76.7451 232.682C77.7146 233.847 77.5786 235.613 76.4017 236.66C75.2215 237.713 73.3974 237.594 72.3679 236.359C71.3239 235.137 71.5368 233.308 72.7667 232.334Z" fill="#32A27A" fill-opacity="0.2"/>
<path d="M64.6716 220.799C66.0039 219.974 66.4677 218.244 65.6979 216.939L60.75 219.802C61.5674 221.187 63.32 221.636 64.6716 220.799Z" fill="#32A27A" fill-opacity="0.2"/>
<path d="M86.3665 246.627C85.3145 247.806 85.433 249.631 86.6675 250.658L90.3449 246.283C89.1814 245.312 87.4157 245.45 86.3665 246.627Z" fill="#32A27A" fill-opacity="0.2"/>
<path d="M53.9422 197.831C55.4312 197.338 57.0599 198.091 57.561 199.52C58.0903 200.937 57.3443 202.556 55.8738 203.139C54.4116 203.724 52.7497 202.981 52.1886 201.475C51.6571 199.958 52.4339 198.328 53.9422 197.831Z" fill="#32A27A" fill-opacity="0.2"/>
<path d="M50.3058 184.216C51.8557 183.896 52.8652 182.434 52.5979 180.945L46.9668 181.93C47.249 183.513 48.7633 184.532 50.3058 184.216Z" fill="#32A27A" fill-opacity="0.2"/>
<path d="M61.8381 215.908C60.4533 216.656 59.9517 218.409 60.7493 219.803L65.6971 216.939C64.9466 215.625 63.2293 215.157 61.8381 215.908Z" fill="#32A27A" fill-opacity="0.2"/>
<path d="M48.1144 158.957C49.6919 159.002 50.9564 160.269 50.9366 161.783C50.9564 163.298 49.6919 164.563 48.1144 164.609C46.5354 164.654 45.2395 163.389 45.2188 161.783C45.2395 160.177 46.5354 158.913 48.1144 158.957Z" fill="#32A27A" fill-opacity="0.2"/>
<path d="M49.3287 144.916C50.8823 145.142 52.3492 144.115 52.5972 142.621L46.9662 141.635C46.7025 143.222 47.7568 144.69 49.3287 144.916Z" fill="#32A27A" fill-opacity="0.2"/>
<path d="M49.3287 178.65C47.7568 178.878 46.7025 180.346 46.9662 181.931L52.5972 180.945C52.3492 179.451 50.8823 178.424 49.3287 178.65Z" fill="#32A27A" fill-opacity="0.2"/>
<path d="M55.8738 120.425C57.3443 121.01 58.0903 122.628 57.561 124.045C57.0599 125.476 55.4312 126.228 53.9422 125.737C52.4339 125.236 51.6571 123.608 52.1886 122.09C52.7497 120.584 54.4116 119.842 55.8738 120.425Z" fill="#32A27A" fill-opacity="0.2"/>
<path d="M61.8382 107.657C63.2295 108.41 64.9467 107.941 65.6973 106.626L60.7494 103.763C59.9518 105.157 60.4534 106.91 61.8382 107.657Z" fill="#32A27A" fill-opacity="0.2"/>
<path d="M50.3058 139.349C48.7633 139.033 47.249 140.053 46.9668 141.636L52.5979 142.621C52.8652 141.131 51.8557 139.67 50.3058 139.349Z" fill="#32A27A" fill-opacity="0.2"/>
<path d="M76.4017 86.9054C77.5786 87.9545 77.7146 89.72 76.7451 90.8837C75.7596 92.0343 74.0128 92.2172 72.7667 91.2318C71.5368 90.2594 71.3239 88.429 72.3679 87.2063C73.3974 85.9731 75.2215 85.8527 76.4017 86.9054Z" fill="#32A27A" fill-opacity="0.2"/>
<path d="M86.3665 76.9395C87.4157 78.1161 89.1814 78.2518 90.3449 77.2829L86.6675 72.9069C85.433 73.9348 85.3145 75.7605 86.3665 76.9395Z" fill="#32A27A" fill-opacity="0.2"/>
<path d="M64.6716 102.766C63.32 101.929 61.5674 102.377 60.75 103.763L65.6979 106.626C66.4677 105.32 66.0039 103.592 64.6716 102.766Z" fill="#32A27A" fill-opacity="0.2"/>
<path d="M107.119 62.3774C107.869 63.7676 107.401 65.4848 106.087 66.2353C104.783 67.006 103.053 66.5433 102.228 65.2098C101.391 63.8573 101.84 62.1048 103.222 61.2882C104.618 60.4904 106.37 60.9908 107.119 62.3774Z" fill="#32A27A" fill-opacity="0.2"/>
<path d="M119.888 56.4135C120.472 57.8816 122.092 58.6286 123.509 58.0999L121.553 52.729C120.048 53.2896 119.305 54.9501 119.888 56.4135Z" fill="#32A27A" fill-opacity="0.2"/>
<path d="M90.6915 73.3038C89.7187 72.074 87.8886 71.8616 86.666 72.9072L90.3433 77.2832C91.4935 76.2978 91.677 74.5488 90.6915 73.3038Z" fill="#32A27A" fill-opacity="0.2"/>
<path d="M144.378 49.867C144.603 51.4212 143.575 52.887 142.081 53.136C140.592 53.4027 139.13 52.3937 138.812 50.843C138.494 49.3017 139.513 47.7864 141.096 47.5043C142.682 47.2412 144.15 48.2962 144.378 49.867Z" fill="#32A27A" fill-opacity="0.2"/>
<path d="M158.419 48.6517C158.465 50.2295 159.729 51.4935 161.246 51.4734V45.758C159.638 45.7768 158.372 47.0738 158.419 48.6517Z" fill="#32A27A" fill-opacity="0.2"/>
<path d="M125.199 54.4801C124.699 52.9719 123.07 52.1953 121.553 52.7288L123.508 58.0996C124.937 57.598 125.69 55.9695 125.199 54.4801Z" fill="#32A27A" fill-opacity="0.2"/>
<path d="M186.647 36.1576C186.297 37.8558 184.653 38.9522 182.963 38.6489C181.268 38.368 180.098 36.7524 180.343 35.053C180.592 33.3311 182.248 32.184 184.043 32.4826C185.833 32.8024 186.994 34.4688 186.647 36.1576Z" fill="#32A27A" fill-opacity="0.2"/>
<path d="M202.064 40.2761C201.525 41.907 202.394 43.7068 204.013 44.2744L206.155 38.3902C204.439 37.7883 202.611 38.625 202.064 40.2761Z" fill="#32A27A" fill-opacity="0.2"/>
<path d="M164.447 33.6746C164.496 31.9492 163.064 30.5259 161.246 30.5047V36.7654C162.963 36.7878 164.396 35.4035 164.447 33.6746Z" fill="#32A27A" fill-opacity="0.2"/>
<path d="M228.075 52.4251C227.17 53.8849 225.234 54.3711 223.757 53.4955C222.268 52.6458 221.713 50.7434 222.535 49.2174C223.356 47.701 225.315 47.1758 226.894 48.0774C228.459 49.0015 228.989 50.944 228.075 52.4251Z" fill="#32A27A" fill-opacity="0.2"/>
<path d="M241.136 61.592C240.054 62.9563 240.295 64.9 241.599 66.0176L245.625 61.2238C244.242 60.0401 242.2 60.2455 241.136 61.592Z" fill="#32A27A" fill-opacity="0.2"/>
<path d="M208.076 42.4658C208.715 40.8619 207.859 39.028 206.154 38.3907L204.012 44.2749C205.62 44.8745 207.435 44.0731 208.076 42.4658Z" fill="#32A27A" fill-opacity="0.2"/>
<path d="M261.436 81.8914C260.07 82.9712 258.127 82.7328 257.011 81.4288C255.911 80.1093 256.03 78.1397 257.319 76.9914C258.611 75.8419 260.64 76.006 261.804 77.4021C262.987 78.784 262.782 80.8269 261.436 81.8914Z" fill="#32A27A" fill-opacity="0.2"/>
<path d="M270.601 94.9535C269.14 95.8587 268.655 97.7918 269.528 99.2705L274.948 96.1349C274.025 94.5688 272.08 94.0389 270.601 94.9535Z" fill="#32A27A" fill-opacity="0.2"/>
<path d="M246.034 65.7102C247.184 64.4179 247.02 62.388 245.624 61.2244L241.598 66.0182C242.917 67.1145 244.887 66.9989 246.034 65.7102Z" fill="#32A27A" fill-opacity="0.2"/>
<path d="M273.81 100.494C275.326 99.6734 275.851 97.7144 274.949 96.1354L269.529 99.271C270.381 100.76 272.284 101.315 273.81 100.494Z" fill="#32A27A" fill-opacity="0.2"/>
<path d="M273.81 223.074C272.284 222.25 270.38 222.804 269.529 224.295L274.949 227.431C275.851 225.85 275.326 223.893 273.81 223.074Z" fill="#32A27A" fill-opacity="0.2"/>
<path d="M257.318 246.573C256.029 245.422 255.911 243.454 257.01 242.135C258.127 240.832 260.071 240.594 261.436 241.673C262.781 242.739 262.988 244.781 261.804 246.162C260.641 247.56 258.61 247.723 257.318 246.573Z" fill="#32A27A" fill-opacity="0.2"/>
<path d="M246.034 257.856C244.887 256.569 242.917 256.451 241.598 257.549L245.624 262.342C247.02 261.181 247.184 259.148 246.034 257.856Z" fill="#32A27A" fill-opacity="0.2"/>
<path d="M270.601 228.612C272.08 229.528 274.025 228.995 274.948 227.431L269.528 224.295C268.655 225.774 269.14 227.707 270.601 228.612Z" fill="#32A27A" fill-opacity="0.2"/>
<path d="M222.536 274.348C221.713 272.822 222.267 270.921 223.757 270.069C225.235 269.195 227.17 269.68 228.075 271.14C228.988 272.62 228.458 274.565 226.893 275.489C225.314 276.39 223.355 275.865 222.536 274.348Z" fill="#32A27A" fill-opacity="0.2"/>
<path d="M208.076 281.102C207.435 279.492 205.62 278.692 204.012 279.292L206.154 285.176C207.859 284.54 208.715 282.705 208.076 281.102Z" fill="#32A27A" fill-opacity="0.2"/>
<path d="M241.136 261.975C242.2 263.319 244.242 263.525 245.625 262.342L241.599 257.549C240.295 258.666 240.054 260.608 241.136 261.975Z" fill="#32A27A" fill-opacity="0.2"/>
<path d="M180.343 288.513C180.097 286.811 181.267 285.197 182.962 284.916C184.652 284.614 186.296 285.71 186.647 287.407C186.993 289.096 185.833 290.762 184.042 291.085C182.249 291.383 180.591 290.235 180.343 288.513Z" fill="#32A27A" fill-opacity="0.2"/>
<path d="M164.447 289.892C164.396 288.162 162.963 286.779 161.246 286.802V293.061C163.064 293.039 164.496 291.618 164.447 289.892Z" fill="#32A27A" fill-opacity="0.2"/>
<path d="M202.064 283.29C202.611 284.942 204.439 285.778 206.155 285.176L204.013 279.292C202.394 279.859 201.525 281.659 202.064 283.29Z" fill="#32A27A" fill-opacity="0.2"/>
<path d="M135.843 287.407C136.193 285.71 137.839 284.614 139.527 284.916C141.222 285.197 142.392 286.811 142.146 288.513C141.898 290.235 140.241 291.383 138.447 291.085C136.658 290.762 135.496 289.096 135.843 287.407Z" fill="#32A27A" fill-opacity="0.2"/>
<path d="M120.428 283.29C120.966 281.659 120.097 279.859 118.477 279.292L116.334 285.176C118.051 285.778 119.879 284.942 120.428 283.29Z" fill="#32A27A" fill-opacity="0.2"/>
<path d="M158.044 289.892C157.995 291.618 159.427 293.039 161.245 293.061V286.802C159.528 286.779 158.095 288.162 158.044 289.892Z" fill="#32A27A" fill-opacity="0.2"/>
<path d="M94.4143 271.14C95.3193 269.68 97.2532 269.198 98.7317 270.069C100.222 270.921 100.777 272.822 99.9523 274.348C99.1341 275.865 97.1748 276.39 95.5959 275.489C94.0308 274.565 93.5007 272.62 94.4143 271.14Z" fill="#32A27A" fill-opacity="0.2"/>
<path d="M81.3544 261.975C82.434 260.608 82.1957 258.666 80.892 257.549L76.8652 262.342C78.2473 263.525 80.289 263.319 81.3544 261.975Z" fill="#32A27A" fill-opacity="0.2"/>
<path d="M114.411 281.102C113.772 282.705 114.628 284.54 116.331 285.176L118.475 279.292C116.866 278.692 115.051 279.492 114.411 281.102Z" fill="#32A27A" fill-opacity="0.2"/>
<path d="M61.052 241.673C62.4171 240.594 64.361 240.832 65.4776 242.135C66.5762 243.454 66.4586 245.425 65.1702 246.573C63.8779 247.723 61.8464 247.56 60.6847 246.162C59.5013 244.781 59.7074 242.739 61.052 241.673Z" fill="#32A27A" fill-opacity="0.2"/>
<path d="M51.8877 228.612C53.3476 227.707 53.833 225.774 52.9595 224.295L47.5391 227.431C48.4634 228.996 50.4065 229.525 51.8877 228.612Z" fill="#32A27A" fill-opacity="0.2"/>
<path d="M76.4544 257.856C75.302 259.148 75.4679 261.178 76.8647 262.342L80.8915 257.549C79.5716 256.451 77.6023 256.569 76.4544 257.856Z" fill="#32A27A" fill-opacity="0.2"/>
<path d="M39.7389 202.602C41.3672 202.063 43.1674 202.932 43.7358 204.55C44.3342 206.16 43.5344 207.975 41.9255 208.616C40.3221 209.254 38.4874 208.398 37.8512 206.695C37.2496 204.977 38.0854 203.148 39.7389 202.602Z" fill="#32A27A" fill-opacity="0.2"/>
<path d="M35.6185 187.185C37.3172 186.834 38.4129 185.188 38.1115 183.499L31.9434 184.579C32.2638 186.368 33.9303 187.532 35.6185 187.185Z" fill="#32A27A" fill-opacity="0.2"/>
<path d="M48.6805 223.074C47.1616 223.893 46.6389 225.851 47.5396 227.431L52.96 224.295C52.108 222.804 50.2065 222.25 48.6805 223.074Z" fill="#32A27A" fill-opacity="0.2"/>
<path d="M33.1355 158.582C34.8643 158.633 36.2482 160.065 36.2256 161.783C36.2482 163.501 34.8658 164.932 33.1355 164.983C31.4091 165.033 29.987 163.6 29.9648 161.783C29.987 159.965 31.4091 158.534 33.1355 158.582Z" fill="#32A27A" fill-opacity="0.2"/>
<path d="M34.5147 142.684C36.2143 142.931 37.8293 141.758 38.1119 140.065L31.9438 138.985C31.6451 140.778 32.7929 142.436 34.5147 142.684Z" fill="#32A27A" fill-opacity="0.2"/>
<path d="M34.5147 180.883C32.7929 181.131 31.6451 182.787 31.9438 184.58L38.1119 183.5C37.8293 181.808 36.2143 180.636 34.5147 180.883Z" fill="#32A27A" fill-opacity="0.2"/>
<path d="M41.9267 114.951C43.5356 115.591 44.3354 117.407 43.7371 119.015C43.1686 120.634 41.3684 121.503 39.7379 120.965C38.0867 120.416 37.2499 118.589 37.8548 116.871C38.4886 115.169 40.3234 114.312 41.9267 114.951Z" fill="#32A27A" fill-opacity="0.2"/>
<path d="M48.6799 100.492C50.2058 101.314 52.1074 100.76 52.9594 99.2704L47.539 96.1348C46.6383 97.7138 47.1638 99.6728 48.6799 100.492Z" fill="#32A27A" fill-opacity="0.2"/>
<path d="M35.6185 136.382C33.9303 136.033 32.2638 137.196 31.9434 138.987L38.1115 140.066C38.4129 138.376 37.3172 136.732 35.6185 136.382Z" fill="#32A27A" fill-opacity="0.2"/>
<path d="M65.1702 76.9914C66.4586 78.1397 66.5762 80.1093 65.4776 81.4288C64.361 82.7328 62.4171 82.9712 61.052 81.8914C59.7074 80.8269 59.5013 78.7852 60.6847 77.4021C61.8464 76.006 63.8779 75.8419 65.1702 76.9914Z" fill="#32A27A" fill-opacity="0.2"/>
<path d="M76.4544 65.7102C77.6023 66.9989 79.5716 67.1145 80.8915 66.0182L76.8647 61.2244C75.4679 62.388 75.302 64.4179 76.4544 65.7102Z" fill="#32A27A" fill-opacity="0.2"/>
<path d="M51.8877 94.9535C50.4065 94.0389 48.4634 94.5688 47.5391 96.1349L52.9595 99.2705C53.833 97.7918 53.3476 95.8587 51.8877 94.9535Z" fill="#32A27A" fill-opacity="0.2"/>
<path d="M99.9523 49.2174C100.777 50.7434 100.222 52.6458 98.7317 53.4955C97.2532 54.3711 95.3193 53.8849 94.4143 52.4251C93.5007 50.944 94.0308 49.0015 95.5959 48.0774C97.1748 47.1758 99.1341 47.701 99.9523 49.2174Z" fill="#32A27A" fill-opacity="0.2"/>
<path d="M114.411 42.4658C115.051 44.0731 116.866 44.8745 118.475 44.2749L116.331 38.3907C114.628 39.028 113.772 40.8619 114.411 42.4658Z" fill="#32A27A" fill-opacity="0.2"/>
<path d="M81.3544 61.592C80.289 60.2455 78.2473 60.0401 76.8652 61.2238L80.892 66.0176C82.1957 64.9 82.434 62.9563 81.3544 61.592Z" fill="#32A27A" fill-opacity="0.2"/>
<path d="M142.144 35.053C142.391 36.7524 141.219 38.368 139.526 38.6489C137.838 38.9522 136.192 37.8558 135.841 36.1576C135.492 34.4688 136.656 32.8024 138.446 32.4826C140.24 32.184 141.894 33.3311 142.144 35.053Z" fill="#32A27A" fill-opacity="0.2"/>
<path d="M158.044 33.6746C158.095 35.4035 159.528 36.7878 161.245 36.7654V30.5047C159.427 30.5259 157.995 31.9492 158.044 33.6746Z" fill="#32A27A" fill-opacity="0.2"/>
<path d="M120.428 40.2761C119.879 38.625 118.051 37.7883 116.334 38.3902L118.477 44.2744C120.097 43.7068 120.966 41.907 120.428 40.2761Z" fill="#32A27A" fill-opacity="0.2"/>
<path d="M188.14 21.1893C187.779 23.0398 186.044 24.2353 184.25 23.9556C182.459 23.6405 181.203 21.9505 181.459 20.0847C181.713 18.226 183.468 16.9089 185.362 17.2405C187.261 17.5391 188.497 19.3495 188.14 21.1893Z" fill="#32A27A" fill-opacity="0.2"/>
<path d="M204.512 25.3187C203.948 27.1207 204.904 29.009 206.624 29.5967L208.831 23.1614C207.013 22.5371 205.068 23.5331 204.512 25.3187Z" fill="#32A27A" fill-opacity="0.2"/>
<path d="M164.633 18.6973C164.683 16.8197 163.167 15.2772 161.246 15.2524V22.0583C163.065 22.0819 164.581 20.5761 164.633 18.6973Z" fill="#32A27A" fill-opacity="0.2"/>
<path d="M232.33 37.5322C231.388 39.1596 229.34 39.7556 227.752 38.874C226.143 38.0267 225.529 35.978 226.378 34.3022C227.228 32.6252 229.296 31.9938 230.995 32.8895C232.677 33.8242 233.271 35.9071 232.33 37.5322Z" fill="#32A27A" fill-opacity="0.2"/>
<path d="M246.459 46.7828C245.352 48.2875 245.621 50.4094 247.061 51.5176L251.246 46.1491C249.721 44.9772 247.579 45.2616 246.459 46.7828Z" fill="#32A27A" fill-opacity="0.2"/>
<path d="M210.918 27.5172C211.582 25.747 210.648 23.7974 208.832 23.1625L206.625 29.5978C208.337 30.202 210.262 29.2638 210.918 27.5172Z" fill="#32A27A" fill-opacity="0.2"/>
<path d="M268.806 67.3687C267.38 68.609 265.278 68.4863 264.038 67.1563C262.807 65.8204 262.879 63.6926 264.219 62.3873C265.571 61.0703 267.743 61.1305 269.043 62.5455C270.354 63.9522 270.215 66.1414 268.806 67.3687Z" fill="#32A27A" fill-opacity="0.2"/>
<path d="M251.8 50.9471C252.992 49.5026 252.759 47.3335 251.245 46.1498L247.061 51.5183C248.494 52.6383 250.6 52.4011 251.8 50.9471Z" fill="#32A27A" fill-opacity="0.2"/>
<path d="M268.805 256.197C267.379 254.956 265.277 255.08 264.037 256.41L269.042 261.02C270.353 259.613 270.216 257.423 268.805 256.197Z" fill="#32A27A" fill-opacity="0.2"/>
<path d="M246.46 276.781C245.352 275.278 245.621 273.156 247.061 272.049C248.495 270.929 250.6 271.165 251.8 272.619C252.992 274.063 252.76 276.233 251.246 277.416C249.721 278.588 247.58 278.305 246.46 276.781Z" fill="#32A27A" fill-opacity="0.2"/>
<path d="M232.333 286.033C231.391 284.406 229.342 283.81 227.754 284.691L230.997 290.675C232.679 289.741 233.273 287.658 232.333 286.033Z" fill="#32A27A" fill-opacity="0.2"/>
<path d="M264.219 261.179C265.571 262.497 267.743 262.435 269.043 261.02L264.038 256.41C262.807 257.747 262.879 259.874 264.219 261.179Z" fill="#32A27A" fill-opacity="0.2"/>
<path d="M204.513 298.247C203.951 296.446 204.905 294.557 206.623 293.968C208.338 293.365 210.263 294.302 210.919 296.051C211.582 297.821 210.648 299.769 208.832 300.405C207.014 301.029 205.069 300.034 204.513 298.247Z" fill="#32A27A" fill-opacity="0.2"/>
<path d="M188.142 302.377C187.781 300.528 186.046 299.331 184.252 299.611L185.364 306.326C187.265 306.028 188.499 304.217 188.142 302.377Z" fill="#32A27A" fill-opacity="0.2"/>
<path d="M226.378 289.264C227.228 290.941 229.296 291.572 230.995 290.675L227.752 284.692C226.143 285.539 225.529 287.589 226.378 289.264Z" fill="#32A27A" fill-opacity="0.2"/>
<path d="M157.858 304.869C157.91 302.99 159.428 301.484 161.245 301.509C163.064 301.484 164.58 302.99 164.632 304.869C164.682 306.746 163.167 308.29 161.245 308.314C159.324 308.29 157.809 306.746 157.858 304.869Z" fill="#32A27A" fill-opacity="0.2"/>
<path d="M141.031 303.482C141.287 301.616 140.03 299.926 138.24 299.611L137.127 306.326C139.022 306.656 140.776 305.34 141.031 303.482Z" fill="#32A27A" fill-opacity="0.2"/>
<path d="M181.459 303.482C181.713 305.34 183.468 306.656 185.362 306.326L184.25 299.611C182.459 299.926 181.203 301.616 181.459 303.482Z" fill="#32A27A" fill-opacity="0.2"/>
<path d="M111.572 296.052C112.226 294.302 114.151 293.365 115.865 293.968C117.585 294.557 118.537 296.446 117.977 298.247C117.42 300.034 115.475 301.029 113.656 300.405C111.841 299.769 110.907 297.821 111.572 296.052Z" fill="#32A27A" fill-opacity="0.2"/>
<path d="M96.109 289.264C96.9567 287.589 96.3437 285.539 94.7348 284.692L91.4922 290.675C93.1918 291.572 95.2571 290.941 96.109 289.264Z" fill="#32A27A" fill-opacity="0.2"/>
<path d="M134.349 302.377C133.99 304.217 135.226 306.028 137.126 306.326L138.239 299.611C136.441 299.331 134.709 300.528 134.349 302.377Z" fill="#32A27A" fill-opacity="0.2"/>
<path d="M70.6883 272.619C71.8878 271.165 73.9935 270.929 75.4273 272.049C76.8679 273.156 77.1361 275.278 76.0288 276.781C74.9086 278.306 72.7673 278.588 71.2428 277.416C69.7294 276.232 69.4966 274.063 70.6883 272.619Z" fill="#32A27A" fill-opacity="0.2"/>
<path d="M58.2696 261.179C59.6103 259.874 59.6817 257.747 58.4503 256.41L53.4453 261.02C54.7468 262.435 56.9175 262.497 58.2696 261.179Z" fill="#32A27A" fill-opacity="0.2"/>
<path d="M90.1568 286.033C89.2165 287.658 89.8111 289.741 91.4928 290.675L94.7354 284.691C93.1473 283.81 91.0987 284.406 90.1568 286.033Z" fill="#32A27A" fill-opacity="0.2"/>
<path d="M39.5939 237.212C41.2059 236.219 43.2487 236.696 44.2615 238.203C45.2494 239.73 44.8431 241.807 43.3035 242.879C41.7582 243.951 39.6137 243.544 38.5682 241.93C37.4964 240.335 38.0057 238.19 39.5939 237.212Z" fill="#32A27A" fill-opacity="0.2"/>
<path d="M31.5444 222.369C33.2532 221.559 33.9748 219.59 33.2616 217.916L27.0312 220.654C27.7873 222.422 29.8547 223.168 31.5444 222.369Z" fill="#32A27A" fill-opacity="0.2"/>
<path d="M53.6824 256.197C52.2732 257.423 52.1349 259.613 53.4449 261.02L58.4499 256.41C57.21 255.08 55.1055 254.956 53.6824 256.197Z" fill="#32A27A" fill-opacity="0.2"/>
<path d="M21.6806 193.634C23.503 193.229 25.3386 194.329 25.7711 196.093C26.2159 197.856 25.1557 199.687 23.3417 200.2C21.5391 200.709 19.6436 199.624 19.1728 197.759C18.7147 195.891 19.8349 194.045 21.6806 193.634Z" fill="#32A27A" fill-opacity="0.2"/>
<path d="M18.9204 176.976C20.7758 176.772 22.1556 175.139 21.9989 173.327L15.2148 173.879C15.3808 175.796 17.0409 177.18 18.9204 176.976Z" fill="#32A27A" fill-opacity="0.2"/>
<path d="M28.823 216.17C27.0835 216.875 26.2478 218.897 27.0329 220.654L33.2633 217.916C32.5211 216.257 30.565 215.462 28.823 216.17Z" fill="#32A27A" fill-opacity="0.2"/>
<path d="M18.9193 146.59C20.7747 146.794 22.1546 148.429 21.9978 150.239C21.8419 152.051 20.2562 153.442 18.3706 153.339C16.5037 153.239 15.0501 151.6 15.2138 149.683C15.3797 147.769 17.0398 146.384 18.9193 146.59Z" fill="#32A27A" fill-opacity="0.2"/>
<path d="M21.6784 129.931C23.5016 130.337 25.3372 129.237 25.7697 127.472L19.1705 125.806C18.7132 127.674 19.8334 129.519 21.6784 129.931Z" fill="#32A27A" fill-opacity="0.2"/>
<path d="M18.3706 170.225C16.5037 170.325 15.0501 171.965 15.2138 173.879L21.9978 173.327C21.8419 171.514 20.2562 170.124 18.3706 170.225Z" fill="#32A27A" fill-opacity="0.2"/>
<path d="M31.5458 101.197C33.2546 102.005 33.9743 103.976 33.263 105.65C32.5208 107.308 30.5647 108.104 28.8227 107.396C27.0833 106.691 26.2475 104.668 27.0327 102.911C27.7887 101.142 29.8562 100.397 31.5458 101.197Z" fill="#32A27A" fill-opacity="0.2"/>
<path d="M39.5939 86.3529C41.2059 87.3454 43.2472 86.8722 44.2615 85.3628L38.5682 81.6359C37.4964 83.2338 38.0057 85.3757 39.5939 86.3529Z" fill="#32A27A" fill-opacity="0.2"/>
<path d="M23.3396 123.366C21.5371 122.857 19.6415 123.942 19.1699 125.806L25.7691 127.473C26.2139 125.711 25.1536 123.88 23.3396 123.366Z" fill="#32A27A" fill-opacity="0.2"/>
<path d="M58.2693 62.3873C59.6099 63.6926 59.6813 65.8204 58.4499 67.1563C57.21 68.4863 55.1055 68.609 53.6824 67.3687C52.2732 66.1414 52.1349 63.9534 53.4449 62.5455C54.7464 61.1328 56.9149 61.0703 58.2693 62.3873Z" fill="#32A27A" fill-opacity="0.2"/>
<path d="M70.6883 50.9471C71.8878 52.4011 73.9935 52.6383 75.4273 51.5183L71.2428 46.1498C69.7294 47.3335 69.4966 49.5026 70.6883 50.9471Z" fill="#32A27A" fill-opacity="0.2"/>
<path d="M43.3056 80.6876C41.7604 79.6148 39.6158 80.022 38.5703 81.6364L44.2636 85.3633C45.2515 83.8374 44.8453 81.7603 43.3056 80.6876Z" fill="#32A27A" fill-opacity="0.2"/>
<path d="M96.1097 34.3022C96.9574 35.9791 96.3425 38.0267 94.7354 38.874C93.1473 39.7556 91.0987 39.1596 90.1568 37.5322C89.2165 35.9071 89.8111 33.8242 91.4928 32.8895C93.1911 31.9938 95.2577 32.6252 96.1097 34.3022Z" fill="#32A27A" fill-opacity="0.2"/>
<path d="M111.569 27.5172C112.225 29.2638 114.15 30.202 115.864 29.5978L113.655 23.1625C111.84 23.7974 110.906 25.747 111.569 27.5172Z" fill="#32A27A" fill-opacity="0.2"/>
<path d="M76.0301 46.7828C74.9099 45.2616 72.7687 44.9772 71.2441 46.1491L75.4286 51.5176C76.8692 50.4094 77.1374 48.2875 76.0301 46.7828Z" fill="#32A27A" fill-opacity="0.2"/>
<path d="M141.029 20.0847C141.285 21.9505 140.028 23.6405 138.239 23.9556C136.441 24.2353 134.709 23.0398 134.349 21.1893C133.99 19.3518 135.226 17.5391 137.126 17.2405C139.02 16.9089 140.774 18.226 141.029 20.0847Z" fill="#32A27A" fill-opacity="0.2"/>
<path d="M157.858 18.6973C157.91 20.5761 159.427 22.0819 161.245 22.0583V15.2524C159.324 15.2772 157.807 16.8197 157.858 18.6973Z" fill="#32A27A" fill-opacity="0.2"/>
<path d="M117.977 25.3187C117.42 23.5331 115.475 22.5371 113.656 23.1614L115.864 29.5967C117.585 29.009 118.537 27.1207 117.977 25.3187Z" fill="#32A27A" fill-opacity="0.2"/>
<path d="M190.953 6.47549C190.564 8.4723 188.654 9.75628 186.671 9.44473C184.692 9.09776 183.298 7.26738 183.574 5.25169C183.85 3.24544 185.781 1.82807 187.872 2.1951C189.969 2.52436 191.342 4.48694 190.953 6.47549Z" fill="#32A27A" fill-opacity="0.2"/>
<path d="M209.039 11.0364C208.433 12.9801 209.5 15.0335 211.401 15.6826L213.786 8.73157C211.777 8.04472 209.642 9.10568 209.039 11.0364Z" fill="#32A27A" fill-opacity="0.2"/>
<path d="M164.986 3.72233C165.04 1.69484 163.367 0.0261402 161.246 0.000176907V7.35128C163.256 7.37607 164.931 5.75218 164.986 3.72233Z" fill="#32A27A" fill-opacity="0.2"/>
<path d="M239.773 24.5257C238.754 26.2853 236.51 26.9108 234.755 25.936C232.977 24.999 232.28 22.7685 233.196 20.9605C234.114 19.1478 236.381 18.4822 238.258 19.4747C240.113 20.5038 240.789 22.772 239.773 24.5257Z" fill="#32A27A" fill-opacity="0.2"/>
<path d="M255.377 34.747C254.181 36.3733 254.502 38.6852 256.094 39.9102L260.614 34.1133C258.932 32.821 256.588 33.1031 255.377 34.747Z" fill="#32A27A" fill-opacity="0.2"/>
<path d="M216.116 13.4618C216.834 11.55 215.789 9.43515 213.785 8.73178L211.4 15.6828C213.295 16.3496 215.408 15.35 216.116 13.4618Z" fill="#32A27A" fill-opacity="0.2"/>
<path d="M280.063 57.4865C278.525 58.8283 276.226 58.6655 274.858 57.1962C273.498 55.7163 273.55 53.3926 274.994 51.9847C276.457 50.5626 278.827 50.6558 280.263 52.2183C281.71 53.7702 281.584 56.1624 280.063 57.4865Z" fill="#32A27A" fill-opacity="0.2"/>
<path d="M261.276 39.3463C262.563 37.7862 262.285 35.4212 260.614 34.1136L256.094 39.9105C257.678 41.1484 259.981 40.9183 261.276 39.3463Z" fill="#32A27A" fill-opacity="0.2"/>
<path d="M280.064 266.077C278.526 264.736 276.23 264.898 274.859 266.368L280.264 271.347C281.712 269.797 281.585 267.403 280.064 266.077Z" fill="#32A27A" fill-opacity="0.2"/>
<path d="M255.378 288.818C254.185 287.194 254.503 284.881 256.095 283.657C257.679 282.418 259.983 282.648 261.277 284.22C262.565 285.779 262.286 288.145 260.615 289.452C258.932 290.746 256.589 290.463 255.378 288.818Z" fill="#32A27A" fill-opacity="0.2"/>
<path d="M239.772 299.037C238.755 297.28 236.509 296.654 234.754 297.63L238.257 304.091C240.113 303.061 240.788 300.793 239.772 299.037Z" fill="#32A27A" fill-opacity="0.2"/>
<path d="M274.994 271.582C276.457 273.003 278.827 272.91 280.263 271.348L274.858 266.369C273.498 267.85 273.55 270.172 274.994 271.582Z" fill="#32A27A" fill-opacity="0.2"/>
<path d="M209.042 312.529C208.434 310.584 209.5 308.534 211.402 307.883C213.296 307.218 215.409 308.215 216.117 310.103C216.835 312.015 215.791 314.131 213.787 314.835C211.778 315.522 209.643 314.46 209.042 312.529Z" fill="#32A27A" fill-opacity="0.2"/>
<path d="M190.954 317.091C190.566 315.094 188.657 313.809 186.672 314.12L187.873 321.37C189.97 321.041 191.343 319.077 190.954 317.091Z" fill="#32A27A" fill-opacity="0.2"/>
<path d="M233.196 302.605C234.114 304.417 236.381 305.083 238.258 304.09L234.755 297.629C232.977 298.566 232.28 300.795 233.196 302.605Z" fill="#32A27A" fill-opacity="0.2"/>
<path d="M157.503 319.843C157.559 317.816 159.233 316.19 161.243 316.215C163.253 316.19 164.928 317.816 164.983 319.843C165.037 321.872 163.364 323.54 161.243 323.565C159.122 323.54 157.448 321.872 157.503 319.843Z" fill="#32A27A" fill-opacity="0.2"/>
<path d="M138.915 318.312C139.189 316.298 137.796 314.465 135.818 314.121L134.615 321.37C136.708 321.736 138.637 320.318 138.915 318.312Z" fill="#32A27A" fill-opacity="0.2"/>
<path d="M183.574 318.312C183.85 320.318 185.781 321.736 187.872 321.37L186.671 314.121C184.692 314.465 183.298 316.298 183.574 318.312Z" fill="#32A27A" fill-opacity="0.2"/>
<path d="M106.372 310.104C107.081 308.215 109.193 307.218 111.088 307.883C112.988 308.534 114.055 310.586 113.447 312.529C112.845 314.46 110.711 315.522 108.702 314.835C106.701 314.131 105.656 312.015 106.372 310.104Z" fill="#32A27A" fill-opacity="0.2"/>
<path d="M89.2899 302.605C90.2086 300.795 89.5121 298.566 87.734 297.629L84.2305 304.09C86.1081 305.083 88.3748 304.417 89.2899 302.605Z" fill="#32A27A" fill-opacity="0.2"/>
<path d="M131.534 317.091C131.148 319.077 132.519 321.041 134.616 321.37L135.819 314.121C133.833 313.809 131.923 315.094 131.534 317.091Z" fill="#32A27A" fill-opacity="0.2"/>
<path d="M61.2106 284.219C62.5054 282.648 64.8095 282.417 66.3921 283.656C67.9844 284.88 68.3038 287.193 67.1099 288.819C65.8998 290.464 63.5556 290.745 61.873 289.451C60.2019 288.144 59.923 285.778 61.2106 284.219Z" fill="#32A27A" fill-opacity="0.2"/>
<path d="M47.4929 271.582C48.9405 270.172 48.992 267.85 47.6312 266.369L42.2246 271.348C43.662 272.91 46.0329 273.003 47.4929 271.582Z" fill="#32A27A" fill-opacity="0.2"/>
<path d="M82.7152 299.037C81.6986 300.793 82.374 303.061 84.2296 304.091L87.7331 297.63C85.9776 296.654 83.7317 297.28 82.7152 299.037Z" fill="#32A27A" fill-opacity="0.2"/>
<path d="M26.8624 245.108C28.6064 244.034 30.8284 244.58 31.9509 246.246C33.0411 247.934 32.6248 250.207 30.9592 251.365C29.2918 252.526 26.9555 252.053 25.8007 250.273C24.6174 248.511 25.1475 246.162 26.8624 245.108Z" fill="#32A27A" fill-opacity="0.2"/>
<path d="M17.973 228.708C19.818 227.838 20.58 225.673 19.794 223.824L13.0645 226.781C13.8979 228.733 16.1498 229.573 17.973 228.708Z" fill="#32A27A" fill-opacity="0.2"/>
<path d="M42.4242 266.077C40.903 267.403 40.7761 269.797 42.2222 271.348L47.6288 266.369C46.2588 264.898 43.9625 264.737 42.4242 266.077Z" fill="#32A27A" fill-opacity="0.2"/>
<path d="M7.07118 196.969C9.03825 196.53 11.0302 197.755 11.5083 199.706C11.9992 201.654 10.8661 203.665 8.90456 204.22C6.96054 204.77 4.9022 203.562 4.38127 201.504C3.87511 199.443 5.07738 197.414 7.07118 196.969Z" fill="#32A27A" fill-opacity="0.2"/>
<path d="M4.02398 178.565C6.02837 178.344 7.51509 176.544 7.34129 174.541L0.015625 175.139C0.199102 177.254 1.99375 178.788 4.02398 178.565Z" fill="#32A27A" fill-opacity="0.2"/>
<path d="M14.9619 221.862C13.0833 222.624 12.195 224.842 13.0626 226.781L19.7922 223.824C18.9702 221.991 16.845 221.097 14.9619 221.862Z" fill="#32A27A" fill-opacity="0.2"/>
<path d="M4.02256 145C6.02696 145.221 7.51367 147.022 7.33987 149.024C7.16792 151.027 5.45395 152.567 3.41635 152.456C1.3995 152.348 -0.166498 150.541 0.0142057 148.426C0.197683 146.312 1.99233 144.778 4.02256 145Z" fill="#32A27A" fill-opacity="0.2"/>
<path d="M7.07118 126.6C9.03825 127.038 11.0302 125.814 11.5083 123.861L4.38127 122.062C3.87511 124.124 5.07738 126.156 7.07118 126.6Z" fill="#32A27A" fill-opacity="0.2"/>
<path d="M3.41635 171.109C1.3995 171.219 -0.166498 173.027 0.0142057 175.141L7.33987 174.542C7.16792 172.54 5.45395 171.001 3.41635 171.109Z" fill="#32A27A" fill-opacity="0.2"/>
<path d="M17.9714 94.8553C19.8163 95.7274 20.5783 97.8918 19.7923 99.7411C18.9703 101.575 16.8451 102.468 14.962 101.704C13.0834 100.941 12.1951 98.7226 13.0628 96.7836C13.8962 94.8317 16.1481 93.9926 17.9714 94.8553Z" fill="#32A27A" fill-opacity="0.2"/>
<path d="M26.8624 78.4587C28.6035 79.5314 30.8284 78.9862 31.9509 77.3187L25.8007 73.2932C24.6174 75.0551 25.1475 77.4048 26.8624 78.4587Z" fill="#32A27A" fill-opacity="0.2"/>
<path d="M8.9061 119.346C6.96208 118.796 4.90374 120.005 4.38281 122.062L11.5098 123.86C12.0008 121.912 10.8676 119.901 8.9061 119.346Z" fill="#32A27A" fill-opacity="0.2"/>
<path d="M47.4905 51.9848C48.9381 53.395 48.9897 55.7187 47.6288 57.1963C46.2588 58.6667 43.9625 58.8296 42.4242 57.4866C40.903 56.1625 40.7761 53.7703 42.2222 52.2184C43.6597 50.6559 46.0306 50.5627 47.4905 51.9848Z" fill="#32A27A" fill-opacity="0.2"/>
<path d="M61.2106 39.3463C62.5054 40.9183 64.8095 41.1484 66.3921 39.9105L61.873 34.1136C60.2019 35.4212 59.923 37.7862 61.2106 39.3463Z" fill="#32A27A" fill-opacity="0.2"/>
<path d="M30.9593 72.2001C29.2919 71.04 26.9556 71.5108 25.8008 73.2929L31.951 77.3184C33.0412 75.6308 32.6249 73.3566 30.9593 72.2001Z" fill="#32A27A" fill-opacity="0.2"/>
<path d="M89.289 20.9604C90.2077 22.7684 89.5102 24.9989 87.7331 25.936C85.9776 26.9108 83.7317 26.2853 82.7152 24.528C81.6986 22.772 82.374 20.5037 84.2296 19.4747C86.1072 18.4845 88.3715 19.1489 89.289 20.9604Z" fill="#32A27A" fill-opacity="0.2"/>
<path d="M106.373 13.4618C107.081 15.35 109.195 16.3496 111.09 15.6828L108.704 8.73178C106.7 9.43515 105.656 11.55 106.373 13.4618Z" fill="#32A27A" fill-opacity="0.2"/>
<path d="M67.1119 34.747C65.9018 33.1031 63.5577 32.821 61.875 34.1133L66.3941 39.9102C67.9864 38.6852 68.3059 36.3733 67.1119 34.747Z" fill="#32A27A" fill-opacity="0.2"/>
<path d="M138.913 5.25169C139.191 7.26738 137.797 9.09776 135.819 9.44473C133.833 9.75628 131.923 8.4723 131.534 6.47549C131.148 4.48694 132.519 2.52436 134.616 2.1951C136.708 1.82807 138.638 3.24544 138.913 5.25169Z" fill="#32A27A" fill-opacity="0.2"/>
<path d="M157.503 3.72233C157.559 5.75218 159.233 7.37607 161.243 7.35128V0.000176907C159.121 0.0261402 157.447 1.69484 157.503 3.72233Z" fill="#32A27A" fill-opacity="0.2"/>
<path d="M113.448 11.0364C112.846 9.10568 110.712 8.04472 108.703 8.73157L111.089 15.6826C112.989 15.0335 114.056 12.9801 113.448 11.0364Z" fill="#32A27A" fill-opacity="0.2"/>
</svg>
