<svg width="369" height="369" viewBox="0 0 369 369" fill="none" xmlns="http://www.w3.org/2000/svg">
<path d="M189.327 2.06992C189.299 3.13792 190.131 4.02594 191.184 4.05261C192.24 4.07794 193.14 3.23525 193.195 2.16725C193.25 1.09925 192.418 0.211303 191.336 0.184637C190.255 0.155303 189.355 1.00059 189.327 2.06992Z" fill="#B8D7C9"/>
<path d="M196.561 2.41398C196.49 3.47931 197.286 4.41136 198.337 4.49002C199.389 4.57002 200.322 3.77131 200.418 2.70597C200.516 1.64197 199.72 0.71133 198.641 0.629997C197.564 0.54733 196.632 1.34731 196.561 2.41398Z" fill="#B8D7C9"/>
<path d="M203.779 3.02088C203.667 4.08221 204.424 5.05288 205.471 5.18754C206.516 5.31954 207.477 4.56753 207.617 3.50753C207.756 2.44886 207 1.47817 205.925 1.34217C204.853 1.20617 203.892 1.95821 203.779 3.02088Z" fill="#B8D7C9"/>
<path d="M210.966 3.93456C210.81 4.99189 211.536 5.94257 212.572 6.14524C213.61 6.3319 214.6 5.6279 214.78 4.57323C214.962 3.52123 214.246 2.51325 213.181 2.32258C212.117 2.11591 211.12 2.87589 210.966 3.93456Z" fill="#B8D7C9"/>
<path d="M218.104 5.16598C217.908 6.21798 218.589 7.22062 219.628 7.40595C220.671 7.57129 221.673 6.96862 221.901 5.90595C222.12 4.87662 221.457 3.78062 220.389 3.60862C219.324 3.41796 218.3 4.11665 218.104 5.16598Z" fill="#B8D7C9"/>
<path d="M225.191 6.66661C224.952 7.70794 225.591 8.74529 226.619 8.98262C227.647 9.21996 228.695 8.57328 228.96 7.53594C229.224 6.50128 228.585 5.46393 227.531 5.21993C226.476 4.97593 225.429 5.62527 225.191 6.66661Z" fill="#B8D7C9"/>
<path d="M232.216 8.42869C231.936 9.46069 232.53 10.5313 233.546 10.818C234.56 11.1073 235.632 10.5113 235.938 9.48598C236.244 8.46065 235.649 7.39135 234.608 7.09535C233.568 6.79935 232.497 7.39669 232.216 8.42869Z" fill="#B8D7C9"/>
<path d="M239.168 10.4584C238.847 11.4757 239.396 12.5784 240.396 12.9157C241.396 13.2544 242.487 12.7077 242.833 11.697C243.181 10.6877 242.632 9.58504 241.605 9.23838C240.583 8.89171 239.491 9.43836 239.168 10.4584Z" fill="#B8D7C9"/>
<path d="M246.03 12.7787C245.672 13.78 246.188 14.8707 247.162 15.272C248.144 15.6587 249.254 15.1653 249.641 14.1693C250.028 13.172 249.528 12.0427 248.521 11.6453C247.52 11.2347 246.396 11.7667 246.03 12.7787Z" fill="#B8D7C9"/>
<path d="M252.782 15.4063C252.381 16.3969 252.849 17.5143 253.83 17.9009C254.805 18.3023 255.921 17.8836 256.352 16.897C256.774 15.9236 256.332 14.7423 255.332 14.3303C254.326 13.9343 253.184 14.4156 252.782 15.4063Z" fill="#B8D7C9"/>
<path d="M259.427 18.2867C258.986 19.2614 259.408 20.4027 260.37 20.8373C261.331 21.272 262.488 20.844 262.954 19.8814C263.419 18.9187 262.998 17.7761 262.012 17.3321C261.027 16.8854 259.868 17.3134 259.427 18.2867Z" fill="#B8D7C9"/>
<path d="M265.96 21.4167C265.48 22.3714 265.852 23.5368 266.792 24.0181C267.729 24.4994 268.9 24.1247 269.404 23.1807C269.908 22.2381 269.534 21.0727 268.572 20.5807C267.61 20.0861 266.44 20.4607 265.96 21.4167Z" fill="#B8D7C9"/>
<path d="M272.366 24.7938C271.849 25.7298 272.171 26.9139 273.086 27.4405C274.001 27.9672 275.181 27.6459 275.722 26.7232C276.262 25.8005 275.941 24.6165 275.002 24.0752C274.065 23.5365 272.885 23.8592 272.366 24.7938Z" fill="#B8D7C9"/>
<path d="M278.642 28.4142C278.086 29.3276 278.357 30.5302 279.246 31.1009C280.133 31.6702 281.322 31.4022 281.898 30.5022C282.476 29.6022 282.205 28.3983 281.294 27.8156C280.384 27.2329 279.196 27.4996 278.642 28.4142Z" fill="#B8D7C9"/>
<path d="M284.741 32.3236C284.143 33.2263 284.408 34.3756 285.264 34.9916C286.123 35.6036 287.316 35.3889 287.93 34.5129C288.542 33.6356 288.323 32.4169 287.442 31.7916C286.563 31.1596 285.323 31.4436 284.741 32.3236Z" fill="#B8D7C9"/>
<path d="M290.681 36.4687C290.056 37.3353 290.245 38.534 291.106 39.146C291.977 39.742 293.153 39.6073 293.805 38.75C294.446 37.906 294.302 36.6446 293.409 36.034C292.528 35.406 291.305 35.6007 290.681 36.4687Z" fill="#B8D7C9"/>
<path d="M296.461 40.8357C295.802 41.6771 295.941 42.889 296.77 43.5397C297.598 44.193 298.824 44.0518 299.502 43.2264C300.184 42.4011 300.045 41.1904 299.194 40.5211C298.344 39.8518 297.12 39.9931 296.461 40.8357Z" fill="#B8D7C9"/>
<path d="M302.26 48.1449C303.058 48.8356 304.28 48.7477 304.994 47.9517C305.704 47.153 305.62 45.9317 304.803 45.2237C303.984 44.5157 302.76 44.6023 302.068 45.417C301.378 46.233 301.463 47.4543 302.26 48.1449Z" fill="#B8D7C9"/>
<path d="M307.573 52.9545C308.336 53.6825 309.557 53.6479 310.3 52.8799C311.044 52.1105 311.011 50.8825 310.228 50.1358C309.445 49.3905 308.224 49.4238 307.5 50.2092C306.777 50.9972 306.809 52.2265 307.573 52.9545Z" fill="#B8D7C9"/>
<path d="M312.701 57.9606C313.43 58.7232 314.646 58.7446 315.419 58.0046C316.191 57.2659 316.213 56.0326 315.466 55.2486C314.718 54.4686 313.506 54.4419 312.745 55.2085C311.999 55.9592 311.973 57.1979 312.701 57.9606Z" fill="#B8D7C9"/>
<path d="M317.638 63.1578C318.327 63.9551 319.536 64.0284 320.338 63.3204C321.139 62.6124 321.215 61.3765 320.506 60.5591C319.783 59.7538 318.526 59.7257 317.748 60.4471C316.959 61.1804 316.931 62.3738 317.638 63.1578Z" fill="#B8D7C9"/>
<path d="M322.33 68.5758C323.034 69.3638 324.227 69.4945 325.055 68.8199C325.884 68.1425 326.022 66.8999 325.3 66.0919C324.592 65.2745 323.36 65.1772 322.548 65.8719C321.736 66.5692 321.639 67.7798 322.33 68.5758Z" fill="#B8D7C9"/>
<path d="M326.802 74.1769C327.453 75.0062 328.674 75.1582 329.529 74.5156C330.385 73.8729 330.536 72.6635 329.866 71.8115C329.198 70.9609 327.977 70.8102 327.138 71.4729C326.301 72.1382 326.149 73.3476 326.802 74.1769Z" fill="#B8D7C9"/>
<path d="M331.06 79.9418C331.67 80.8018 332.88 81.0071 333.758 80.3978C334.64 79.7898 334.844 78.5818 334.216 77.6991C333.589 76.8191 332.381 76.6164 331.517 77.2444C330.653 77.8738 330.448 79.0818 331.06 79.9418Z" fill="#B8D7C9"/>
<path d="M335.093 85.8641C335.663 86.7521 336.857 87.0094 337.759 86.4361C338.662 85.8641 338.921 84.6614 338.338 83.7494C337.753 82.8401 336.559 82.5827 335.671 83.1787C334.782 83.7747 334.525 84.9761 335.093 85.8641Z" fill="#B8D7C9"/>
<path d="M338.9 91.9357C339.425 92.8517 340.601 93.1571 341.528 92.6211C342.452 92.0838 342.765 90.8904 342.225 89.9531C341.693 89.0104 340.501 88.7117 339.58 89.2784C338.68 89.8304 338.383 91.0157 338.9 91.9357Z" fill="#B8D7C9"/>
<path d="M342.473 98.1483C342.959 99.0857 344.112 99.4457 345.059 98.9444C346.003 98.447 346.373 97.2603 345.875 96.3017C345.336 95.3617 344.143 95.0243 343.211 95.5483C342.277 96.071 341.947 97.2363 342.473 98.1483Z" fill="#B8D7C9"/>
<path d="M345.743 104.526C346.227 105.466 347.396 105.854 348.348 105.4C349.324 104.933 349.711 103.776 349.216 102.814C348.723 101.852 347.551 101.464 346.598 101.95C345.646 102.434 345.262 103.588 345.743 104.526Z" fill="#B8D7C9"/>
<path d="M348.766 111.024C349.201 111.985 350.35 112.424 351.333 112.001C352.314 111.578 352.75 110.438 352.305 109.453C351.859 108.468 350.71 108.028 349.738 108.474C348.767 108.921 348.331 110.064 348.766 111.024Z" fill="#B8D7C9"/>
<path d="M351.541 117.631C351.928 118.612 353.051 119.098 354.049 118.716C355.049 118.335 355.536 117.207 355.139 116.202C354.743 115.195 353.62 114.71 352.631 115.116C351.641 115.524 351.153 116.65 351.541 117.631Z" fill="#B8D7C9"/>
<path d="M354.062 124.338C354.399 125.336 355.495 125.87 356.509 125.527C357.521 125.186 358.062 124.079 357.714 123.054C357.367 122.028 356.273 121.495 355.269 121.863C354.265 122.23 353.723 123.339 354.062 124.338Z" fill="#B8D7C9"/>
<path d="M356.331 131.137C356.616 132.151 357.683 132.729 358.71 132.429C359.735 132.128 360.327 131.039 360.031 130C359.747 128.956 358.595 128.404 357.591 128.725C356.559 129.057 356.054 130.119 356.331 131.137Z" fill="#B8D7C9"/>
<path d="M358.287 138.029C358.591 139.04 359.607 139.668 360.646 139.409C361.682 139.149 362.342 138.08 362.03 137.044C361.735 136.003 360.661 135.391 359.63 135.677C358.599 135.963 357.998 137.016 358.287 138.029Z" fill="#B8D7C9"/>
<path d="M359.951 145.001C360.189 146.028 361.23 146.686 362.277 146.469C363.323 146.249 363.974 145.218 363.733 144.164C363.489 143.11 362.446 142.453 361.406 142.697C360.365 142.941 359.714 143.972 359.951 145.001Z" fill="#B8D7C9"/>
<path d="M361.35 152.028C361.535 153.066 362.541 153.765 363.595 153.589C364.65 153.414 365.351 152.408 365.161 151.344C364.971 150.278 363.966 149.58 362.915 149.781C361.865 149.984 361.165 150.989 361.35 152.028Z" fill="#B8D7C9"/>
<path d="M362.488 159.103C362.621 160.149 363.588 160.889 364.649 160.755C365.71 160.621 366.46 159.643 366.324 158.571C366.188 157.497 365.218 156.756 364.162 156.917C363.105 157.077 362.356 158.056 362.488 159.103Z" fill="#B8D7C9"/>
<path d="M363.365 166.216C363.444 167.268 364.373 168.046 365.439 167.954C366.504 167.862 367.301 166.914 367.219 165.836C367.137 164.757 366.125 163.986 365.076 164.104C364 164.224 363.287 165.162 363.365 166.216Z" fill="#B8D7C9"/>
<path d="M363.91 173.363C363.999 174.415 364.91 175.229 365.966 175.181C367.047 175.131 367.866 174.215 367.775 173.137C367.694 172.057 366.762 171.245 365.695 171.32C364.629 171.397 363.829 172.311 363.91 173.363Z" fill="#B8D7C9"/>
<path d="M364.165 180.527C364.19 181.581 365.079 182.429 366.147 182.423C367.217 182.415 368.062 181.532 368.034 180.451C368.007 179.369 367.119 178.521 366.05 178.555C364.981 178.588 364.137 179.471 364.165 180.527Z" fill="#B8D7C9"/>
<path d="M364.165 187.693C364.137 188.748 364.981 189.631 366.05 189.664C367.119 189.699 368.007 188.851 368.034 187.768C368.062 186.688 367.217 185.804 366.147 185.797C365.079 185.791 364.19 186.639 364.165 187.693Z" fill="#B8D7C9"/>
<path d="M363.91 194.856C363.829 195.908 364.629 196.822 365.695 196.898C366.762 196.974 367.693 196.161 367.775 195.082C367.866 194.005 367.047 193.089 365.966 193.04C364.91 192.99 363.999 193.804 363.91 194.856Z" fill="#B8D7C9"/>
<path d="M363.365 202.004C363.288 203.056 364.001 203.996 365.077 204.116C366.126 204.232 367.138 203.463 367.22 202.384C367.302 201.306 366.505 200.358 365.44 200.266C364.374 200.174 363.445 200.952 363.365 202.004Z" fill="#B8D7C9"/>
<path d="M362.488 209.117C362.356 210.164 363.105 211.141 364.162 211.304C365.218 211.462 366.188 210.722 366.322 209.649C366.46 208.577 365.71 207.597 364.649 207.464C363.588 207.33 362.62 208.07 362.488 209.117Z" fill="#B8D7C9"/>
<path d="M361.35 216.192C361.165 217.231 361.865 218.238 362.915 218.439C363.966 218.64 364.971 217.942 365.161 216.878C365.35 215.811 364.65 214.806 363.595 214.631C362.541 214.454 361.535 215.154 361.35 216.192Z" fill="#B8D7C9"/>
<path d="M359.951 223.219C359.714 224.247 360.365 225.279 361.406 225.523C362.446 225.765 363.489 225.111 363.731 224.055C363.974 223.001 363.322 221.971 362.277 221.751C361.23 221.535 360.189 222.191 359.951 223.219Z" fill="#B8D7C9"/>
<path d="M358.287 230.189C357.999 231.202 358.6 232.257 359.631 232.544C360.662 232.83 361.735 232.217 362.031 231.176C362.343 230.138 361.683 229.07 360.646 228.81C359.608 228.55 358.592 229.18 358.287 230.189Z" fill="#B8D7C9"/>
<path d="M356.329 237.084C356.052 238.101 356.558 239.162 357.59 239.493C358.594 239.816 359.745 239.264 360.029 238.22C360.326 237.178 359.733 236.092 358.708 235.792C357.682 235.489 356.616 236.069 356.329 237.084Z" fill="#B8D7C9"/>
<path d="M354.062 243.882C353.723 244.882 354.266 245.99 355.268 246.358C356.272 246.724 357.368 246.191 357.715 245.166C358.062 244.14 357.522 243.032 356.508 242.692C355.496 242.35 354.4 242.883 354.062 243.882Z" fill="#B8D7C9"/>
<path d="M351.541 250.588C351.153 251.57 351.641 252.696 352.631 253.102C353.619 253.51 354.743 253.025 355.139 252.018C355.535 251.012 355.048 249.886 354.049 249.504C353.051 249.121 351.928 249.606 351.541 250.588Z" fill="#B8D7C9"/>
<path d="M348.766 257.195C348.332 258.156 348.766 259.299 349.738 259.746C350.709 260.191 351.86 259.752 352.305 258.767C352.749 257.782 352.314 256.639 351.332 256.219C350.35 255.798 349.201 256.235 348.766 257.195Z" fill="#B8D7C9"/>
<path d="M345.742 263.692C345.262 264.632 345.645 265.785 346.598 266.271C347.55 266.753 348.724 266.367 349.216 265.405C349.712 264.441 349.325 263.287 348.349 262.819C347.396 262.365 346.228 262.753 345.742 263.692Z" fill="#B8D7C9"/>
<path d="M342.473 270.071C341.947 270.984 342.277 272.149 343.21 272.672C344.142 273.193 345.335 272.859 345.875 271.92C346.374 270.96 346.003 269.772 345.059 269.273C344.111 268.775 342.958 269.133 342.473 270.071Z" fill="#B8D7C9"/>
<path d="M338.898 276.284C338.381 277.203 338.678 278.388 339.579 278.941C340.499 279.507 341.693 279.209 342.223 278.267C342.763 277.329 342.45 276.135 341.526 275.599C340.601 275.063 339.425 275.369 338.898 276.284Z" fill="#B8D7C9"/>
<path d="M335.093 282.356C334.525 283.244 334.782 284.445 335.67 285.04C336.558 285.636 337.751 285.379 338.337 284.469C338.919 283.559 338.662 282.356 337.758 281.784C336.857 281.211 335.662 281.467 335.093 282.356Z" fill="#B8D7C9"/>
<path d="M331.058 288.277C330.446 289.137 330.651 290.344 331.515 290.973C332.379 291.604 333.588 291.4 334.215 290.519C334.842 289.637 334.638 288.428 333.758 287.82C332.878 287.212 331.668 287.416 331.058 288.277Z" fill="#B8D7C9"/>
<path d="M326.802 294.041C326.15 294.87 326.3 296.081 327.139 296.745C327.976 297.409 329.198 297.256 329.867 296.406C330.535 295.556 330.386 294.345 329.53 293.702C328.675 293.061 327.452 293.212 326.802 294.041Z" fill="#B8D7C9"/>
<path d="M322.547 302.347C323.359 303.043 324.591 302.944 325.299 302.127C326.019 301.319 325.884 300.077 325.052 299.4C324.227 298.725 323.032 298.856 322.33 299.643C321.639 300.44 321.736 301.651 322.547 302.347Z" fill="#B8D7C9"/>
<path d="M312.743 313.011C313.505 313.776 314.716 313.75 315.465 312.971C316.211 312.188 316.191 310.954 315.417 310.214C314.644 309.475 313.428 309.495 312.7 310.259C311.971 311.022 311.997 312.26 312.743 313.011Z" fill="#B8D7C9"/>
<path d="M317.746 307.771C318.525 308.493 319.779 308.464 320.505 307.66C321.213 306.843 321.138 305.605 320.335 304.899C319.535 304.192 318.326 304.263 317.634 305.061C316.929 305.845 316.958 307.039 317.746 307.771Z" fill="#B8D7C9"/>
<path d="M302.068 322.803C302.76 323.617 303.982 323.703 304.801 322.995C305.618 322.287 305.704 321.065 304.992 320.268C304.28 319.471 303.056 319.384 302.258 320.076C301.461 320.765 301.376 321.985 302.068 322.803Z" fill="#B8D7C9"/>
<path d="M307.498 318.011C308.222 318.797 309.444 318.831 310.226 318.083C311.009 317.337 311.042 316.109 310.3 315.34C309.556 314.571 308.334 314.537 307.57 315.265C306.808 315.995 306.776 317.223 307.498 318.011Z" fill="#B8D7C9"/>
<path d="M290.681 331.749C291.306 332.617 292.529 332.812 293.409 332.185C294.302 331.573 294.446 330.313 293.805 329.469C293.153 328.612 291.977 328.476 291.106 329.073C290.246 329.685 290.055 330.883 290.681 331.749Z" fill="#B8D7C9"/>
<path d="M296.458 327.384C297.117 328.226 298.341 328.366 299.191 327.697C300.042 327.028 300.181 325.817 299.501 324.992C298.821 324.168 297.597 324.026 296.767 324.68C295.937 325.33 295.798 326.541 296.458 327.384Z" fill="#B8D7C9"/>
<path d="M278.641 339.804C279.195 340.718 280.383 340.986 281.294 340.404C282.206 339.82 282.475 338.617 281.899 337.717C281.322 336.817 280.134 336.549 279.246 337.118C278.358 337.688 278.087 338.89 278.641 339.804Z" fill="#B8D7C9"/>
<path d="M273.082 340.779C272.169 341.304 271.846 342.49 272.365 343.424C272.882 344.36 274.062 344.683 275 344.142C275.938 343.604 276.26 342.418 275.72 341.496C275.178 340.574 273.998 340.252 273.082 340.779Z" fill="#B8D7C9"/>
<path d="M284.739 335.896C285.322 336.776 286.562 337.06 287.441 336.428C288.322 335.803 288.541 334.583 287.929 333.707C287.315 332.831 286.122 332.615 285.262 333.227C284.407 333.844 284.141 334.993 284.739 335.896Z" fill="#B8D7C9"/>
<path d="M266.79 344.2C265.85 344.683 265.478 345.847 265.958 346.803C266.438 347.757 267.607 348.133 268.57 347.637C269.534 347.145 269.904 345.98 269.4 345.037C268.898 344.095 267.727 343.72 266.79 344.2Z" fill="#B8D7C9"/>
<path d="M260.368 347.383C259.407 347.816 258.986 348.959 259.427 349.932C259.868 350.907 261.026 351.333 262.01 350.888C262.995 350.443 263.418 349.301 262.951 348.339C262.486 347.376 261.328 346.948 260.368 347.383Z" fill="#B8D7C9"/>
<path d="M253.83 350.317C252.848 350.705 252.378 351.821 252.781 352.811C253.182 353.803 254.324 354.283 255.33 353.887C256.332 353.475 256.773 352.295 256.35 351.322C255.92 350.335 254.805 349.915 253.83 350.317Z" fill="#B8D7C9"/>
<path d="M247.162 352.947C246.186 353.349 245.669 354.439 246.029 355.439C246.393 356.451 247.518 356.983 248.519 356.574C249.525 356.177 250.027 355.046 249.641 354.051C249.253 353.054 248.142 352.559 247.162 352.947Z" fill="#B8D7C9"/>
<path d="M240.394 355.303C239.395 355.64 238.845 356.743 239.166 357.763C239.487 358.781 240.579 359.328 241.605 358.98C242.63 358.633 243.178 357.533 242.831 356.521C242.485 355.511 241.393 354.964 240.394 355.303Z" fill="#B8D7C9"/>
<path d="M233.543 357.4C232.528 357.688 231.934 358.757 232.214 359.789C232.494 360.82 233.564 361.418 234.606 361.122C235.646 360.828 236.242 359.757 235.935 358.732C235.63 357.708 234.558 357.112 233.543 357.4Z" fill="#B8D7C9"/>
<path d="M228.958 360.682C228.693 359.646 227.645 359 226.617 359.237C225.589 359.473 224.949 360.51 225.189 361.553C225.428 362.594 226.474 363.242 227.529 363C228.584 362.754 229.224 361.718 228.958 360.682Z" fill="#B8D7C9"/>
<path d="M221.9 362.312C221.672 361.249 220.669 360.646 219.626 360.812C218.588 360.997 217.905 362 218.102 363.052C218.3 364.101 219.321 364.8 220.388 364.609C221.456 364.438 222.12 363.341 221.9 362.312Z" fill="#B8D7C9"/>
<path d="M214.78 363.644C214.597 362.591 213.609 361.888 212.571 362.073C211.535 362.276 210.809 363.227 210.964 364.285C211.119 365.344 212.116 366.104 213.179 365.896C214.245 365.705 214.961 364.697 214.78 363.644Z" fill="#B8D7C9"/>
<path d="M207.615 364.711C207.475 363.651 206.515 362.899 205.469 363.031C204.421 363.164 203.665 364.136 203.777 365.198C203.889 366.26 204.851 367.014 205.923 366.878C206.997 366.742 207.754 365.771 207.615 364.711Z" fill="#B8D7C9"/>
<path d="M198.338 363.729C197.286 363.807 196.49 364.739 196.561 365.804C196.632 366.872 197.562 367.669 198.641 367.588C199.72 367.505 200.516 366.577 200.418 365.513C200.321 364.448 199.389 363.648 198.338 363.729Z" fill="#B8D7C9"/>
<path d="M193.193 366.052C193.138 364.984 192.237 364.139 191.184 364.165C190.128 364.193 189.296 365.081 189.325 366.148C189.353 367.217 190.253 368.063 191.334 368.033C192.416 368.008 193.249 367.119 193.193 366.052Z" fill="#B8D7C9"/>
<path d="M185.95 366.235C185.937 365.164 185.07 364.32 184.017 364.347C182.962 364.32 182.096 365.164 182.082 366.235C182.069 367.304 182.936 368.193 184.017 368.219C185.097 368.193 185.965 367.304 185.95 366.235Z" fill="#B8D7C9"/>
<path d="M178.709 366.148C178.738 365.081 177.906 364.193 176.85 364.165C175.797 364.139 174.895 364.984 174.841 366.052C174.785 367.119 175.618 368.008 176.699 368.033C177.781 368.063 178.681 367.217 178.709 366.148Z" fill="#B8D7C9"/>
<path d="M171.474 365.804C171.545 364.739 170.749 363.807 169.697 363.728C168.645 363.648 167.713 364.448 167.615 365.513C167.518 366.576 168.314 367.505 169.393 367.588C170.471 367.669 171.403 366.872 171.474 365.804Z" fill="#B8D7C9"/>
<path d="M164.254 365.198C164.367 364.136 163.61 363.164 162.563 363.031C161.518 362.899 160.557 363.651 160.417 364.711C160.278 365.771 161.035 366.74 162.109 366.878C163.181 367.014 164.142 366.26 164.254 365.198Z" fill="#B8D7C9"/>
<path d="M157.07 364.285C157.225 363.227 156.5 362.276 155.464 362.073C154.425 361.887 153.436 362.591 153.254 363.644C153.074 364.697 153.79 365.705 154.856 365.896C155.918 366.104 156.916 365.344 157.07 364.285Z" fill="#B8D7C9"/>
<path d="M149.93 363.052C150.127 362 149.443 360.997 148.406 360.812C147.363 360.646 146.361 361.249 146.134 362.312C145.914 363.341 146.577 364.437 147.645 364.609C148.711 364.8 149.733 364.101 149.93 363.052Z" fill="#B8D7C9"/>
<path d="M142.846 361.552C143.085 360.51 142.445 359.473 141.417 359.236C140.389 359 139.341 359.646 139.076 360.682C138.81 361.718 139.45 362.754 140.505 363C141.558 363.242 142.606 362.593 142.846 361.552Z" fill="#B8D7C9"/>
<path d="M135.82 359.79C136.101 358.758 135.504 357.688 134.49 357.4C133.474 357.112 132.404 357.708 132.098 358.732C131.791 359.758 132.387 360.827 133.428 361.123C134.469 361.418 135.54 360.82 135.82 359.79Z" fill="#B8D7C9"/>
<path d="M128.867 357.761C129.188 356.742 128.638 355.64 127.639 355.302C126.641 354.964 125.548 355.51 125.202 356.521C124.855 357.532 125.404 358.633 126.429 358.98C127.454 359.326 128.545 358.781 128.867 357.761Z" fill="#B8D7C9"/>
<path d="M122.003 355.44C122.363 354.44 121.848 353.349 120.871 352.948C119.89 352.56 118.781 353.055 118.392 354.051C118.005 355.047 118.508 356.177 119.514 356.573C120.515 356.984 121.64 356.452 122.003 355.44Z" fill="#B8D7C9"/>
<path d="M115.254 352.811C115.655 351.821 115.185 350.705 114.204 350.317C113.23 349.915 112.113 350.335 111.683 351.322C111.26 352.295 111.703 353.475 112.703 353.887C113.709 354.283 114.851 353.803 115.254 352.811Z" fill="#B8D7C9"/>
<path d="M108.607 349.932C109.049 348.959 108.628 347.816 107.666 347.383C106.706 346.948 105.548 347.376 105.082 348.339C104.616 349.301 105.038 350.443 106.024 350.888C107.009 351.333 108.167 350.907 108.607 349.932Z" fill="#B8D7C9"/>
<path d="M102.076 346.803C102.557 345.847 102.184 344.683 101.246 344.2C100.307 343.72 99.1365 344.095 98.6317 345.037C98.1302 345.98 98.5005 347.145 99.4645 347.637C100.427 348.133 101.597 347.757 102.076 346.803Z" fill="#B8D7C9"/>
<path d="M95.6692 343.424C96.187 342.49 95.8646 341.304 94.9499 340.779C94.0364 340.252 92.8556 340.574 92.315 341.496C91.7744 342.418 92.0963 343.604 93.0343 344.142C93.9718 344.683 95.152 344.36 95.6692 343.424Z" fill="#B8D7C9"/>
<path d="M89.3936 339.805C89.9473 338.89 89.6775 337.688 88.7889 337.118C87.9009 336.549 86.7129 336.817 86.1359 337.717C85.5583 338.617 85.8285 339.82 86.74 340.404C87.6509 340.986 88.8384 340.718 89.3936 339.805Z" fill="#B8D7C9"/>
<path d="M83.2945 335.896C83.8914 334.993 83.6268 333.844 82.771 333.227C81.9106 332.615 80.7174 332.831 80.1049 333.707C79.4929 334.583 79.7117 335.803 80.592 336.428C81.4721 337.06 82.7112 336.776 83.2945 335.896Z" fill="#B8D7C9"/>
<path d="M77.3536 331.749C77.9792 330.883 77.7886 329.685 76.9276 329.073C76.0568 328.476 74.8807 328.612 74.2292 329.469C73.588 330.313 73.7318 331.573 74.6255 332.185C75.5058 332.812 76.7287 332.617 77.3536 331.749Z" fill="#B8D7C9"/>
<path d="M71.5749 327.384C72.2342 326.542 72.0962 325.331 71.266 324.68C70.4364 324.027 69.2129 324.168 68.5321 324.992C67.854 325.818 67.9916 327.028 68.8416 327.698C69.693 328.366 70.9154 328.227 71.5749 327.384Z" fill="#B8D7C9"/>
<path d="M65.775 320.076C64.9765 319.384 63.7536 319.471 63.0412 320.268C62.3297 321.065 62.4145 322.287 63.2322 322.995C64.05 323.703 65.274 323.617 65.9656 322.803C66.6578 321.985 66.5724 320.765 65.775 320.076Z" fill="#B8D7C9"/>
<path d="M60.4624 315.265C59.6977 314.537 58.4764 314.57 57.7337 315.34C56.9911 316.108 57.0233 317.337 57.8067 318.082C58.5889 318.829 59.8103 318.797 60.5337 318.009C61.2577 317.222 61.2249 315.993 60.4624 315.265Z" fill="#B8D7C9"/>
<path d="M55.3341 310.259C54.607 309.495 53.3904 309.475 52.618 310.214C51.8445 310.954 51.8232 312.188 52.569 312.97C53.3185 313.75 54.5294 313.776 55.2914 313.011C56.0372 312.26 56.0644 311.022 55.3341 310.259Z" fill="#B8D7C9"/>
<path d="M50.3983 305.06C49.7083 304.263 48.4983 304.191 47.6968 304.899C46.8958 305.606 46.8202 306.843 47.5286 307.66C48.2526 308.463 49.5083 308.494 50.2868 307.771C51.0754 307.039 51.1046 305.846 50.3983 305.06Z" fill="#B8D7C9"/>
<path d="M45.7052 299.641C45.0021 298.856 43.8079 298.725 42.9812 299.4C42.1511 300.076 42.014 301.319 42.7349 302.127C43.4427 302.944 44.6751 303.043 45.4864 302.347C46.2989 301.651 46.3964 300.44 45.7052 299.641Z" fill="#B8D7C9"/>
<path d="M41.2332 294.041C40.581 293.212 39.3597 293.06 38.504 293.702C37.6498 294.345 37.4988 295.554 38.167 296.406C38.8358 297.256 40.0577 297.409 40.8957 296.745C41.7342 296.081 41.8853 294.87 41.2332 294.041Z" fill="#B8D7C9"/>
<path d="M36.9777 288.276C36.3657 287.416 35.1569 287.212 34.2772 287.82C33.3985 288.428 33.1933 289.636 33.8204 290.517C34.4476 291.399 35.6553 291.603 36.5194 290.973C37.385 290.344 37.5892 289.136 36.9777 288.276Z" fill="#B8D7C9"/>
<path d="M32.9425 282.355C32.3733 281.467 31.1796 281.209 30.2764 281.783C29.3744 282.356 29.1149 283.557 29.6988 284.468C30.2821 285.379 31.4764 285.635 32.3649 285.039C33.253 284.445 33.5124 283.243 32.9425 282.355Z" fill="#B8D7C9"/>
<path d="M29.1355 276.282C28.6094 275.368 27.4323 275.061 26.5079 275.597C25.5829 276.133 25.2694 277.328 25.8094 278.266C26.3413 279.208 27.5334 279.506 28.4542 278.94C29.3553 278.388 29.6531 277.201 29.1355 276.282Z" fill="#B8D7C9"/>
<path d="M25.5615 270.069C25.0755 269.133 23.923 268.773 22.9755 269.273C22.0318 269.772 21.661 270.959 22.1594 271.917C22.6985 272.857 23.8922 273.193 24.825 272.671C25.7574 272.149 26.0875 270.984 25.5615 270.069Z" fill="#B8D7C9"/>
<path d="M22.2922 263.692C21.8085 262.754 20.6402 262.364 19.687 262.819C18.7105 263.287 18.3235 264.442 18.8194 265.403C19.3126 266.366 20.485 266.754 21.4375 266.268C22.3907 265.784 22.7735 264.631 22.2922 263.692Z" fill="#B8D7C9"/>
<path d="M19.2692 257.195C18.8359 256.233 17.6859 255.796 16.7036 256.217C15.7207 256.639 15.2864 257.78 15.7312 258.766C16.1764 259.751 17.3264 260.191 18.2973 259.744C19.2692 259.297 19.7045 258.155 19.2692 257.195Z" fill="#B8D7C9"/>
<path d="M16.4944 250.589C16.108 249.607 14.984 249.122 13.9856 249.503C12.9865 249.884 12.4991 251.012 12.8959 252.018C13.2923 253.024 14.4162 253.51 15.4042 253.103C16.3933 252.695 16.8808 251.57 16.4944 250.589Z" fill="#B8D7C9"/>
<path d="M13.9731 243.88C13.6345 242.881 12.5392 242.349 11.5262 242.691C10.5131 243.032 9.97304 244.14 10.3199 245.165C10.6668 246.191 11.7626 246.724 12.7657 246.356C13.7704 245.988 14.3111 244.88 13.9731 243.88Z" fill="#B8D7C9"/>
<path d="M11.7069 237.081C11.4194 236.067 10.3538 235.489 9.32824 235.789C8.3022 236.089 7.71001 237.179 8.00585 238.219C8.29022 239.264 9.44126 239.815 10.4454 239.494C11.4772 239.162 11.9835 238.1 11.7069 237.081Z" fill="#B8D7C9"/>
<path d="M9.74933 230.188C9.44359 229.178 8.42953 228.55 7.38996 228.81C6.35506 229.07 5.69307 230.139 6.00558 231.175C6.30089 232.216 7.37589 232.828 8.40558 232.542C9.4363 232.256 10.0379 231.202 9.74933 230.188Z" fill="#B8D7C9"/>
<path d="M8.08588 223.218C7.84839 222.191 6.80672 221.532 5.75984 221.751C4.71349 221.97 4.06192 223 4.30464 224.054C4.54787 225.108 5.58901 225.764 6.63016 225.522C7.67131 225.276 8.32287 224.246 8.08588 223.218Z" fill="#B8D7C9"/>
<path d="M6.68527 216.19C6.50037 215.15 5.49464 214.453 4.43996 214.628C3.38579 214.804 2.68475 215.809 2.87485 216.874C3.06548 217.94 4.07068 218.638 5.12016 218.436C6.17016 218.234 6.87121 217.228 6.68527 216.19Z" fill="#B8D7C9"/>
<path d="M5.5482 209.114C5.41538 208.069 4.44716 207.328 3.38673 207.464C2.32632 207.596 1.57684 208.574 1.7133 209.648C1.84976 210.721 2.81798 211.462 3.87424 211.301C4.93153 211.14 5.68101 210.161 5.5482 209.114Z" fill="#B8D7C9"/>
<path d="M4.67199 202.003C4.59178 200.951 3.66314 200.172 2.59803 200.263C1.53293 200.355 0.73605 201.304 0.818341 202.382C0.899592 203.462 1.91053 204.232 2.96157 204.114C4.03553 203.995 4.75011 203.055 4.67199 202.003Z" fill="#B8D7C9"/>
<path d="M4.12789 194.856C4.03779 193.804 3.12737 192.989 2.07059 193.037C0.990912 193.088 0.171642 194.005 0.262787 195.081C0.344038 196.16 1.27477 196.973 2.34143 196.897C3.40862 196.821 4.2081 195.908 4.12789 194.856Z" fill="#B8D7C9"/>
<path d="M3.87251 187.692C3.84595 186.637 2.95637 185.789 1.88762 185.796C0.818863 185.804 -0.0264503 186.687 0.000633046 187.768C0.0282373 188.849 0.916779 189.697 1.98553 189.664C3.05429 189.629 3.89855 188.748 3.87251 187.692Z" fill="#B8D7C9"/>
<path d="M3.87251 180.526C3.89855 179.47 3.05429 178.586 1.98553 178.553C0.916779 178.52 0.0282373 179.368 0.000633044 180.449C-0.0264503 181.529 0.818863 182.413 1.88814 182.42C2.95637 182.428 3.84595 181.58 3.87251 180.526Z" fill="#B8D7C9"/>
<path d="M4.12789 173.361C4.2081 172.31 3.40862 171.396 2.34195 171.318C1.27581 171.244 0.344038 172.056 0.262787 173.136C0.171642 174.212 0.990912 175.129 2.07059 175.178C3.12737 175.228 4.03779 174.414 4.12789 173.361Z" fill="#B8D7C9"/>
<path d="M4.67199 166.214C4.75063 165.163 4.03657 164.222 2.96157 164.103C1.91157 163.986 0.899592 164.756 0.818341 165.835C0.73605 166.914 1.53293 167.862 2.59803 167.954C3.66314 168.044 4.59178 167.267 4.67199 166.214Z" fill="#B8D7C9"/>
<path d="M5.54831 159.1C5.6806 158.055 4.93112 157.076 3.87383 156.915C2.81758 156.755 1.84987 157.496 1.71342 158.57C1.57643 159.642 2.32591 160.62 3.38736 160.755C4.44779 160.888 5.4155 160.147 5.54831 159.1Z" fill="#B8D7C9"/>
<path d="M6.68579 152.027C6.87121 150.988 6.17016 149.981 5.12016 149.78C4.07068 149.579 3.06548 150.277 2.87485 151.341C2.68475 152.408 3.38579 153.413 4.44048 153.588C5.49516 153.764 6.50037 153.065 6.68579 152.027Z" fill="#B8D7C9"/>
<path d="M8.08538 144.999C8.32237 143.971 7.67133 142.941 6.63018 142.697C5.58903 142.453 4.54841 143.108 4.30466 144.164C4.06195 145.216 4.71299 146.248 5.75986 146.467C6.80674 146.684 7.84841 146.027 8.08538 144.999Z" fill="#B8D7C9"/>
<path d="M9.75007 138.03C10.0381 137.015 9.43704 135.96 8.40632 135.675C7.37611 135.388 6.30111 136.002 6.0058 137.043C5.69278 138.079 6.35476 139.147 7.38966 139.408C8.42923 139.667 9.4433 139.039 9.75007 138.03Z" fill="#B8D7C9"/>
<path d="M11.7069 131.134C11.9845 130.116 11.4777 129.054 10.4459 128.724C9.44178 128.402 8.29074 128.953 8.00585 129.997C7.71001 131.038 8.30219 132.126 9.32876 132.426C10.3548 132.729 11.4199 132.149 11.7069 131.134Z" fill="#B8D7C9"/>
<path d="M13.9745 124.336C14.3125 123.336 13.7724 122.229 12.7677 121.86C11.7641 121.494 10.6687 122.028 10.3219 123.052C9.97499 124.076 10.5151 125.185 11.5276 125.526C12.5406 125.868 13.637 125.336 13.9745 124.336Z" fill="#B8D7C9"/>
<path d="M16.494 117.628C16.8815 116.647 16.394 115.521 15.405 115.115C14.4159 114.708 13.2935 115.193 12.8956 116.199C12.4992 117.205 12.9872 118.332 13.9856 118.715C14.9842 119.096 16.1076 118.611 16.494 117.628Z" fill="#B8D7C9"/>
<path d="M19.2691 111.024C19.7045 110.061 19.2686 108.92 18.2973 108.473C17.3258 108.027 16.1758 108.464 15.7315 109.452C15.2858 110.437 15.7217 111.579 16.7034 111.999C17.6858 112.421 18.8353 111.984 19.2691 111.024Z" fill="#B8D7C9"/>
<path d="M22.2918 104.526C22.7732 103.586 22.3904 102.433 21.4372 101.948C20.4852 101.464 19.3122 101.852 18.8194 102.813C18.3237 103.776 18.7101 104.932 19.6866 105.398C20.6398 105.852 21.8085 105.464 22.2918 104.526Z" fill="#B8D7C9"/>
<path d="M25.5627 98.1478C26.0887 97.2332 25.7586 96.0678 24.8257 95.5452C23.8934 95.0238 22.7002 95.3598 22.1611 96.2972C21.6633 97.2585 22.0335 98.4452 22.9767 98.9439C23.9242 99.4425 25.0767 99.0838 25.5627 98.1478Z" fill="#B8D7C9"/>
<path d="M29.1365 91.9341C29.6547 91.0141 29.3579 89.8288 28.4563 89.2754C27.5349 88.7114 26.3428 89.0088 25.8109 89.9501C25.2719 90.8874 25.5844 92.0821 26.5095 92.6194C27.4349 93.1554 28.6104 92.8488 29.1365 91.9341Z" fill="#B8D7C9"/>
<path d="M32.943 85.8605C33.5129 84.9725 33.2534 83.7712 32.3649 83.1765C31.4769 82.5818 30.2832 82.8378 29.6988 83.7471C29.1149 84.6591 29.3744 85.8605 30.2764 86.4338C31.1801 87.0058 32.3738 86.7498 32.943 85.8605Z" fill="#B8D7C9"/>
<path d="M36.9769 79.9391C37.5883 79.0805 37.3842 77.8725 36.5201 77.2418C35.6561 76.6125 34.4467 76.8165 33.8201 77.6992C33.1935 78.5805 33.3982 79.7885 34.2779 80.3965C35.1577 81.0045 36.3665 80.8005 36.9769 79.9391Z" fill="#B8D7C9"/>
<path d="M41.2338 74.1755C41.887 73.3462 41.7354 72.1356 40.8968 71.4716C40.0583 70.8076 38.837 70.9609 38.1692 71.8102C37.5004 72.6609 37.652 73.8715 38.5062 74.5142C39.3614 75.1555 40.5827 75.0049 41.2338 74.1755Z" fill="#B8D7C9"/>
<path d="M50.2868 60.4459C49.5081 59.7232 48.2524 59.7539 47.5285 60.5566C46.8201 61.3739 46.8957 62.6112 47.6972 63.3179C48.4988 64.0259 49.7081 63.9539 50.3988 63.1566C51.1051 62.3726 51.0753 61.1792 50.2868 60.4459Z" fill="#B8D7C9"/>
<path d="M45.4867 65.87C44.6758 65.174 43.4425 65.2727 42.7357 66.0901C42.0143 66.8981 42.1503 68.1394 42.981 68.8167C43.8086 69.4914 45.0023 69.3607 45.705 68.5754C46.3957 67.7767 46.2982 66.5674 45.4867 65.87Z" fill="#B8D7C9"/>
<path d="M60.5351 50.2071C59.8121 49.4204 58.5913 49.3871 57.808 50.1337C57.0257 50.8804 56.9928 52.1084 57.7356 52.8764C58.4788 53.6458 59.6996 53.6791 60.4637 52.9511C61.2267 52.2231 61.2591 50.9951 60.5351 50.2071Z" fill="#B8D7C9"/>
<path d="M55.2915 55.2071C54.5301 54.4418 53.3191 54.4671 52.5706 55.2471C51.8233 56.0298 51.8441 57.2631 52.617 58.0031C53.3905 58.7418 54.6071 58.7218 55.3347 57.9591C56.0634 57.1965 56.0373 55.9565 55.2915 55.2071Z" fill="#B8D7C9"/>
<path d="M71.5747 40.8344C70.9159 39.9931 69.6925 39.8518 68.8414 40.5211C67.9914 41.1878 67.8534 42.3998 68.5337 43.2238C69.2123 44.0505 70.4367 44.1904 71.2665 43.5384C72.0962 42.8864 72.2337 41.6771 71.5747 40.8344Z" fill="#B8D7C9"/>
<path d="M65.9675 45.4159C65.2763 44.6012 64.0519 44.5159 63.2336 45.2239C62.4169 45.9306 62.3315 47.1519 63.0429 47.9492C63.7555 48.7479 64.9789 48.8345 65.7763 48.1425C66.5737 47.4532 66.6601 46.2319 65.9675 45.4159Z" fill="#B8D7C9"/>
<path d="M83.2944 32.3223C82.7111 31.441 81.472 31.1583 80.5923 31.789C79.7111 32.4156 79.4933 33.6356 80.1048 34.5116C80.7179 35.3876 81.9116 35.6023 82.7709 34.9916C83.6277 34.3743 83.8928 33.2236 83.2944 32.3223Z" fill="#B8D7C9"/>
<path d="M77.3541 36.469C76.7287 35.5997 75.5073 35.4064 74.6255 36.0317C73.7323 36.6437 73.5875 37.9036 74.2297 38.7476C74.8807 39.6063 76.0573 39.7397 76.9287 39.1437C77.7891 38.533 77.9792 37.3343 77.3541 36.469Z" fill="#B8D7C9"/>
<path d="M94.951 27.4399C95.866 26.9145 96.1879 25.7293 95.6698 24.7933C95.1531 23.8573 93.9723 23.5359 93.0348 24.0759C92.0963 24.6145 91.7744 25.7999 92.315 26.7213C92.8562 27.6439 94.0364 27.9665 94.951 27.4399Z" fill="#B8D7C9"/>
<path d="M101.247 24.0186C102.186 23.5359 102.557 22.3719 102.078 21.4159C101.598 20.4612 100.428 20.0852 99.4651 20.5785C98.5032 21.0732 98.1308 22.2372 98.635 23.1799C99.138 24.1239 100.307 24.4973 101.247 24.0186Z" fill="#B8D7C9"/>
<path d="M89.3947 28.4118C88.8401 27.4985 87.6526 27.2306 86.7411 27.8132C85.8313 28.3986 85.5603 29.5998 86.137 30.5012C86.7141 31.4012 87.9026 31.6679 88.7906 31.0986C89.6786 30.5292 89.9489 29.3265 89.3947 28.4118Z" fill="#B8D7C9"/>
<path d="M107.666 20.8354C108.627 20.4008 109.049 19.2594 108.608 18.2861C108.168 17.3114 107.01 16.8834 106.023 17.3288C105.038 17.7754 104.616 18.9167 105.083 19.8781C105.548 20.8421 106.705 21.2701 107.666 20.8354Z" fill="#B8D7C9"/>
<path d="M114.205 17.9012C115.185 17.5132 115.655 16.3959 115.253 15.4052C114.851 14.4145 113.71 13.9332 112.703 14.3305C111.703 14.7425 111.26 15.9212 111.684 16.8959C112.113 17.8825 113.229 18.3025 114.205 17.9012Z" fill="#B8D7C9"/>
<path d="M120.872 15.2712C121.849 14.8686 122.364 13.7779 122.005 12.7779C121.64 11.7659 120.516 11.2326 119.515 11.6432C118.508 12.0406 118.007 13.1712 118.394 14.1672C118.781 15.1632 119.89 15.6579 120.872 15.2712Z" fill="#B8D7C9"/>
<path d="M127.64 12.9146C128.639 12.5786 129.189 11.476 128.867 10.4573C128.546 9.43732 127.453 8.89193 126.43 9.23727C125.404 9.58393 124.855 10.6853 125.201 11.696C125.548 12.708 126.64 13.2533 127.64 12.9146Z" fill="#B8D7C9"/>
<path d="M134.492 10.8186C135.507 10.5306 136.103 9.46122 135.822 8.42789C135.542 7.39722 134.471 6.79992 133.43 7.09592C132.388 7.39059 131.794 8.46125 132.1 9.48525C132.407 10.5106 133.476 11.1066 134.492 10.8186Z" fill="#B8D7C9"/>
<path d="M139.078 7.53591C139.342 8.57191 140.39 9.21989 141.418 8.98123C142.446 8.74523 143.085 7.70791 142.847 6.66658C142.609 5.62391 141.561 4.97593 140.506 5.2186C139.453 5.46126 138.811 6.49991 139.078 7.53591Z" fill="#B8D7C9"/>
<path d="M146.136 5.9063C146.363 6.96897 147.365 7.5703 148.408 7.4063C149.447 7.22097 150.129 6.21833 149.932 5.16633C149.736 4.11699 148.712 3.4183 147.648 3.60897C146.579 3.77964 145.916 4.87697 146.136 5.9063Z" fill="#B8D7C9"/>
<path d="M153.255 4.57323C153.436 5.6279 154.425 6.3319 155.465 6.14524C156.5 5.94257 157.224 4.99189 157.071 3.93456C156.916 2.87589 155.917 2.11458 154.855 2.32258C153.791 2.51191 153.073 3.52123 153.255 4.57323Z" fill="#B8D7C9"/>
<path d="M160.419 3.50753C160.559 4.56753 161.52 5.31954 162.565 5.18754C163.612 5.05288 164.369 4.08221 164.257 3.02088C164.144 1.95821 163.184 1.20617 162.111 1.34217C161.036 1.47817 160.28 2.44886 160.419 3.50753Z" fill="#B8D7C9"/>
<path d="M169.699 4.49002C170.751 4.41136 171.545 3.47931 171.475 2.41398C171.405 1.34731 170.472 0.54733 169.395 0.629997C168.316 0.71133 167.521 1.64197 167.617 2.70597C167.715 3.77131 168.647 4.57002 169.699 4.49002Z" fill="#B8D7C9"/>
<path d="M174.842 2.16725C174.897 3.23525 175.798 4.07794 176.852 4.05261C177.908 4.02594 178.74 3.13792 178.71 2.06992C178.682 1.00059 177.782 0.155303 176.701 0.184637C175.62 0.211303 174.788 1.09925 174.842 2.16725Z" fill="#B8D7C9"/>
<path d="M182.084 1.98386C182.097 3.05453 182.964 3.89855 184.019 3.87188C185.072 3.89855 185.94 3.05453 185.952 1.98386C185.965 0.915862 185.099 0.0265443 184.019 -0.000122309C182.937 0.0265443 182.071 0.915862 182.084 1.98386Z" fill="#B8D7C9"/>
</svg>
