<svg width="23" height="16" viewBox="0 0 23 16" fill="none" xmlns="http://www.w3.org/2000/svg">
<path d="M11.5593 2.52148C13.3981 2.51537 15.2012 3.02827 16.7614 4.00121C18.3217 4.97415 19.5757 6.36764 20.3793 8.02148C18.7293 11.3915 15.3593 13.5215 11.5593 13.5215C7.75933 13.5215 4.38933 11.3915 2.73933 8.02148C3.54294 6.36764 4.79696 4.97415 6.35721 4.00121C7.91745 3.02827 9.72059 2.51537 11.5593 2.52148ZM11.5593 0.521484C6.55933 0.521484 2.28933 3.63148 0.559326 8.02148C2.28933 12.4115 6.55933 15.5215 11.5593 15.5215C16.5593 15.5215 20.8293 12.4115 22.5593 8.02148C20.8293 3.63148 16.5593 0.521484 11.5593 0.521484ZM11.5593 5.52148C12.2224 5.52148 12.8583 5.78488 13.3271 6.25372C13.7959 6.72256 14.0593 7.35844 14.0593 8.02148C14.0593 8.68453 13.7959 9.32041 13.3271 9.78925C12.8583 10.2581 12.2224 10.5215 11.5593 10.5215C10.8963 10.5215 10.2604 10.2581 9.79156 9.78925C9.32272 9.32041 9.05933 8.68453 9.05933 8.02148C9.05933 7.35844 9.32272 6.72256 9.79156 6.25372C10.2604 5.78488 10.8963 5.52148 11.5593 5.52148ZM11.5593 3.52148C9.07933 3.52148 7.05933 5.54148 7.05933 8.02148C7.05933 10.5015 9.07933 12.5215 11.5593 12.5215C14.0393 12.5215 16.0593 10.5015 16.0593 8.02148C16.0593 5.54148 14.0393 3.52148 11.5593 3.52148Z" fill="#333333"/>
</svg>
