<svg width="41" height="41" viewBox="0 0 41 41" fill="none" xmlns="http://www.w3.org/2000/svg">
<rect x="0.559326" y="0.0214844" width="40" height="40" rx="4" fill="#333333" fill-opacity="0.1"/>
<path d="M19.9441 27.0214L21.5353 28.6127C22.016 29.0933 22.7953 29.0933 23.2759 28.6127L28.5595 23.3291" stroke="#333333" stroke-width="2" stroke-linecap="round"/>
<path d="M18.7132 13.483H15.6362M12.5593 23.3292H15.6362M15.6362 23.3292H17.7132C18.2655 23.3292 18.7132 22.8815 18.7132 22.3292V19.4061C18.7132 18.8538 18.2655 18.4061 17.7132 18.4061H13.5593C13.007 18.4061 12.5593 17.9584 12.5593 17.4061V14.483C12.5593 13.9307 13.007 13.483 13.5593 13.483H15.6362M15.6362 23.3292V25.7907M15.6362 13.483V11.0215" stroke="#333333" stroke-width="2" stroke-linecap="round"/>
</svg>
