<svg width="41" height="41" viewBox="0 0 41 41" fill="none" xmlns="http://www.w3.org/2000/svg">
<rect x="0.559326" y="0.0214844" width="40" height="40" rx="4" fill="#333333" fill-opacity="0.1"/>
<path d="M26.1963 15.115C26.5664 15.115 26.9329 15.0421 27.2749 14.9004C27.6169 14.7588 27.9276 14.5512 28.1893 14.2894C28.451 14.0277 28.6586 13.717 28.8003 13.375C28.9419 13.0331 29.0148 12.6666 29.0148 12.2964C29.0148 11.9263 28.9419 11.5598 28.8003 11.2178C28.6586 10.8759 28.451 10.5652 28.1893 10.3034C27.9276 10.0417 27.6169 9.8341 27.2749 9.69245C26.9329 9.55081 26.5664 9.47791 26.1963 9.47791C25.8262 9.47791 25.4597 9.55081 25.1177 9.69245C24.7757 9.8341 24.465 10.0417 24.2033 10.3034C23.9416 10.5652 23.734 10.8759 23.5923 11.2178C23.4507 11.5598 23.3778 11.9263 23.3778 12.2964C23.3778 12.6666 23.4507 13.0331 23.5923 13.375C23.734 13.717 23.9416 14.0277 24.2033 14.2894C24.465 14.5512 24.7757 14.7588 25.1177 14.9004C25.4597 15.0421 25.8262 15.115 26.1963 15.115ZM24.7882 16.5231C23.2304 16.5231 21.972 17.7861 21.972 19.3393V20.7473C21.972 21.5239 22.6035 22.1554 23.3801 22.1554H29.0172C29.7937 22.1554 30.4253 21.5239 30.4253 20.7473V19.3393C30.4253 17.7815 29.1622 16.5231 27.6091 16.5231H24.7882ZM18.7909 27.8861C19.0202 27.6849 19.1511 27.3949 19.1511 27.0908C19.1511 26.7867 19.0202 26.4967 18.7909 26.2955L15.9747 23.8302C15.6613 23.5589 15.2216 23.4934 14.8427 23.6618C14.4637 23.8302 14.2205 24.2091 14.2205 24.6255V26.0336H10.347C9.76228 26.0336 9.28979 26.506 9.28979 27.0908C9.28979 27.6756 9.76228 28.148 10.347 28.148H14.2205V29.5561C14.2205 29.9725 14.4637 30.3467 14.8427 30.5198C15.2216 30.6929 15.6613 30.6274 15.9747 30.3514L18.7909 27.8861ZM21.9673 27.0908C21.9673 27.3949 22.0983 27.6849 22.3275 27.8861L25.1437 30.3701C25.4572 30.6461 25.8969 30.7116 26.2758 30.5385C26.6547 30.3654 26.898 29.9912 26.898 29.5748V28.148H30.7714C31.3562 28.148 31.8287 27.6756 31.8287 27.0908C31.8287 26.506 31.3562 26.0336 30.7714 26.0336H26.898V24.6255C26.898 24.2091 26.6547 23.8349 26.2758 23.6618C25.8969 23.4887 25.4572 23.5542 25.1437 23.8302L22.3322 26.2955C22.103 26.4967 21.972 26.7867 21.972 27.0908H21.9673Z" fill="#333333"/>
<path d="M16.0008 14.9004C15.6588 15.0421 15.2923 15.115 14.9222 15.115C14.552 15.115 14.1855 15.0421 13.8436 14.9004C13.5016 14.7588 13.1909 14.5512 12.9292 14.2894C12.6675 14.0277 12.4598 13.717 12.3182 13.375C12.1766 13.0331 12.1036 12.6666 12.1036 12.2964C12.1036 11.9263 12.1766 11.5598 12.3182 11.2178C12.4598 10.8759 12.6675 10.5652 12.9292 10.3034C13.1909 10.0417 13.5016 9.8341 13.8436 9.69245C14.1855 9.55081 14.552 9.47791 14.9222 9.47791C15.2923 9.47791 15.6588 9.55081 16.0008 9.69245C16.3427 9.8341 16.6535 10.0417 16.9152 10.3034C17.1769 10.5652 17.3845 10.8759 17.5262 11.2178C17.6678 11.5598 17.7407 11.9263 17.7407 12.2964C17.7407 12.6666 17.6678 13.0331 17.5262 13.375C17.3845 13.717 17.1769 14.0277 16.9152 14.2894C16.6535 14.5512 16.3427 14.7588 16.0008 14.9004Z" fill="#333333"/>
<path d="M10.6979 19.3393C10.6979 17.7861 11.9563 16.5231 13.5141 16.5231H16.335C17.8881 16.5231 19.1511 17.7815 19.1511 19.3393V20.7473C19.1511 21.5239 18.5196 22.1554 17.743 22.1554H12.106C11.3294 22.1554 10.6979 21.5239 10.6979 20.7473V19.3393Z" fill="#333333"/>
</svg>
