<svg width="41" height="41" viewBox="0 0 41 41" fill="none" xmlns="http://www.w3.org/2000/svg">
<rect x="0.559326" y="0.0214844" width="40" height="40" rx="4" fill="#333333" fill-opacity="0.1"/>
<path d="M17.5593 28.0215C15.326 28.0215 13.4343 27.2465 11.8843 25.6965C10.3343 24.1465 9.55933 22.2548 9.55933 20.0215C9.55933 17.7881 10.3343 15.8965 11.8843 14.3465C13.4343 12.7965 15.326 12.0215 17.5593 12.0215C19.7927 12.0215 21.6843 12.7965 23.2343 14.3465C24.7843 15.8965 25.5593 17.7881 25.5593 20.0215C25.5593 22.2548 24.7843 24.1465 23.2343 25.6965C21.6843 27.2465 19.7927 28.0215 17.5593 28.0215ZM17.5593 26.0215C19.226 26.0215 20.6427 25.4381 21.8093 24.2715C22.976 23.1048 23.5593 21.6881 23.5593 20.0215C23.5593 18.3548 22.976 16.9381 21.8093 15.7715C20.6427 14.6048 19.226 14.0215 17.5593 14.0215C15.8927 14.0215 14.476 14.6048 13.3093 15.7715C12.1427 16.9381 11.5593 18.3548 11.5593 20.0215C11.5593 21.6881 12.1427 23.1048 13.3093 24.2715C14.476 25.4381 15.8927 26.0215 17.5593 26.0215ZM17.5593 23.5215C17.8427 23.5215 18.0803 23.4255 18.2723 23.2335C18.4643 23.0415 18.56 22.8041 18.5593 22.5215V18.5215H19.8093C20.026 18.5215 20.205 18.4505 20.3463 18.3085C20.4877 18.1665 20.5587 17.9875 20.5593 17.7715C20.5593 17.5548 20.4883 17.3758 20.3463 17.2345C20.2043 17.0931 20.0253 17.0221 19.8093 17.0215H15.3093C15.0927 17.0215 14.9137 17.0925 14.7723 17.2345C14.631 17.3765 14.56 17.5555 14.5593 17.7715C14.5593 17.9881 14.6303 18.1671 14.7723 18.3085C14.9143 18.4498 15.0933 18.5208 15.3093 18.5215H16.5593V22.5215C16.5593 22.8048 16.6553 23.0425 16.8473 23.2345C17.0393 23.4265 17.2767 23.5221 17.5593 23.5215ZM27.1093 16.0215L26.3093 14.2715L24.5593 13.4715C24.376 13.3881 24.2843 13.2381 24.2843 13.0215C24.2843 12.8048 24.376 12.6548 24.5593 12.5715L26.3093 11.7715L27.1093 10.0215C27.1927 9.83813 27.3427 9.74646 27.5593 9.74646C27.776 9.74646 27.926 9.83813 28.0093 10.0215L28.8093 11.7715L30.5593 12.5715C30.7427 12.6548 30.8343 12.8048 30.8343 13.0215C30.8343 13.2381 30.7427 13.3881 30.5593 13.4715L28.8093 14.2715L28.0093 16.0215C27.926 16.2048 27.776 16.2965 27.5593 16.2965C27.3427 16.2965 27.1927 16.2048 27.1093 16.0215ZM27.1093 30.0215L26.3093 28.2715L24.5593 27.4715C24.376 27.3881 24.2843 27.2381 24.2843 27.0215C24.2843 26.8048 24.376 26.6548 24.5593 26.5715L26.3093 25.7715L27.1093 24.0215C27.1927 23.8381 27.3427 23.7465 27.5593 23.7465C27.776 23.7465 27.926 23.8381 28.0093 24.0215L28.8093 25.7715L30.5593 26.5715C30.7427 26.6548 30.8343 26.8048 30.8343 27.0215C30.8343 27.2381 30.7427 27.3881 30.5593 27.4715L28.8093 28.2715L28.0093 30.0215C27.926 30.2048 27.776 30.2965 27.5593 30.2965C27.3427 30.2965 27.1927 30.2048 27.1093 30.0215Z" fill="#333333"/>
</svg>
