<svg width="41" height="41" viewBox="0 0 41 41" fill="none" xmlns="http://www.w3.org/2000/svg">
<rect x="0.559326" y="0.0214844" width="40" height="40" rx="4" fill="#333333" fill-opacity="0.1"/>
<path d="M21.7593 23.0215C21.5593 23.1215 21.3593 23.1215 21.1593 23.2215C21.0593 23.0215 20.9593 22.8215 20.8593 22.7215C20.0593 22.0215 18.8593 21.9215 17.8593 22.5215C17.0593 23.0215 16.5593 24.0215 16.5593 25.0215C16.5593 25.5215 17.0593 26.0215 17.5593 25.9215C18.0593 25.9215 18.5593 25.4215 18.5593 24.9215C18.5593 24.6215 18.6593 24.4215 18.8593 24.2215C18.9593 24.2215 19.0593 24.1215 19.1593 24.1215C18.8593 24.7215 19.0593 25.4215 19.6593 25.8215C19.8593 25.9215 19.9593 25.9215 20.1593 25.9215C20.5593 25.9215 20.9593 25.7215 21.2593 25.4215C21.3593 25.3215 21.5593 25.2215 21.7593 25.1215C21.8593 25.5215 22.2593 25.9215 22.7593 25.9215H23.5593C24.1593 25.9215 24.5593 25.5215 24.5593 24.9215C24.5593 24.4215 24.1593 24.0215 23.6593 23.9215C23.5593 23.7215 23.5593 23.6215 23.3593 23.4215C23.0593 23.1215 22.3593 22.9215 21.7593 23.0215ZM28.5593 16.9215C28.5593 16.8215 28.5593 16.7215 28.4593 16.6215V16.5215C28.4593 16.4215 28.3593 16.3215 28.2593 16.2215L22.2593 10.2215C22.1593 10.1215 22.0593 10.1215 21.9593 10.0215H21.8593C21.7593 10.0215 21.6593 10.0215 21.5593 9.92151H15.5593C13.8593 10.0215 12.5593 11.3215 12.5593 13.0215V27.0215C12.5593 28.7215 13.8593 30.0215 15.5593 30.0215H25.5593C27.2593 30.0215 28.5593 28.7215 28.5593 27.0215V16.9215C28.5593 17.0215 28.5593 17.0215 28.5593 16.9215ZM22.5593 13.4215L25.1593 16.0215H23.5593C22.9593 16.0215 22.5593 15.6215 22.5593 15.0215V13.4215ZM26.5593 27.0215C26.5593 27.6215 26.1593 28.0215 25.5593 28.0215H15.5593C14.9593 28.0215 14.5593 27.6215 14.5593 27.0215V13.0215C14.5593 12.4215 14.9593 12.0215 15.5593 12.0215H20.5593V15.0215C20.5593 16.7215 21.8593 18.0215 23.5593 18.0215H26.5593V27.0215ZM17.5593 18.0215H18.5593C19.1593 18.0215 19.5593 17.6215 19.5593 17.0215C19.5593 16.4215 19.1593 16.0215 18.5593 16.0215H17.5593C16.9593 16.0215 16.5593 16.4215 16.5593 17.0215C16.5593 17.6215 16.9593 18.0215 17.5593 18.0215Z" fill="#333333"/>
</svg>
