<svg width="41" height="41" viewBox="0 0 41 41" fill="none" xmlns="http://www.w3.org/2000/svg">
<rect x="0.559326" y="0.0214844" width="40" height="40" rx="4" fill="#333333" fill-opacity="0.1"/>
<path d="M25.1443 21.5455C25.4083 21.0985 25.5593 20.5775 25.5593 20.0215C25.5593 19.4655 25.4083 18.9445 25.1443 18.4975L26.3393 17.3015C26.4718 17.1593 26.5439 16.9713 26.5405 16.777C26.5371 16.5827 26.4584 16.3973 26.3209 16.2599C26.1835 16.1224 25.9981 16.0437 25.8038 16.0403C25.6095 16.0369 25.4215 16.109 25.2793 16.2415L24.0833 17.4365C23.6218 17.1639 23.0954 17.0205 22.5593 17.0215C22.0033 17.0215 21.4823 17.1725 21.0353 17.4365L19.8393 16.2415C19.7707 16.1678 19.6879 16.1087 19.5959 16.0677C19.5039 16.0267 19.4046 16.0047 19.3038 16.0029C19.2031 16.0011 19.1031 16.0196 19.0097 16.0574C18.9163 16.0951 18.8315 16.1512 18.7603 16.2224C18.6891 16.2937 18.6329 16.3785 18.5952 16.4719C18.5575 16.5653 18.539 16.6653 18.5407 16.766C18.5425 16.8667 18.5646 16.966 18.6055 17.058C18.6465 17.15 18.7056 17.2328 18.7793 17.3015L19.9743 18.4975C19.7017 18.959 19.5583 19.4854 19.5593 20.0215C19.5593 20.5775 19.7103 21.0985 19.9743 21.5455L18.7793 22.7415C18.7056 22.8101 18.6465 22.8929 18.6055 22.9849C18.5646 23.0769 18.5425 23.1763 18.5407 23.277C18.539 23.3777 18.5575 23.4777 18.5952 23.5711C18.6329 23.6645 18.6891 23.7493 18.7603 23.8205C18.8315 23.8917 18.9163 23.9479 19.0097 23.9856C19.1031 24.0233 19.2031 24.0419 19.3038 24.0401C19.4046 24.0383 19.5039 24.0163 19.5959 23.9753C19.6879 23.9343 19.7707 23.8752 19.8393 23.8015L21.0353 22.6065C21.4823 22.8705 22.0033 23.0215 22.5593 23.0215C23.1153 23.0215 23.6363 22.8705 24.0833 22.6065L25.2793 23.8015C25.348 23.8752 25.4308 23.9343 25.5228 23.9753C25.6148 24.0163 25.7141 24.0383 25.8148 24.0401C25.9155 24.0419 26.0155 24.0233 26.1089 23.9856C26.2023 23.9479 26.2871 23.8917 26.3584 23.8205C26.4296 23.7493 26.4857 23.6645 26.5234 23.5711C26.5612 23.4777 26.5797 23.3777 26.5779 23.277C26.5761 23.1763 26.5541 23.0769 26.5131 22.9849C26.4721 22.8929 26.413 22.8101 26.3393 22.7415L25.1443 21.5455ZM22.5593 21.5215C22.1615 21.5215 21.78 21.3634 21.4987 21.0821C21.2174 20.8008 21.0593 20.4193 21.0593 20.0215C21.0593 19.6237 21.2174 19.2421 21.4987 18.9608C21.78 18.6795 22.1615 18.5215 22.5593 18.5215C22.9572 18.5215 23.3387 18.6795 23.62 18.9608C23.9013 19.2421 24.0593 19.6237 24.0593 20.0215C24.0593 20.4193 23.9013 20.8008 23.62 21.0821C23.3387 21.3634 22.9572 21.5215 22.5593 21.5215ZM15.0593 15.7715C15.0593 15.5726 14.9803 15.3818 14.8397 15.2412C14.699 15.1005 14.5082 15.0215 14.3093 15.0215C14.1104 15.0215 13.9196 15.1005 13.779 15.2412C13.6383 15.3818 13.5593 15.5726 13.5593 15.7715V24.2715C13.5593 24.4704 13.6383 24.6612 13.779 24.8018C13.9196 24.9425 14.1104 25.0215 14.3093 25.0215C14.5082 25.0215 14.699 24.9425 14.8397 24.8018C14.9803 24.6612 15.0593 24.4704 15.0593 24.2715V15.7715ZM10.5593 15.7715C10.5593 14.7769 10.9544 13.8231 11.6577 13.1198C12.3609 12.4166 13.3148 12.0215 14.3093 12.0215H26.8093C27.8039 12.0215 28.7577 12.4166 29.461 13.1198C30.1642 13.8231 30.5593 14.7769 30.5593 15.7715V24.2715C30.5593 25.266 30.1642 26.2199 29.461 26.9231C28.7577 27.6264 27.8039 28.0215 26.8093 28.0215H14.3093C13.3148 28.0215 12.3609 27.6264 11.6577 26.9231C10.9544 26.2199 10.5593 25.266 10.5593 24.2715V15.7715ZM14.3093 13.5215C13.7126 13.5215 13.1403 13.7585 12.7183 14.1805C12.2964 14.6025 12.0593 15.1747 12.0593 15.7715V24.2715C12.0593 24.8682 12.2964 25.4405 12.7183 25.8625C13.1403 26.2844 13.7126 26.5215 14.3093 26.5215H26.8093C27.4061 26.5215 27.9784 26.2844 28.4003 25.8625C28.8223 25.4405 29.0593 24.8682 29.0593 24.2715V15.7715C29.0593 15.1747 28.8223 14.6025 28.4003 14.1805C27.9784 13.7585 27.4061 13.5215 26.8093 13.5215H14.3093Z" fill="#333333"/>
</svg>
