<svg width="18" height="18" viewBox="0 0 18 18" fill="none" xmlns="http://www.w3.org/2000/svg">
<path d="M16.8873 15.7376C16.9628 15.8131 17.0227 15.9027 17.0635 16.0014C17.1044 16.1 17.1254 16.2057 17.1254 16.3125C17.1254 16.4192 17.1044 16.5249 17.0635 16.6236C17.0227 16.7222 16.9628 16.8118 16.8873 16.8873C16.8118 16.9628 16.7222 17.0227 16.6236 17.0635C16.5249 17.1044 16.4192 17.1254 16.3125 17.1254C16.2057 17.1254 16.1 17.1044 16.0014 17.0635C15.9027 17.0227 15.8131 16.9628 15.7376 16.8873L8.99996 10.1486L2.26231 16.8873C2.10985 17.0398 1.90307 17.1254 1.68746 17.1254C1.47186 17.1254 1.26508 17.0398 1.11262 16.8873C0.960162 16.7348 0.874512 16.5281 0.874512 16.3125C0.874512 16.0969 0.960162 15.8901 1.11262 15.7376L7.85129 8.99996L1.11262 2.26231C0.960162 2.10985 0.874512 1.90307 0.874512 1.68746C0.874512 1.47186 0.960162 1.26508 1.11262 1.11262C1.26508 0.960162 1.47186 0.874512 1.68746 0.874512C1.90307 0.874512 2.10985 0.960162 2.26231 1.11262L8.99996 7.85129L15.7376 1.11262C15.8901 0.960162 16.0969 0.874512 16.3125 0.874512C16.5281 0.874512 16.7348 0.960162 16.8873 1.11262C17.0398 1.26508 17.1254 1.47186 17.1254 1.68746C17.1254 1.90307 17.0398 2.10985 16.8873 2.26231L10.1486 8.99996L16.8873 15.7376Z" fill="white"/>
</svg>
