<svg width="110" height="13" viewBox="0 0 110 13" fill="none" xmlns="http://www.w3.org/2000/svg">
<path d="M4.992 12.208C4.37333 12.208 3.77867 12.112 3.208 11.92C2.64267 11.7227 2.14667 11.4427 1.72 11.08C1.29333 10.712 0.986667 10.272 0.8 9.76L2.632 9.088C2.70667 9.30133 2.85867 9.496 3.088 9.672C3.31733 9.848 3.59733 9.98933 3.928 10.096C4.25867 10.2027 4.61333 10.256 4.992 10.256C5.38133 10.256 5.744 10.1973 6.08 10.08C6.42133 9.95733 6.696 9.78933 6.904 9.576C7.112 9.35733 7.216 9.104 7.216 8.816C7.216 8.52267 7.10667 8.28267 6.888 8.096C6.66933 7.904 6.38933 7.752 6.048 7.64C5.70667 7.528 5.35467 7.44267 4.992 7.384C4.19733 7.26133 3.48533 7.072 2.856 6.816C2.22667 6.56 1.728 6.20533 1.36 5.752C0.997333 5.29867 0.816 4.712 0.816 3.992C0.816 3.31467 1.01067 2.72267 1.4 2.216C1.78933 1.70933 2.30133 1.31467 2.936 1.032C3.57067 0.749333 4.256 0.608 4.992 0.608C5.60533 0.608 6.19733 0.704 6.768 0.896C7.33867 1.088 7.83733 1.368 8.264 1.736C8.696 2.104 9.00533 2.54667 9.192 3.064L7.352 3.728C7.27733 3.51467 7.12533 3.32 6.896 3.144C6.66667 2.968 6.38667 2.82933 6.056 2.728C5.72533 2.62133 5.37067 2.568 4.992 2.568C4.61333 2.56267 4.25333 2.624 3.912 2.752C3.576 2.87467 3.30133 3.04267 3.088 3.256C2.87467 3.46933 2.768 3.71467 2.768 3.992C2.768 4.34933 2.86667 4.61867 3.064 4.8C3.26667 4.98133 3.536 5.11467 3.872 5.2C4.208 5.28 4.58133 5.35467 4.992 5.424C5.73867 5.54133 6.42933 5.73867 7.064 6.016C7.69867 6.29333 8.208 6.664 8.592 7.128C8.976 7.58667 9.168 8.14933 9.168 8.816C9.168 9.49333 8.976 10.088 8.592 10.6C8.208 11.1067 7.69867 11.5013 7.064 11.784C6.42933 12.0667 5.73867 12.208 4.992 12.208ZM17.0324 12.208C16.1364 12.208 15.3497 11.9893 14.6724 11.552C14.0004 11.1147 13.4777 10.528 13.1044 9.792C12.731 9.05067 12.5444 8.22933 12.5444 7.328V0.799999H14.4964V7.328C14.4964 7.86133 14.595 8.352 14.7924 8.8C14.995 9.24267 15.283 9.59733 15.6564 9.864C16.035 10.1253 16.4937 10.256 17.0324 10.256C17.5764 10.256 18.035 10.1253 18.4084 9.864C18.7817 9.59733 19.0644 9.24267 19.2564 8.8C19.4537 8.352 19.5524 7.86133 19.5524 7.328V0.799999H21.5044V7.328C21.5044 8.00533 21.3977 8.64 21.1844 9.232C20.971 9.81867 20.667 10.336 20.2724 10.784C19.8777 11.232 19.4057 11.5813 18.8564 11.832C18.3124 12.0827 17.7044 12.208 17.0324 12.208ZM29.0514 12.208C28.4327 12.208 27.838 12.112 27.2674 11.92C26.702 11.7227 26.206 11.4427 25.7794 11.08C25.3527 10.712 25.046 10.272 24.8594 9.76L26.6914 9.088C26.766 9.30133 26.918 9.496 27.1474 9.672C27.3767 9.848 27.6567 9.98933 27.9874 10.096C28.318 10.2027 28.6727 10.256 29.0514 10.256C29.4407 10.256 29.8034 10.1973 30.1394 10.08C30.4807 9.95733 30.7554 9.78933 30.9634 9.576C31.1714 9.35733 31.2754 9.104 31.2754 8.816C31.2754 8.52267 31.166 8.28267 30.9474 8.096C30.7287 7.904 30.4487 7.752 30.1074 7.64C29.766 7.528 29.414 7.44267 29.0514 7.384C28.2567 7.26133 27.5447 7.072 26.9154 6.816C26.286 6.56 25.7874 6.20533 25.4194 5.752C25.0567 5.29867 24.8754 4.712 24.8754 3.992C24.8754 3.31467 25.07 2.72267 25.4594 2.216C25.8487 1.70933 26.3607 1.31467 26.9954 1.032C27.63 0.749333 28.3154 0.608 29.0514 0.608C29.6647 0.608 30.2567 0.704 30.8274 0.896C31.398 1.088 31.8967 1.368 32.3234 1.736C32.7554 2.104 33.0647 2.54667 33.2514 3.064L31.4114 3.728C31.3367 3.51467 31.1847 3.32 30.9554 3.144C30.726 2.968 30.446 2.82933 30.1154 2.728C29.7847 2.62133 29.43 2.568 29.0514 2.568C28.6727 2.56267 28.3127 2.624 27.9714 2.752C27.6354 2.87467 27.3607 3.04267 27.1474 3.256C26.934 3.46933 26.8274 3.71467 26.8274 3.992C26.8274 4.34933 26.926 4.61867 27.1234 4.8C27.326 4.98133 27.5954 5.11467 27.9314 5.2C28.2674 5.28 28.6407 5.35467 29.0514 5.424C29.798 5.54133 30.4887 5.73867 31.1234 6.016C31.758 6.29333 32.2674 6.664 32.6514 7.128C33.0354 7.58667 33.2274 8.14933 33.2274 8.816C33.2274 9.49333 33.0354 10.088 32.6514 10.6C32.2674 11.1067 31.758 11.5013 31.1234 11.784C30.4887 12.0667 29.798 12.208 29.0514 12.208ZM44.7244 0.799999V2.752H41.3004V12H39.3484V2.752H35.9244V0.799999H44.7244ZM50.1353 0.799999H52.3833L56.4553 12H54.3833L53.6633 10.016H48.8633L48.1433 12H46.0713L50.1353 0.799999ZM49.5753 8.064H52.9433L51.2553 3.448L49.5753 8.064ZM59.6375 12V0.799999H61.5895V12H59.6375ZM65.3569 12V0.799999H67.4689L72.1969 8.472V0.799999H74.1489V12H72.0449L67.3089 4.328V12H65.3569Z" fill="white"/>
<path d="M77.9156 12V0.799999H79.8676V12H77.9156Z" fill="#32A27A"/>
<path d="M87.379 0.799999H89.627L93.699 12H91.627L90.907 10.016H86.107L85.387 12H83.315L87.379 0.799999ZM86.819 8.064H90.187L88.499 3.448L86.819 8.064ZM96.2506 12L98.4266 0.799999H100.043L102.771 7.976L105.499 0.799999H107.115L109.291 12H107.299L105.955 5.072L103.435 11.744H102.099L99.5786 5.072L98.2426 12H96.2506Z" fill="#79ECA5"/>
</svg>
