<svg width="12" height="19" viewBox="0 0 12 19" fill="none" xmlns="http://www.w3.org/2000/svg">
<path fill-rule="evenodd" clip-rule="evenodd" d="M2.55101 6.20634L9.13834 0.71875L11.1667 3.15275L4.58093 8.64193C4.40259 8.79065 4.25912 8.97674 4.16066 9.18704C4.06221 9.39735 4.01117 9.62672 4.01117 9.85893C4.01117 10.0911 4.06221 10.3205 4.16066 10.5308C4.25912 10.7411 4.40259 10.9272 4.58093 11.0759L11.1667 16.5651L9.13834 18.9991L2.55101 13.5115C2.01545 13.0654 1.58455 12.5069 1.28884 11.8757C0.993129 11.2445 0.839844 10.556 0.839844 9.85893C0.839844 9.16188 0.993129 8.47337 1.28884 7.84216C1.58455 7.21095 2.01545 6.65249 2.55101 6.20634Z" fill="#333333"/>
</svg>
