<svg width="12" height="19" viewBox="0 0 12 19" fill="none" xmlns="http://www.w3.org/2000/svg">
<path fill-rule="evenodd" clip-rule="evenodd" d="M9.44899 6.20634L2.86166 0.71875L0.833324 3.15275L7.41907 8.64193C7.59741 8.79065 7.74088 8.97674 7.83934 9.18704C7.93779 9.39735 7.98883 9.62672 7.98883 9.85893C7.98883 10.0911 7.93779 10.3205 7.83934 10.5308C7.74088 10.7411 7.59741 10.9272 7.41907 11.0759L0.833324 16.5651L2.86166 18.9991L9.44899 13.5115C9.98455 13.0654 10.4154 12.5069 10.7112 11.8757C11.0069 11.2445 11.1602 10.556 11.1602 9.85893C11.1602 9.16188 11.0069 8.47337 10.7112 7.84216C10.4154 7.21095 9.98455 6.65249 9.44899 6.20634Z" fill="#333333"/>
</svg>
