<svg width="401" height="401" viewBox="0 0 401 401" fill="none" xmlns="http://www.w3.org/2000/svg">
<path d="M379.55 200.265C379.55 298.993 299.576 379.003 200.955 379.003C102.334 379.003 22.3601 298.993 22.3601 200.265C22.3601 101.537 102.334 21.527 200.955 21.527C299.576 21.527 379.55 101.537 379.55 200.265Z" fill="#072C2A" stroke="#01413E" stroke-width="41.9078"/>
<path d="M379.55 200.265C379.55 298.993 299.576 379.003 200.955 379.003C102.334 379.003 22.3601 298.993 22.3601 200.265C22.3601 101.537 102.334 21.5271 200.955 21.5271C299.576 21.5271 379.55 101.537 379.55 200.265Z" fill="#072C2A" stroke="#01413E" stroke-width="41.9078"/>
<path d="M290.922 200.593C290.922 251.343 249.815 292.463 199.131 292.463C148.447 292.463 107.34 251.343 107.34 200.593C107.34 149.844 148.447 108.724 199.131 108.724C249.815 108.724 290.922 149.844 290.922 200.593Z" fill="black" stroke="#002321" stroke-width="33.9253"/>
<path d="M369.921 209.443C369.95 208.209 370.169 207.027 370.578 205.898C370.998 204.779 371.579 203.802 372.323 202.968C373.077 202.133 373.969 201.542 374.999 201.193L376.255 204.879C375.826 205.018 375.43 205.313 375.069 205.762C374.707 206.211 374.412 206.764 374.184 207.418C373.956 208.073 373.833 208.778 373.816 209.534C373.798 210.31 373.898 211.037 374.116 211.712C374.345 212.399 374.668 212.955 375.084 213.38C375.511 213.805 376.011 214.024 376.586 214.037C377.171 214.051 377.655 213.844 378.037 213.416C378.43 212.989 378.747 212.437 378.986 211.761C379.225 211.086 379.412 210.387 379.545 209.667C379.827 208.087 380.237 206.675 380.777 205.431C381.317 204.188 382.048 203.209 382.969 202.496C383.89 201.793 385.069 201.459 386.506 201.492C387.857 201.523 389.029 201.939 390.022 202.739C391.015 203.539 391.778 204.579 392.313 205.858C392.848 207.138 393.098 208.511 393.064 209.98C393.036 211.204 392.817 212.38 392.407 213.51C391.998 214.639 391.416 215.621 390.662 216.456C389.908 217.3 389.011 217.897 387.97 218.246L386.73 214.544C387.159 214.405 387.555 214.111 387.917 213.661C388.278 213.212 388.568 212.66 388.785 212.005C389.013 211.35 389.136 210.645 389.154 209.889C389.182 209.134 389.076 208.413 388.836 207.726C388.607 207.05 388.285 206.494 387.869 206.059C387.453 205.623 386.969 205.399 386.415 205.386C385.702 205.37 385.161 205.554 384.79 205.94C384.419 206.335 384.14 206.867 383.954 207.533C383.779 208.2 383.613 208.941 383.456 209.757C383.187 211.241 382.762 212.61 382.179 213.864C381.596 215.117 380.833 216.116 379.89 216.861C378.957 217.606 377.826 217.963 376.496 217.932C375.144 217.9 373.967 217.49 372.963 216.7C371.97 215.911 371.206 214.876 370.671 213.597C370.137 212.318 369.887 210.933 369.921 209.443Z" fill="white"/>
<path d="M367.548 230.241C367.802 228.471 368.456 226.979 369.512 225.765C370.566 224.562 371.873 223.696 373.433 223.167C375.003 222.64 376.678 222.504 378.459 222.76L391.354 224.611L390.801 228.467L377.906 226.616C376.852 226.464 375.855 226.52 374.914 226.783C373.982 227.058 373.2 227.526 372.568 228.188C371.944 228.862 371.556 229.731 371.404 230.795C371.25 231.869 371.378 232.812 371.788 233.624C372.209 234.437 372.83 235.096 373.65 235.601C374.479 236.118 375.42 236.452 376.474 236.603L389.369 238.455L388.816 242.311L375.921 240.459C374.583 240.267 373.359 239.876 372.25 239.287C371.152 238.699 370.216 237.952 369.443 237.045C368.67 236.139 368.114 235.107 367.774 233.951C367.433 232.805 367.358 231.569 367.548 230.241Z" fill="white"/>
<path d="M362.477 250.933C362.809 249.744 363.312 248.652 363.987 247.658C364.67 246.678 365.474 245.875 366.399 245.249C367.336 244.627 368.346 244.273 369.43 244.189L369.739 248.072C369.289 248.101 368.833 248.288 368.372 248.635C367.911 248.981 367.489 249.443 367.107 250.022C366.724 250.6 366.432 251.253 366.229 251.981C366.02 252.729 365.938 253.458 365.984 254.167C366.036 254.889 366.212 255.507 366.51 256.022C366.819 256.539 367.25 256.875 367.804 257.029C368.368 257.187 368.888 257.105 369.364 256.785C369.85 256.468 370.292 256.012 370.691 255.416C371.089 254.82 371.442 254.189 371.749 253.523C372.411 252.061 373.156 250.795 373.986 249.722C374.815 248.65 375.764 247.882 376.833 247.418C377.899 246.964 379.124 246.931 380.507 247.317C381.809 247.681 382.843 248.373 383.608 249.393C384.373 250.414 384.857 251.61 385.06 252.982C385.263 254.353 385.167 255.747 384.772 257.161C384.444 258.34 383.942 259.427 383.267 260.421C382.592 261.414 381.786 262.223 380.85 262.845C379.911 263.478 378.894 263.835 377.8 263.916L377.51 260.023C377.96 259.994 378.416 259.806 378.877 259.46C379.338 259.113 379.755 258.649 380.127 258.068C380.51 257.49 380.802 256.837 381.005 256.109C381.219 255.384 381.294 254.659 381.231 253.934C381.175 253.222 380.999 252.604 380.704 252.08C380.408 251.555 379.994 251.218 379.461 251.069C378.774 250.877 378.203 250.923 377.749 251.204C377.292 251.497 376.891 251.943 376.547 252.543C376.213 253.146 375.869 253.823 375.516 254.576C374.89 255.948 374.14 257.169 373.267 258.24C372.394 259.312 371.408 260.092 370.31 260.581C369.223 261.072 368.039 261.139 366.757 260.781C365.455 260.418 364.415 259.729 363.637 258.716C362.869 257.706 362.384 256.515 362.181 255.144C361.978 253.772 362.077 252.368 362.477 250.933Z" fill="white"/>
<path d="M372.905 286.793L369.307 285.301L371.92 278.987L354.871 271.921L356.36 268.322L373.409 275.388L376.023 269.075L379.621 270.566L372.905 286.793Z" fill="white"/>
<path d="M366.023 298.353L363.814 302.257L340.366 298.312L342.402 294.714L346.555 295.415L351.271 287.078L348.534 283.875L350.57 280.276L366.023 298.353ZM353.961 290.234L350.651 296.084L360.325 297.693L353.961 290.234Z" fill="white"/>
<path d="M336.875 301.726L354.8 315.077L352.475 318.203L334.55 304.852L336.875 301.726Z" fill="white"/>
<path d="M331.131 309.03L348.036 323.651L345.282 326.841L327.534 323.966L339.115 333.982L336.569 336.93L319.663 322.309L322.408 319.131L340.165 321.994L328.585 311.978L331.131 309.03Z" fill="white"/>
<path d="M315.186 325.661L330.28 342.145L327.409 344.777L312.315 328.294L315.186 325.661Z" fill="#D8F4E7"/>
<path d="M316.118 353.95L312.589 356.721L292.406 344.152L295.658 341.598L299.231 343.826L306.765 337.91L305.452 333.907L308.704 331.353L316.118 353.95ZM308.051 341.853L302.765 346.004L311.099 351.172L308.051 341.853Z" fill="#79ECA5"/>
<path d="M288.972 345.41L296.279 366.977L293.479 368.577L281.655 358.84L284.026 373.979L281.226 375.579L266.378 358.321L269.83 356.349L279.011 367.026L276.778 352.967L279.093 351.644L290.058 360.713L285.521 347.382L288.972 345.41Z" fill="#79ECA5"/>
<path d="M100.262 336.394C101.276 337.099 102.141 337.933 102.858 338.898C103.56 339.865 104.054 340.889 104.341 341.97C104.622 343.059 104.624 344.13 104.347 345.182L100.58 344.197C100.701 343.762 100.673 343.27 100.497 342.72C100.322 342.171 100.024 341.62 99.6032 341.069C99.1826 340.517 98.6621 340.026 98.0415 339.595C97.4035 339.151 96.7424 338.834 96.0583 338.644C95.3594 338.457 94.7181 338.419 94.1346 338.532C93.5449 338.654 93.0863 338.951 92.7586 339.423C92.4249 339.904 92.331 340.422 92.477 340.977C92.6169 341.541 92.9028 342.109 93.3348 342.681C93.7667 343.253 94.2465 343.794 94.7741 344.303C95.9368 345.409 96.8882 346.531 97.6283 347.667C98.3684 348.804 98.7821 349.953 98.8694 351.115C98.948 352.271 98.5777 353.44 97.7586 354.62C96.988 355.731 95.9955 356.48 94.781 356.867C93.5665 357.254 92.2785 357.318 90.9168 357.059C89.5551 356.8 88.2712 356.251 87.0651 355.413C86.06 354.714 85.199 353.883 84.4823 352.918C83.7655 351.954 83.2669 350.927 82.9863 349.837C82.697 348.742 82.6937 347.664 82.9764 346.603L86.7472 347.61C86.6268 348.045 86.6544 348.537 86.83 349.087C87.0056 349.636 87.3067 350.183 87.7333 350.725C88.1539 351.277 88.6744 351.768 89.295 352.199C89.9094 352.639 90.5692 352.949 91.2742 353.128C91.9644 353.309 92.6056 353.347 93.1979 353.24C93.7902 353.133 94.2442 352.852 94.5597 352.397C94.9662 351.812 95.1109 351.258 94.9939 350.736C94.868 350.207 94.5783 349.682 94.1248 349.16C93.6652 348.646 93.1383 348.098 92.5442 347.517C91.4541 346.474 90.5467 345.364 89.8222 344.187C89.0976 343.009 88.6846 341.821 88.5832 340.623C88.4758 339.434 88.8013 338.293 89.5597 337.2C90.3303 336.089 91.3215 335.333 92.5333 334.931C93.739 334.538 95.0227 334.47 96.3844 334.73C97.7461 334.989 99.0387 335.544 100.262 336.394Z" fill="white"/>
<path d="M84.0975 322.787C85.4327 323.976 86.3151 325.346 86.7445 326.897C87.1659 328.441 87.1668 330.01 86.7471 331.603C86.3203 333.204 85.5093 334.676 84.3139 336.02L75.6566 345.755L72.7476 343.164L81.4049 333.43C82.1122 332.634 82.6159 331.772 82.916 330.842C83.201 329.913 83.2422 329.001 83.0395 328.108C82.8217 327.216 82.3115 326.412 81.5087 325.697C80.698 324.975 79.8412 324.562 78.9383 324.456C78.0283 324.358 77.1367 324.512 76.2635 324.917C75.3753 325.323 74.5775 325.924 73.8702 326.719L65.2129 336.454L62.3039 333.863L70.9612 324.128C71.8595 323.118 72.8602 322.313 73.9632 321.714C75.0591 321.122 76.1983 320.754 77.3805 320.61C78.5628 320.466 79.7295 320.571 80.8806 320.926C82.0237 321.275 83.096 321.895 84.0975 322.787Z" fill="white"/>
<path d="M69.7666 307.254C70.577 308.185 71.2115 309.207 71.6701 310.317C72.1136 311.427 72.342 312.541 72.3552 313.659C72.3604 314.784 72.1 315.822 71.5741 316.774L68.1634 314.897C68.3866 314.505 68.4804 314.021 68.4448 313.445C68.4092 312.869 68.2551 312.262 67.9825 311.625C67.7099 310.987 67.3256 310.383 66.8296 309.813C66.3196 309.227 65.7563 308.758 65.1396 308.405C64.508 308.052 63.8954 307.859 63.302 307.826C62.7005 307.799 62.1831 307.975 61.7498 308.352C61.3084 308.737 61.0905 309.216 61.0961 309.79C61.0936 310.371 61.2316 310.992 61.5102 311.652C61.7888 312.313 62.1215 312.955 62.5082 313.578C63.3645 314.935 64.0123 316.255 64.4514 317.538C64.8906 318.821 65.0101 320.037 64.81 321.185C64.6029 322.326 63.9577 323.368 62.8744 324.312C61.8552 325.2 60.7095 325.683 59.4372 325.761C58.1649 325.839 56.9004 325.585 55.6438 325C54.3871 324.415 53.2768 323.569 52.3127 322.461C51.5094 321.537 50.8784 320.52 50.4198 319.409C49.9612 318.298 49.7293 317.18 49.7242 316.056C49.712 314.923 49.9729 313.877 50.5068 312.917L53.916 314.817C53.6928 315.209 53.599 315.693 53.6346 316.269C53.6702 316.845 53.8283 317.449 54.1089 318.079C54.3815 318.717 54.7659 319.321 55.2618 319.891C55.7498 320.468 56.3136 320.93 56.9533 321.276C57.578 321.621 58.1906 321.814 58.791 321.856C59.3914 321.897 59.9003 321.736 60.3176 321.373C60.8552 320.904 61.1312 320.403 61.1456 319.868C61.153 319.325 61.0008 318.745 60.6891 318.127C60.3694 317.516 59.9927 316.856 59.5591 316.147C58.7576 314.869 58.1499 313.571 57.7359 312.252C57.3218 310.932 57.2124 309.68 57.4076 308.493C57.5948 307.314 58.1899 306.287 59.193 305.413C60.2121 304.525 61.3584 304.035 62.6317 303.942C63.8971 303.856 65.158 304.105 66.4147 304.69C67.6713 305.275 68.7886 306.13 69.7666 307.254Z" fill="white"/>
<path d="M34.0702 296.193L37.2934 294.005L41.127 299.661L56.3972 289.297L58.5827 292.521L43.3125 302.886L47.1461 308.542L43.923 310.73L34.0702 296.193Z" fill="white"/>
<path d="M28.0992 283.867L26.0654 279.869L42.2975 262.481L44.1721 266.167L41.2955 269.244L45.6381 277.782L49.8175 277.266L51.6921 280.952L28.0992 283.867ZM41.5229 278.284L38.4758 272.293L31.7947 279.477L41.5229 278.284Z" fill="white"/>
<path d="M41.4592 257.984L20.4477 265.604L19.1212 261.941L40.1327 254.321L41.4592 257.984Z" fill="white"/>
<path d="M38.5001 249.122L16.9735 255.135L15.841 251.076L28.0516 237.868L13.3058 241.987L12.2591 238.235L33.7858 232.222L34.914 236.266L22.7077 249.489L37.4534 245.37L38.5001 249.122Z" fill="white"/>
<path d="M33.5081 227.092L11.4356 230.608L10.8236 226.761L32.8962 223.245L33.5081 227.092Z" fill="#D8F4E7"/>
<path d="M9.38262 212.207L9.01989 207.736L30.6403 197.827L30.9746 201.948L27.1445 203.701L27.919 213.248L31.9815 214.36L32.3158 218.481L9.38262 212.207ZM23.9215 212.147L23.378 205.448L14.4689 209.552L23.9215 212.147Z" fill="#79ECA5"/>
<path d="M31.4554 193.854L9.43714 188.055L9.64836 184.837L24.2946 180.343L10.3615 173.972L10.5727 170.754L33.1598 167.887L32.8995 171.853L18.928 173.623L31.8846 179.514L31.71 182.175L18.0946 186.32L31.7158 189.887L31.4554 193.854Z" fill="#79ECA5"/>
<path d="M132.441 45.3742C131.327 45.9057 130.173 46.2438 128.981 46.3882C127.793 46.5184 126.659 46.4402 125.579 46.1534C124.495 45.857 123.565 45.3278 122.79 44.5657L125.513 41.7809C125.83 42.1011 126.271 42.3212 126.835 42.4412C127.399 42.5613 128.025 42.5753 128.712 42.4834C129.399 42.3914 130.084 42.1827 130.766 41.8574C131.467 41.5228 132.07 41.1055 132.574 40.6054C133.084 40.0911 133.434 39.5525 133.626 38.9894C133.813 38.4167 133.783 37.8709 133.536 37.3521C133.284 36.8236 132.881 36.4851 132.327 36.3367C131.768 36.1787 131.133 36.1454 130.423 36.237C129.712 36.3285 129.004 36.4772 128.301 36.6831C126.764 37.1449 125.319 37.4156 123.966 37.4951C122.613 37.5746 121.41 37.3641 120.358 36.8636C119.316 36.3585 118.486 35.4573 117.868 34.1602C117.287 32.9399 117.129 31.706 117.396 30.4587C117.662 29.2113 118.246 28.0603 119.146 27.0057C120.047 25.9511 121.16 25.1076 122.485 24.4752C123.59 23.9482 124.739 23.6125 125.931 23.4681C127.124 23.3237 128.263 23.3996 129.347 23.696C130.441 23.9878 131.378 24.5196 132.158 25.2912L129.414 28.0685C129.096 27.7483 128.655 27.5282 128.091 27.4082C127.527 27.2881 126.904 27.2789 126.221 27.3805C125.534 27.4724 124.85 27.6811 124.168 28.0064C123.481 28.3222 122.885 28.742 122.38 29.2659C121.88 29.7756 121.53 30.3143 121.329 30.882C121.127 31.4496 121.146 31.9833 121.384 32.4829C121.691 33.1267 122.099 33.5272 122.61 33.6843C123.131 33.8369 123.731 33.8457 124.409 33.7107C125.083 33.5661 125.819 33.3798 126.619 33.1519C128.064 32.7217 129.478 32.4838 130.859 32.4381C132.24 32.3924 133.475 32.6226 134.565 33.1286C135.651 33.625 136.479 34.4737 137.051 35.6748C137.633 36.8951 137.797 38.1315 137.545 39.3839C137.288 40.6266 136.71 41.7753 135.809 42.8299C134.909 43.8845 133.786 44.7326 132.441 45.3742Z" fill="white"/>
<path d="M152.447 37.9592C150.75 38.5243 149.123 38.6064 147.565 38.2055C146.017 37.8012 144.658 37.02 143.488 35.8618C142.314 34.6935 141.443 33.256 140.875 31.5492L136.763 19.1879L140.459 17.9567L144.571 30.318C144.907 31.3279 145.403 32.1948 146.059 32.9187C146.721 33.6291 147.49 34.119 148.365 34.3885C149.246 34.6445 150.197 34.6027 151.217 34.2629C152.247 33.9198 153.033 33.3831 153.575 32.6527C154.114 31.9123 154.426 31.0624 154.511 30.1031C154.602 29.1303 154.48 28.139 154.144 27.1291L150.032 14.7677L153.727 13.5366L157.839 25.8979C158.266 27.1805 158.464 28.4495 158.433 29.7051C158.399 30.9505 158.149 32.1219 157.684 33.2192C157.219 34.3164 156.545 35.2756 155.663 36.0967C154.791 36.9145 153.719 37.5353 152.447 37.9592Z" fill="white"/>
<path d="M173.054 33.2078C171.842 33.4439 170.64 33.4828 169.449 33.3245C168.267 33.1537 167.189 32.7945 166.215 32.2469C165.239 31.6889 164.47 30.944 163.91 30.0123L167.242 27.9968C167.469 28.3862 167.841 28.7095 168.358 28.9667C168.874 29.224 169.476 29.3939 170.165 29.4767C170.853 29.5594 171.568 29.5286 172.31 29.384C173.072 29.2355 173.76 28.9821 174.374 28.624C174.996 28.2535 175.47 27.8196 175.796 27.3223C176.12 26.8146 176.227 26.2786 176.117 25.7145C176.005 25.1399 175.7 24.7115 175.2 24.4293C174.699 24.1366 174.092 23.9457 173.381 23.8566C172.67 23.7675 171.948 23.7347 171.215 23.7581C169.612 23.8211 168.145 23.722 166.815 23.4607C165.484 23.1994 164.372 22.695 163.479 21.9474C162.596 21.1978 162.017 20.1178 161.743 18.7074C161.484 17.3806 161.64 16.1466 162.21 15.0056C162.779 13.8645 163.632 12.896 164.767 12.1C165.902 11.3041 167.191 10.7657 168.633 10.4848C169.834 10.2507 171.03 10.2128 172.221 10.3711C173.412 10.5295 174.496 10.8876 175.472 11.4457C176.458 12.0017 177.233 12.7507 177.796 13.6929L174.444 15.6958C174.217 15.3064 173.845 14.9831 173.329 14.7259C172.812 14.4686 172.211 14.3038 171.525 14.2315C170.836 14.1488 170.121 14.1797 169.38 14.3242C168.636 14.4583 167.954 14.7158 167.334 15.0968C166.723 15.4653 166.249 15.8992 165.912 16.3986C165.576 16.8979 165.46 17.4192 165.566 17.9624C165.702 18.6624 165.998 19.1523 166.454 19.4322C166.92 19.7101 167.498 19.8685 168.189 19.9074C168.878 19.9359 169.637 19.9397 170.468 19.9187C171.975 19.8636 173.403 19.9866 174.752 20.2876C176.101 20.5887 177.24 21.1204 178.169 21.8827C179.096 22.6347 179.687 23.6636 179.941 24.9695C180.199 26.2963 180.049 27.5345 179.492 28.684C178.933 29.823 178.086 30.7905 176.951 31.5864C175.815 32.3824 174.516 32.9228 173.054 33.2078Z" fill="white"/>
<path d="M200.07 7.76003L200.355 11.645L193.541 12.1457L194.891 30.5516L191.006 30.8371L189.656 12.4312L182.841 12.9319L182.556 9.04693L200.07 7.76003Z" fill="white"/>
<path d="M214.906 8.69081L219.386 8.93321L226.294 31.6905L222.165 31.4671L220.944 27.436L211.379 26.9184L209.731 30.7943L205.602 30.5708L214.906 8.69081ZM213.008 23.1054L219.72 23.4686L216.853 14.0882L213.008 23.1054Z" fill="white"/>
<path d="M230.542 33.1412L234.474 11.1391L238.309 11.8254L234.376 33.8275L230.542 33.1412Z" fill="white"/>
<path d="M240.267 35.1148L245.863 13.4759L249.943 14.5327L255.244 31.7209L259.077 16.8983L262.848 17.8749L257.252 39.5138L253.187 38.4611L247.871 21.2689L244.038 36.0915L240.267 35.1148Z" fill="white"/>
<path d="M262.152 41.9551L270.234 21.1167L273.865 22.527L265.783 43.3654L262.152 41.9551Z" fill="#D8F4E7"/>
<path d="M286.443 28.2483L290.492 30.1799L288.214 53.857L284.482 52.0767L284.888 47.8836L276.242 43.7592L273.243 46.715L269.511 44.9346L286.443 28.2483ZM279.2 40.8542L285.266 43.7481L286.187 33.9814L279.2 40.8542Z" fill="#79ECA5"/>
<path d="M291.269 56.5293L307.343 40.4074L310.017 42.2087L306.542 57.1331L319.049 48.2904L321.724 50.0917L312.853 71.0646L309.556 68.8442L315.046 55.8732L303.445 64.1131L301.234 62.6239L304.492 48.766L294.566 58.7497L291.269 56.5293Z" fill="#79ECA5"/>
<path d="M157.781 193.011C156.459 193.011 155.215 192.75 154.051 192.229C152.887 191.698 151.863 190.967 150.978 190.036C150.103 189.104 149.414 188.029 148.911 186.809C148.417 185.579 148.17 184.266 148.17 182.869C148.17 181.463 148.417 180.15 148.911 178.93C149.414 177.701 150.103 176.625 150.978 175.703C151.863 174.772 152.888 174.045 154.052 173.524C155.216 172.993 156.459 172.728 157.782 172.728C159.365 172.728 160.822 173.096 162.154 173.831C163.486 174.558 164.589 175.531 165.465 176.751L162.419 178.385C161.87 177.706 161.185 177.161 160.366 176.751C159.556 176.341 158.694 176.136 157.781 176.136C156.925 176.136 156.119 176.313 155.365 176.667C154.61 177.012 153.949 177.496 153.381 178.12C152.813 178.734 152.371 179.451 152.054 180.271C151.737 181.081 151.579 181.947 151.579 182.869C151.579 183.801 151.737 184.671 152.054 185.482C152.38 186.292 152.827 187.009 153.395 187.633C153.963 188.248 154.619 188.732 155.364 189.086C156.119 189.43 156.924 189.603 157.781 189.603C158.712 189.603 159.578 189.398 160.379 188.988C161.19 188.569 161.869 188.02 162.419 187.34L165.464 188.988C164.589 190.199 163.485 191.172 162.153 191.908C160.822 192.643 159.364 193.011 157.781 193.011ZM179.892 178.679L183.301 178.679L183.301 192.649L179.892 192.648L179.739 190.916C179.357 191.54 178.849 192.048 178.216 192.439C177.592 192.821 176.851 193.012 175.995 193.012C174.961 193.012 173.992 192.816 173.089 192.425C172.186 192.034 171.39 191.493 170.7 190.804C170.021 190.115 169.485 189.319 169.094 188.416C168.712 187.512 168.521 186.544 168.521 185.51C168.521 184.513 168.703 183.577 169.066 182.702C169.439 181.827 169.956 181.058 170.617 180.397C171.278 179.736 172.042 179.219 172.908 178.847C173.774 178.474 174.705 178.288 175.702 178.288C176.624 178.288 177.448 178.493 178.174 178.903C178.91 179.312 179.534 179.834 180.046 180.467L179.892 178.679ZM175.911 189.729C176.637 189.729 177.28 189.547 177.839 189.184C178.398 188.821 178.835 188.332 179.152 187.717C179.469 187.093 179.627 186.409 179.627 185.664C179.627 184.91 179.469 184.225 179.152 183.61C178.835 182.986 178.393 182.493 177.825 182.13C177.266 181.766 176.628 181.585 175.911 181.585C175.194 181.585 174.538 181.771 173.941 182.143C173.355 182.507 172.884 182.996 172.531 183.61C172.186 184.225 172.014 184.909 172.014 185.664C172.014 186.418 172.191 187.102 172.544 187.717C172.898 188.332 173.369 188.821 173.955 189.184C174.551 189.547 175.203 189.729 175.911 189.729ZM188.094 192.649L188.08 178.679L191.489 178.68L191.503 179.923C191.978 179.42 192.546 179.024 193.207 178.735C193.868 178.437 194.581 178.288 195.344 178.288C195.856 178.288 196.369 178.363 196.881 178.512L195.54 181.948C195.186 181.809 194.832 181.739 194.478 181.739C193.929 181.739 193.426 181.874 192.969 182.144C192.522 182.405 192.164 182.763 191.894 183.22C191.633 183.667 191.503 184.165 191.502 184.714L191.502 192.649L188.094 192.649ZM207.875 178.289C209.235 178.289 210.474 178.619 211.591 179.281C212.709 179.942 213.598 180.831 214.259 181.949C214.92 183.057 215.251 184.286 215.251 185.637C215.251 186.652 215.06 187.606 214.678 188.501C214.296 189.395 213.765 190.181 213.085 190.861C212.415 191.532 211.633 192.058 210.739 192.44C209.854 192.822 208.899 193.012 207.875 193.012C206.999 193.012 206.222 192.817 205.542 192.426C204.872 192.025 204.308 191.508 203.852 190.875L203.852 192.649L200.443 192.649L200.444 171.695L203.852 171.695L203.852 180.426C204.308 179.793 204.872 179.281 205.542 178.889C206.222 178.489 207 178.289 207.875 178.289ZM207.833 189.716C208.559 189.716 209.216 189.534 209.803 189.171C210.399 188.798 210.874 188.305 211.228 187.69C211.582 187.076 211.758 186.391 211.759 185.637C211.759 184.892 211.582 184.212 211.228 183.597C210.874 182.973 210.399 182.48 209.803 182.116C209.207 181.753 208.55 181.572 207.833 181.572C207.125 181.572 206.492 181.758 205.933 182.13C205.375 182.493 204.937 182.987 204.62 183.611C204.304 184.226 204.145 184.901 204.145 185.637C204.145 186.391 204.304 187.08 204.62 187.704C204.937 188.319 205.374 188.808 205.933 189.171C206.492 189.534 207.125 189.716 207.833 189.716ZM225.638 193.013C224.352 193.013 223.179 192.682 222.117 192.021C221.065 191.36 220.222 190.475 219.589 189.367C218.965 188.249 218.653 187.015 218.653 185.665C218.653 184.64 218.835 183.686 219.198 182.801C219.561 181.907 220.06 181.125 220.693 180.454C221.335 179.775 222.08 179.244 222.928 178.862C223.775 178.48 224.679 178.289 225.638 178.289C226.923 178.289 228.092 178.62 229.144 179.281C230.206 179.942 231.049 180.832 231.673 181.949C232.306 183.067 232.622 184.306 232.622 185.665C232.622 186.68 232.441 187.63 232.078 188.515C231.714 189.4 231.211 190.182 230.569 190.862C229.936 191.532 229.195 192.058 228.348 192.44C227.51 192.822 226.606 193.013 225.638 193.013ZM225.638 189.604C226.318 189.604 226.928 189.423 227.468 189.06C228.008 188.696 228.432 188.217 228.739 187.621C229.056 187.025 229.214 186.373 229.214 185.665C229.214 184.939 229.051 184.277 228.725 183.681C228.408 183.076 227.975 182.596 227.426 182.243C226.886 181.879 226.29 181.698 225.638 181.698C224.967 181.698 224.362 181.879 223.822 182.243C223.282 182.606 222.853 183.09 222.537 183.695C222.22 184.301 222.062 184.957 222.062 185.665C222.062 186.401 222.225 187.067 222.551 187.663C222.876 188.259 223.31 188.734 223.85 189.087C224.399 189.432 224.995 189.604 225.638 189.604ZM249.589 183.822L249.589 192.65L246.18 192.65L246.18 184.716C246.18 184.166 246.045 183.668 245.775 183.221C245.505 182.765 245.142 182.406 244.686 182.145C244.239 181.875 243.741 181.74 243.191 181.74C242.642 181.74 242.139 181.875 241.682 182.145C241.235 182.406 240.877 182.764 240.607 183.221C240.346 183.668 240.216 184.166 240.216 184.715L240.215 192.65L236.807 192.65L236.793 178.681L240.202 178.681L240.216 179.924C240.691 179.421 241.259 179.025 241.92 178.737C242.581 178.439 243.294 178.29 244.057 178.29C245.072 178.29 245.999 178.541 246.837 179.044C247.675 179.538 248.341 180.204 248.835 181.042C249.338 181.871 249.589 182.797 249.589 183.822ZM166.39 227.011C165.068 227.011 163.824 226.751 162.66 226.229C161.496 225.698 160.472 224.967 159.587 224.036C158.712 223.104 158.023 222.029 157.52 220.809C157.026 219.579 156.779 218.266 156.78 216.869C156.78 215.463 157.026 214.15 157.52 212.93C158.023 211.701 158.712 210.625 159.588 209.703C160.472 208.772 161.497 208.046 162.661 207.524C163.825 206.993 165.068 206.728 166.391 206.728C167.974 206.728 169.431 207.096 170.763 207.832C172.095 208.558 173.198 209.531 174.074 210.751L171.028 212.386C170.479 211.706 169.794 211.161 168.975 210.751C168.165 210.341 167.303 210.137 166.391 210.136C165.534 210.136 164.728 210.313 163.974 210.667C163.219 211.012 162.558 211.496 161.99 212.12C161.422 212.735 160.98 213.452 160.663 214.271C160.346 215.081 160.188 215.948 160.188 216.87C160.188 217.801 160.346 218.672 160.663 219.482C160.989 220.292 161.436 221.009 162.004 221.633C162.572 222.248 163.228 222.732 163.974 223.086C164.728 223.431 165.533 223.603 166.39 223.603C167.321 223.603 168.188 223.398 168.988 222.988C169.799 222.569 170.479 222.02 171.028 221.34L174.073 222.988C173.198 224.199 172.094 225.172 170.763 225.908C169.431 226.644 167.973 227.011 166.39 227.011ZM178.61 226.648L178.596 212.679L182.005 212.679L182.019 213.923C182.494 213.42 183.062 213.024 183.723 212.735C184.384 212.437 185.097 212.288 185.86 212.288C186.373 212.288 186.885 212.363 187.397 212.512L186.056 215.948C185.702 215.808 185.348 215.739 184.994 215.739C184.445 215.739 183.942 215.874 183.485 216.144C183.038 216.404 182.68 216.763 182.41 217.219C182.149 217.666 182.019 218.165 182.019 218.714L182.018 226.649L178.61 226.648ZM196.451 227.012C195.166 227.012 193.992 226.681 192.931 226.02C191.878 225.359 191.036 224.47 190.402 223.352C189.778 222.234 189.467 221 189.467 219.65C189.467 218.635 189.648 217.685 190.011 216.8C190.375 215.906 190.873 215.124 191.506 214.454C192.149 213.774 192.894 213.243 193.741 212.861C194.589 212.479 195.492 212.288 196.451 212.289C197.541 212.289 198.537 212.521 199.441 212.987C200.353 213.443 201.126 214.072 201.76 214.873C202.393 215.674 202.854 216.587 203.143 217.611C203.431 218.635 203.496 219.706 203.338 220.824L193.126 220.824C193.257 221.345 193.471 221.815 193.769 222.235C194.067 222.644 194.444 222.975 194.901 223.226C195.357 223.469 195.874 223.594 196.451 223.604C197.047 223.613 197.587 223.473 198.072 223.185C198.565 222.887 198.975 222.486 199.301 221.983L202.779 222.794C202.211 224.032 201.364 225.047 200.237 225.839C199.11 226.621 197.848 227.012 196.451 227.012ZM193.015 218.267L199.888 218.267C199.785 217.709 199.566 217.206 199.231 216.759C198.905 216.302 198.5 215.939 198.016 215.669C197.532 215.399 197.01 215.264 196.451 215.264C195.893 215.264 195.376 215.399 194.901 215.669C194.426 215.93 194.021 216.288 193.685 216.745C193.359 217.192 193.136 217.699 193.015 218.267ZM218.222 205.696L221.631 205.696L221.63 226.65L218.222 226.649L218.222 224.903C217.775 225.527 217.211 226.035 216.531 226.426C215.852 226.817 215.065 227.013 214.171 227.013C213.155 227.013 212.206 226.822 211.321 226.44C210.436 226.058 209.654 225.532 208.974 224.861C208.304 224.181 207.777 223.399 207.396 222.514C207.014 221.63 206.823 220.68 206.823 219.665C206.823 218.649 207.014 217.7 207.396 216.815C207.778 215.93 208.304 215.153 208.974 214.482C209.654 213.802 210.436 213.271 211.321 212.89C212.206 212.508 213.156 212.317 214.171 212.317C215.065 212.317 215.852 212.513 216.532 212.904C217.212 213.286 217.775 213.793 218.222 214.426L218.222 205.696ZM214.213 223.73C214.939 223.73 215.582 223.548 216.14 223.185C216.699 222.822 217.137 222.333 217.453 221.718C217.77 221.094 217.928 220.41 217.928 219.665C217.928 218.91 217.77 218.226 217.454 217.611C217.137 216.987 216.695 216.494 216.127 216.131C215.568 215.767 214.93 215.586 214.213 215.586C213.496 215.586 212.839 215.772 212.243 216.144C211.656 216.508 211.186 216.997 210.832 217.611C210.488 218.226 210.315 218.91 210.315 219.665C210.315 220.419 210.492 221.103 210.846 221.718C211.2 222.333 211.67 222.822 212.257 223.185C212.853 223.548 213.505 223.73 214.213 223.73ZM226.982 212.68L230.39 212.681L230.39 226.65L226.982 226.65L226.982 212.68ZM228.714 210.878C228.211 210.878 227.788 210.715 227.443 210.389C227.098 210.054 226.926 209.635 226.926 209.132C226.926 208.639 227.099 208.224 227.443 207.889C227.788 207.554 228.207 207.386 228.7 207.386C229.194 207.386 229.608 207.554 229.944 207.889C230.288 208.224 230.46 208.639 230.46 209.132C230.46 209.635 230.293 210.054 229.957 210.39C229.622 210.715 229.208 210.878 228.714 210.878ZM243.231 216.089L240.521 216.089L240.521 226.65L237.113 226.65L237.113 216.089L235.045 216.089L235.045 212.681L237.113 212.681L237.113 208.294L240.522 208.294L240.521 212.681L243.231 212.681L243.231 216.089Z" fill="white"/>
</svg>
