<svg width="401" height="401" viewBox="0 0 401 401" fill="none" xmlns="http://www.w3.org/2000/svg">
<path d="M379.55 201.07C379.55 299.798 299.576 379.808 200.955 379.808C102.334 379.808 22.3601 299.798 22.3601 201.07C22.3601 102.341 102.334 22.3318 200.955 22.3318C299.576 22.3318 379.55 102.341 379.55 201.07Z" fill="#072C2A" stroke="#01413E" stroke-width="41.9078"/>
<path d="M379.55 201.07C379.55 299.798 299.576 379.808 200.955 379.808C102.334 379.808 22.3601 299.798 22.3601 201.07C22.3601 102.341 102.334 22.3319 200.955 22.3319C299.576 22.3319 379.55 102.341 379.55 201.07Z" fill="#072C2A" stroke="#01413E" stroke-width="41.9078"/>
<path d="M290.922 201.398C290.922 252.148 249.815 293.268 199.131 293.268C148.447 293.268 107.34 252.148 107.34 201.398C107.34 150.649 148.447 109.529 199.131 109.529C249.815 109.529 290.922 150.649 290.922 201.398Z" fill="#C5C055" stroke="#002321" stroke-width="33.9253"/>
<path d="M369.921 210.248C369.95 209.014 370.169 207.832 370.578 206.702C370.998 205.584 371.579 204.607 372.323 203.773C373.077 202.938 373.969 202.347 374.999 201.998L376.255 205.684C375.826 205.823 375.43 206.117 375.069 206.567C374.707 207.016 374.412 207.568 374.184 208.223C373.956 208.878 373.833 209.583 373.816 210.339C373.798 211.115 373.898 211.842 374.116 212.517C374.345 213.204 374.668 213.76 375.084 214.185C375.511 214.61 376.011 214.829 376.586 214.842C377.171 214.856 377.655 214.649 378.037 214.221C378.43 213.794 378.747 213.242 378.986 212.566C379.225 211.89 379.412 211.192 379.545 210.471C379.827 208.892 380.237 207.48 380.777 206.236C381.317 204.992 382.048 204.014 382.969 203.301C383.89 202.598 385.069 202.263 386.506 202.297C387.857 202.328 389.029 202.744 390.022 203.544C391.015 204.344 391.778 205.384 392.313 206.663C392.848 207.942 393.098 209.316 393.064 210.785C393.036 212.008 392.817 213.185 392.407 214.315C391.998 215.444 391.416 216.426 390.662 217.26C389.908 218.105 389.011 218.702 387.97 219.05L386.73 215.349C387.159 215.21 387.555 214.915 387.917 214.466C388.278 214.017 388.568 213.464 388.785 212.809C389.013 212.155 389.136 211.45 389.154 210.694C389.182 209.939 389.076 209.218 388.836 208.531C388.607 207.855 388.285 207.299 387.869 206.864C387.453 206.428 386.969 206.204 386.415 206.191C385.702 206.175 385.161 206.359 384.79 206.744C384.419 207.14 384.14 207.671 383.954 208.338C383.779 209.004 383.613 209.746 383.456 210.562C383.187 212.046 382.762 213.415 382.179 214.668C381.596 215.922 380.833 216.921 379.89 217.665C378.957 218.41 377.826 218.767 376.496 218.737C375.144 218.705 373.967 218.295 372.963 217.505C371.97 216.715 371.206 215.681 370.671 214.402C370.137 213.122 369.887 211.738 369.921 210.248Z" fill="white"/>
<path d="M367.548 231.046C367.802 229.276 368.456 227.784 369.512 226.57C370.566 225.367 371.873 224.5 373.433 223.972C375.003 223.445 376.678 223.309 378.459 223.564L391.354 225.416L390.801 229.272L377.906 227.42C376.852 227.269 375.855 227.325 374.914 227.588C373.982 227.862 373.2 228.331 372.568 228.993C371.944 229.666 371.556 230.535 371.404 231.6C371.25 232.674 371.378 233.617 371.788 234.429C372.209 235.242 372.83 235.901 373.65 236.406C374.479 236.923 375.42 237.257 376.474 237.408L389.369 239.26L388.816 243.116L375.921 241.264C374.583 241.072 373.359 240.681 372.25 240.092C371.152 239.504 370.216 238.757 369.443 237.85C368.67 236.943 368.114 235.912 367.774 234.756C367.433 233.61 367.358 232.373 367.548 231.046Z" fill="white"/>
<path d="M362.477 251.738C362.809 250.549 363.312 249.457 363.987 248.463C364.67 247.482 365.474 246.679 366.399 246.054C367.336 245.431 368.346 245.078 369.43 244.994L369.739 248.877C369.289 248.906 368.833 249.093 368.372 249.44C367.911 249.786 367.489 250.248 367.107 250.827C366.724 251.405 366.432 252.058 366.229 252.786C366.02 253.534 365.938 254.263 365.984 254.972C366.036 255.694 366.212 256.312 366.51 256.826C366.819 257.344 367.25 257.679 367.804 257.834C368.368 257.992 368.888 257.91 369.364 257.59C369.85 257.273 370.292 256.816 370.691 256.22C371.089 255.624 371.442 254.994 371.749 254.328C372.411 252.866 373.156 251.599 373.986 250.527C374.815 249.455 375.764 248.687 376.833 248.223C377.899 247.769 379.124 247.735 380.507 248.122C381.809 248.486 382.843 249.178 383.608 250.198C384.373 251.219 384.857 252.415 385.06 253.786C385.263 255.158 385.167 256.551 384.772 257.966C384.444 259.145 383.942 260.231 383.267 261.225C382.592 262.219 381.786 263.027 380.85 263.65C379.911 264.283 378.894 264.64 377.8 264.721L377.51 260.827C377.96 260.798 378.416 260.611 378.877 260.264C379.338 259.918 379.755 259.454 380.127 258.873C380.51 258.295 380.802 257.642 381.005 256.914C381.219 256.189 381.294 255.464 381.231 254.739C381.175 254.027 380.999 253.409 380.704 252.884C380.408 252.36 379.994 252.023 379.461 251.874C378.774 251.682 378.203 251.727 377.749 252.009C377.292 252.302 376.891 252.748 376.547 253.348C376.213 253.951 375.869 254.628 375.516 255.38C374.89 256.753 374.14 257.974 373.267 259.045C372.394 260.116 371.408 260.896 370.31 261.385C369.223 261.877 368.039 261.944 366.757 261.586C365.455 261.223 364.415 260.534 363.637 259.521C362.869 258.511 362.384 257.32 362.181 255.948C361.978 254.577 362.077 253.173 362.477 251.738Z" fill="white"/>
<path d="M372.905 287.597L369.307 286.106L371.92 279.792L354.871 272.726L356.36 269.126L373.409 276.193L376.023 269.879L379.621 271.371L372.905 287.597Z" fill="white"/>
<path d="M366.023 299.158L363.814 303.062L340.366 299.117L342.402 295.518L346.555 296.22L351.271 287.882L348.534 284.68L350.57 281.081L366.023 299.158ZM353.961 291.039L350.651 296.889L360.325 298.498L353.961 291.039Z" fill="white"/>
<path d="M336.875 302.531L354.8 315.882L352.475 319.008L334.55 305.657L336.875 302.531Z" fill="white"/>
<path d="M331.131 309.835L348.036 324.456L345.282 327.646L327.534 324.771L339.115 334.786L336.569 337.735L319.663 323.114L322.408 319.936L340.165 322.798L328.585 312.783L331.131 309.835Z" fill="white"/>
<path d="M315.186 326.466L330.28 342.949L327.409 345.582L312.315 329.098L315.186 326.466Z" fill="#D8F4E7"/>
<path d="M316.118 354.755L312.589 357.525L292.406 344.956L295.658 342.403L299.231 344.631L306.765 338.715L305.452 334.712L308.704 332.158L316.118 354.755ZM308.051 342.657L302.765 346.809L311.099 351.977L308.051 342.657Z" fill="#79ECA5"/>
<path d="M288.972 346.215L296.279 367.782L293.479 369.382L281.655 359.645L284.026 374.784L281.226 376.384L266.378 359.126L269.83 357.154L279.011 367.831L276.778 353.771L279.093 352.449L290.058 361.518L285.521 348.187L288.972 346.215Z" fill="#79ECA5"/>
<path d="M100.262 337.199C101.276 337.904 102.141 338.738 102.858 339.703C103.56 340.67 104.054 341.694 104.341 342.775C104.622 343.864 104.624 344.934 104.347 345.986L100.58 345.002C100.701 344.567 100.673 344.075 100.497 343.525C100.322 342.975 100.024 342.425 99.6032 341.873C99.1826 341.322 98.6621 340.831 98.0415 340.399C97.4035 339.956 96.7424 339.639 96.0583 339.449C95.3594 339.261 94.7181 339.224 94.1346 339.337C93.5449 339.459 93.0863 339.755 92.7586 340.228C92.4249 340.709 92.331 341.227 92.477 341.782C92.6169 342.345 92.9028 342.914 93.3348 343.486C93.7667 344.058 94.2465 344.599 94.7741 345.108C95.9368 346.214 96.8882 347.336 97.6283 348.472C98.3684 349.608 98.7821 350.758 98.8694 351.92C98.948 353.076 98.5777 354.245 97.7586 355.425C96.988 356.536 95.9955 357.285 94.781 357.672C93.5665 358.059 92.2785 358.123 90.9168 357.864C89.5551 357.605 88.2712 357.056 87.0651 356.218C86.06 355.519 85.199 354.688 84.4823 353.723C83.7655 352.758 83.2669 351.731 82.9863 350.642C82.697 349.547 82.6937 348.469 82.9764 347.408L86.7472 348.415C86.6268 348.85 86.6544 349.342 86.83 349.892C87.0056 350.441 87.3067 350.988 87.7333 351.53C88.1539 352.082 88.6744 352.573 89.295 353.004C89.9094 353.444 90.5692 353.754 91.2742 353.932C91.9644 354.114 92.6056 354.151 93.1979 354.044C93.7902 353.938 94.2442 353.657 94.5597 353.202C94.9662 352.616 95.1109 352.062 94.9939 351.54C94.868 351.012 94.5783 350.487 94.1248 349.964C93.6652 349.451 93.1383 348.903 92.5442 348.322C91.4541 347.279 90.5467 346.169 89.8222 344.991C89.0976 343.814 88.6846 342.626 88.5832 341.428C88.4758 340.239 88.8013 339.098 89.5597 338.005C90.3303 336.894 91.3215 336.138 92.5333 335.736C93.739 335.342 95.0227 335.275 96.3844 335.535C97.7461 335.794 99.0387 336.349 100.262 337.199Z" fill="white"/>
<path d="M84.0975 323.592C85.4327 324.781 86.3151 326.151 86.7445 327.702C87.1659 329.246 87.1668 330.815 86.7471 332.408C86.3203 334.009 85.5093 335.481 84.3139 336.825L75.6566 346.56L72.7476 343.969L81.4049 334.235C82.1122 333.439 82.6159 332.577 82.916 331.647C83.201 330.718 83.2422 329.806 83.0395 328.913C82.8217 328.021 82.3115 327.217 81.5087 326.502C80.698 325.78 79.8412 325.366 78.9383 325.261C78.0283 325.163 77.1367 325.316 76.2635 325.722C75.3753 326.128 74.5775 326.729 73.8702 327.524L65.2129 337.258L62.3039 334.668L70.9612 324.933C71.8595 323.923 72.8602 323.118 73.9632 322.519C75.0591 321.927 76.1983 321.559 77.3805 321.415C78.5628 321.271 79.7295 321.376 80.8806 321.731C82.0237 322.08 83.096 322.7 84.0975 323.592Z" fill="white"/>
<path d="M69.7666 308.059C70.577 308.99 71.2115 310.011 71.6701 311.122C72.1136 312.232 72.342 313.346 72.3552 314.464C72.3604 315.588 72.1 316.627 71.5741 317.579L68.1634 315.702C68.3866 315.31 68.4804 314.826 68.4448 314.25C68.4092 313.674 68.2551 313.067 67.9825 312.429C67.7099 311.792 67.3256 311.188 66.8296 310.618C66.3196 310.031 65.7563 309.562 65.1396 309.21C64.508 308.857 63.8954 308.664 63.302 308.63C62.7005 308.604 62.1831 308.779 61.7498 309.157C61.3084 309.541 61.0905 310.021 61.0961 310.595C61.0936 311.176 61.2316 311.796 61.5102 312.457C61.7888 313.118 62.1215 313.76 62.5082 314.383C63.3645 315.74 64.0123 317.06 64.4514 318.343C64.8906 319.626 65.0101 320.842 64.81 321.99C64.6029 323.131 63.9577 324.173 62.8744 325.116C61.8552 326.004 60.7095 326.487 59.4372 326.565C58.1649 326.643 56.9004 326.39 55.6438 325.805C54.3871 325.22 53.2768 324.373 52.3127 323.265C51.5094 322.342 50.8784 321.325 50.4198 320.214C49.9612 319.103 49.7293 317.985 49.7242 316.86C49.712 315.728 49.9729 314.682 50.5068 313.722L53.916 315.622C53.6928 316.014 53.599 316.498 53.6346 317.074C53.6702 317.65 53.8283 318.254 54.1089 318.884C54.3815 319.522 54.7659 320.126 55.2618 320.696C55.7498 321.273 56.3136 321.735 56.9533 322.081C57.578 322.426 58.1906 322.619 58.791 322.661C59.3914 322.702 59.9003 322.541 60.3176 322.178C60.8552 321.709 61.1312 321.208 61.1456 320.673C61.153 320.13 61.0008 319.55 60.6891 318.932C60.3694 318.321 59.9927 317.661 59.5591 316.952C58.7576 315.674 58.1499 314.375 57.7359 313.056C57.3218 311.737 57.2124 310.484 57.4076 309.298C57.5948 308.119 58.1899 307.092 59.193 306.218C60.2121 305.33 61.3584 304.84 62.6317 304.747C63.8971 304.661 65.158 304.91 66.4147 305.495C67.6713 306.08 68.7886 306.935 69.7666 308.059Z" fill="white"/>
<path d="M34.0702 296.997L37.2934 294.81L41.127 300.466L56.3972 290.101L58.5827 293.326L43.3125 303.691L47.1461 309.347L43.923 311.534L34.0702 296.997Z" fill="white"/>
<path d="M28.0992 284.672L26.0654 280.673L42.2975 263.286L44.1721 266.972L41.2955 270.049L45.6381 278.587L49.8175 278.071L51.6921 281.757L28.0992 284.672ZM41.5229 279.089L38.4758 273.098L31.7947 280.281L41.5229 279.089Z" fill="white"/>
<path d="M41.4592 258.788L20.4477 266.409L19.1212 262.746L40.1327 255.126L41.4592 258.788Z" fill="white"/>
<path d="M38.5001 249.927L16.9735 255.94L15.841 251.881L28.0516 238.673L13.3058 242.792L12.2591 239.04L33.7858 233.027L34.914 237.071L22.7077 250.294L37.4534 246.175L38.5001 249.927Z" fill="white"/>
<path d="M33.5081 227.897L11.4356 231.412L10.8236 227.565L32.8962 224.05L33.5081 227.897Z" fill="#D8F4E7"/>
<path d="M9.38262 213.012L9.01989 208.54L30.6403 198.631L30.9746 202.753L27.1445 204.505L27.919 214.053L31.9815 215.165L32.3158 219.286L9.38262 213.012ZM23.9215 212.952L23.378 206.253L14.4689 210.356L23.9215 212.952Z" fill="#79ECA5"/>
<path d="M31.4554 194.658L9.43714 188.859L9.64836 185.641L24.2946 181.148L10.3615 174.777L10.5727 171.559L33.1598 168.691L32.8995 172.658L18.928 174.428L31.8846 180.319L31.71 182.98L18.0946 187.124L31.7158 190.692L31.4554 194.658Z" fill="#79ECA5"/>
<path d="M132.441 46.179C131.327 46.7106 130.173 47.0486 128.981 47.193C127.793 47.3232 126.659 47.245 125.579 46.9582C124.495 46.6618 123.565 46.1326 122.79 45.3705L125.513 42.5857C125.83 42.9059 126.271 43.126 126.835 43.246C127.399 43.3661 128.025 43.3801 128.712 43.2882C129.399 43.1962 130.084 42.9876 130.766 42.6622C131.467 42.3277 132.07 41.9103 132.574 41.4102C133.084 40.896 133.434 40.3573 133.626 39.7942C133.813 39.2215 133.783 38.6758 133.536 38.1569C133.284 37.6284 132.881 37.29 132.327 37.1415C131.768 36.9835 131.133 36.9503 130.423 37.0418C129.712 37.1333 129.004 37.282 128.301 37.4879C126.764 37.9497 125.319 38.2204 123.966 38.2999C122.613 38.3795 121.41 38.169 120.358 37.6684C119.316 37.1633 118.486 36.2622 117.868 34.965C117.287 33.7447 117.129 32.5108 117.396 31.2635C117.662 30.0161 118.246 28.8651 119.146 27.8106C120.047 26.756 121.16 25.9125 122.485 25.2801C123.59 24.7531 124.739 24.4173 125.931 24.2729C127.124 24.1285 128.263 24.2045 129.347 24.5008C130.441 24.7927 131.378 25.3244 132.158 26.096L129.414 28.8733C129.096 28.5531 128.655 28.333 128.091 28.213C127.527 28.093 126.904 28.0837 126.221 28.1853C125.534 28.2772 124.85 28.4859 124.168 28.8113C123.481 29.127 122.885 29.5468 122.38 30.0707C121.88 30.5804 121.53 31.1191 121.329 31.6868C121.127 32.2544 121.146 32.7881 121.384 33.2877C121.691 33.9315 122.099 34.332 122.61 34.4891C123.131 34.6417 123.731 34.6505 124.409 34.5155C125.083 34.3709 125.819 34.1847 126.619 33.9567C128.064 33.5265 129.478 33.2886 130.859 33.2429C132.24 33.1972 133.475 33.4274 134.565 33.9334C135.651 34.4298 136.479 35.2786 137.051 36.4796C137.633 37.6999 137.797 38.9363 137.545 40.1887C137.288 41.4314 136.71 42.5801 135.809 43.6347C134.909 44.6893 133.786 45.5374 132.441 46.179Z" fill="white"/>
<path d="M152.447 38.764C150.75 39.3291 149.123 39.4112 147.565 39.0103C146.017 38.606 144.658 37.8248 143.488 36.6666C142.314 35.4983 141.443 34.0608 140.875 32.354L136.763 19.9927L140.459 18.7615L144.571 31.1228C144.907 32.1327 145.403 32.9996 146.059 33.7235C146.721 34.4339 147.49 34.9238 148.365 35.1933C149.246 35.4493 150.197 35.4075 151.217 35.0677C152.247 34.7246 153.033 34.1879 153.575 33.4576C154.114 32.7171 154.426 31.8672 154.511 30.9079C154.602 29.9351 154.48 28.9438 154.144 27.9339L150.032 15.5726L153.727 14.3414L157.839 26.7027C158.266 27.9853 158.464 29.2543 158.433 30.5099C158.399 31.7554 158.149 32.9267 157.684 34.024C157.219 35.1212 156.545 36.0804 155.663 36.9016C154.791 37.7193 153.719 38.3401 152.447 38.764Z" fill="white"/>
<path d="M173.054 34.0126C171.842 34.2487 170.64 34.2876 169.449 34.1293C168.267 33.9585 167.189 33.5993 166.215 33.0517C165.239 32.4937 164.47 31.7488 163.91 30.8171L167.242 28.8016C167.469 29.191 167.841 29.5143 168.358 29.7715C168.874 30.0288 169.476 30.1988 170.165 30.2815C170.853 30.3643 171.568 30.3334 172.31 30.1889C173.072 30.0403 173.76 29.7869 174.374 29.4289C174.996 29.0583 175.47 28.6244 175.796 28.1271C176.12 27.6194 176.227 27.0834 176.117 26.5193C176.005 25.9447 175.7 25.5163 175.2 25.2341C174.699 24.9414 174.092 24.7505 173.381 24.6614C172.67 24.5723 171.948 24.5395 171.215 24.563C169.612 24.626 168.145 24.5268 166.815 24.2655C165.484 24.0042 164.372 23.4998 163.479 22.7522C162.596 22.0026 162.017 20.9226 161.743 19.5122C161.484 18.1854 161.64 16.9514 162.21 15.8104C162.779 14.6693 163.632 13.7008 164.767 12.9048C165.902 12.1089 167.191 11.5705 168.633 11.2896C169.834 11.0555 171.03 11.0176 172.221 11.176C173.412 11.3343 174.496 11.6924 175.472 12.2505C176.458 12.8065 177.233 13.5555 177.796 14.4977L174.444 16.5006C174.217 16.1112 173.845 15.7879 173.329 15.5307C172.812 15.2734 172.211 15.1087 171.525 15.0364C170.836 14.9536 170.121 14.9845 169.38 15.129C168.636 15.2631 167.954 15.5206 167.334 15.9016C166.723 16.2701 166.249 16.7041 165.912 17.2034C165.576 17.7027 165.46 18.224 165.566 18.7672C165.702 19.4672 165.998 19.9571 166.454 20.237C166.92 20.5149 167.498 20.6733 168.189 20.7122C168.878 20.7407 169.637 20.7445 170.468 20.7236C171.975 20.6684 173.403 20.7914 174.752 21.0924C176.101 21.3935 177.24 21.9252 178.169 22.6876C179.096 23.4395 179.687 24.4684 179.941 25.7743C180.199 27.1011 180.049 28.3393 179.492 29.4888C178.933 30.6278 178.086 31.5953 176.951 32.3912C175.815 33.1872 174.516 33.7276 173.054 34.0126Z" fill="white"/>
<path d="M200.07 8.56484L200.355 12.4498L193.541 12.9505L194.891 31.3565L191.006 31.6419L189.656 13.236L182.841 13.7367L182.556 9.85174L200.07 8.56484Z" fill="white"/>
<path d="M214.906 9.49562L219.386 9.73802L226.294 32.4954L222.165 32.2719L220.944 28.2408L211.379 27.7232L209.731 31.5991L205.602 31.3757L214.906 9.49562ZM213.008 23.9102L219.72 24.2734L216.853 14.8931L213.008 23.9102Z" fill="white"/>
<path d="M230.542 33.946L234.474 11.9439L238.309 12.6302L234.376 34.6323L230.542 33.946Z" fill="white"/>
<path d="M240.267 35.9196L245.863 14.2808L249.943 15.3375L255.244 32.5257L259.077 17.7031L262.848 18.6798L257.252 40.3186L253.187 39.2659L247.871 22.0737L244.038 36.8963L240.267 35.9196Z" fill="white"/>
<path d="M262.152 42.7599L270.234 21.9215L273.865 23.3318L265.783 44.1702L262.152 42.7599Z" fill="#D8F4E7"/>
<path d="M286.443 29.0531L290.492 30.9847L288.214 54.6618L284.482 52.8815L284.888 48.6884L276.242 44.564L273.243 47.5198L269.511 45.7394L286.443 29.0531ZM279.2 41.659L285.266 44.553L286.187 34.7862L279.2 41.659Z" fill="#79ECA5"/>
<path d="M291.269 57.3341L307.343 41.2122L310.017 43.0135L306.542 57.9379L319.049 49.0952L321.724 50.8965L312.853 71.8694L309.556 69.649L315.046 56.678L303.445 64.9179L301.234 63.4287L304.492 49.5708L294.566 59.5545L291.269 57.3341Z" fill="#79ECA5"/>
<path d="M157.781 193.816C156.459 193.816 155.215 193.555 154.051 193.034C152.887 192.503 151.863 191.772 150.978 190.84C150.103 189.909 149.414 188.833 148.911 187.613C148.417 186.384 148.17 185.071 148.17 183.674C148.17 182.268 148.417 180.955 148.911 179.735C149.414 178.505 150.103 177.43 150.978 176.508C151.863 175.577 152.888 174.85 154.052 174.329C155.216 173.798 156.459 173.533 157.782 173.533C159.365 173.533 160.822 173.901 162.154 174.636C163.486 175.363 164.589 176.336 165.465 177.556L162.419 179.19C161.87 178.51 161.185 177.966 160.366 177.556C159.556 177.146 158.694 176.941 157.781 176.941C156.925 176.941 156.119 177.118 155.365 177.472C154.61 177.816 153.949 178.301 153.381 178.925C152.813 179.539 152.371 180.256 152.054 181.076C151.737 181.886 151.579 182.752 151.579 183.674C151.579 184.605 151.737 185.476 152.054 186.286C152.38 187.097 152.827 187.814 153.395 188.438C153.963 189.052 154.619 189.537 155.364 189.891C156.119 190.235 156.924 190.407 157.781 190.407C158.712 190.407 159.578 190.203 160.379 189.793C161.19 189.374 161.869 188.824 162.419 188.145L165.464 189.793C164.589 191.004 163.485 191.977 162.153 192.712C160.822 193.448 159.364 193.816 157.781 193.816ZM179.892 179.484L183.301 179.484L183.301 193.453L179.892 193.453L179.739 191.721C179.357 192.345 178.849 192.853 178.216 193.244C177.592 193.626 176.851 193.816 175.995 193.816C174.961 193.816 173.992 193.621 173.089 193.23C172.186 192.838 171.39 192.298 170.7 191.609C170.021 190.92 169.485 190.124 169.094 189.22C168.712 188.317 168.521 187.348 168.521 186.315C168.521 185.318 168.703 184.382 169.066 183.507C169.439 182.632 169.956 181.863 170.617 181.202C171.278 180.541 172.042 180.024 172.908 179.651C173.774 179.279 174.705 179.093 175.702 179.093C176.624 179.093 177.448 179.298 178.174 179.708C178.91 180.117 179.534 180.639 180.046 181.272L179.892 179.484ZM175.911 190.534C176.637 190.534 177.28 190.352 177.839 189.989C178.398 189.626 178.835 189.137 179.152 188.522C179.469 187.898 179.627 187.214 179.627 186.469C179.627 185.714 179.469 185.03 179.152 184.415C178.835 183.791 178.393 183.298 177.825 182.934C177.266 182.571 176.628 182.39 175.911 182.39C175.194 182.39 174.538 182.576 173.941 182.948C173.355 183.311 172.884 183.8 172.531 184.415C172.186 185.03 172.014 185.714 172.014 186.468C172.014 187.223 172.191 187.907 172.544 188.522C172.898 189.137 173.369 189.626 173.955 189.989C174.551 190.352 175.203 190.534 175.911 190.534ZM188.094 193.454L188.08 179.484L191.489 179.484L191.503 180.728C191.978 180.225 192.546 179.829 193.207 179.54C193.868 179.242 194.581 179.093 195.344 179.093C195.856 179.093 196.369 179.168 196.881 179.317L195.54 182.753C195.186 182.614 194.832 182.544 194.478 182.544C193.929 182.544 193.426 182.679 192.969 182.949C192.522 183.209 192.164 183.568 191.894 184.024C191.633 184.471 191.503 184.97 191.502 185.519L191.502 193.454L188.094 193.454ZM207.875 179.094C209.235 179.094 210.474 179.424 211.591 180.086C212.709 180.747 213.598 181.636 214.259 182.754C214.92 183.862 215.251 185.091 215.251 186.442C215.251 187.457 215.06 188.411 214.678 189.305C214.296 190.199 213.765 190.986 213.085 191.666C212.415 192.337 211.633 192.863 210.739 193.245C209.854 193.626 208.899 193.817 207.875 193.817C206.999 193.817 206.222 193.622 205.542 193.23C204.872 192.83 204.308 192.313 203.852 191.68L203.852 193.454L200.443 193.454L200.444 172.5L203.852 172.5L203.852 181.231C204.308 180.598 204.872 180.085 205.542 179.694C206.222 179.294 207 179.094 207.875 179.094ZM207.833 190.52C208.559 190.52 209.216 190.339 209.803 189.976C210.399 189.603 210.874 189.11 211.228 188.495C211.582 187.88 211.758 187.196 211.759 186.442C211.759 185.697 211.582 185.017 211.228 184.402C210.874 183.778 210.399 183.284 209.803 182.921C209.207 182.558 208.55 182.376 207.833 182.376C207.125 182.376 206.492 182.563 205.933 182.935C205.375 183.298 204.937 183.792 204.62 184.416C204.304 185.03 204.145 185.706 204.145 186.441C204.145 187.196 204.304 187.885 204.62 188.509C204.937 189.123 205.374 189.612 205.933 189.976C206.492 190.339 207.125 190.52 207.833 190.52ZM225.638 193.818C224.352 193.818 223.179 193.487 222.117 192.826C221.065 192.165 220.222 191.28 219.589 190.172C218.965 189.054 218.653 187.82 218.653 186.47C218.653 185.445 218.835 184.491 219.198 183.606C219.561 182.712 220.06 181.93 220.693 181.259C221.335 180.579 222.08 180.049 222.928 179.667C223.775 179.285 224.679 179.094 225.638 179.094C226.923 179.094 228.092 179.425 229.144 180.086C230.206 180.747 231.049 181.637 231.673 182.754C232.306 183.872 232.622 185.11 232.622 186.47C232.622 187.485 232.441 188.435 232.078 189.32C231.714 190.204 231.211 190.987 230.569 191.667C229.936 192.337 229.195 192.863 228.348 193.245C227.51 193.627 226.606 193.818 225.638 193.818ZM225.638 190.409C226.318 190.409 226.928 190.228 227.468 189.864C228.008 189.501 228.432 189.022 228.739 188.426C229.056 187.83 229.214 187.178 229.214 186.47C229.214 185.744 229.051 185.082 228.725 184.486C228.408 183.881 227.975 183.401 227.426 183.047C226.886 182.684 226.29 182.503 225.638 182.503C224.967 182.503 224.362 182.684 223.822 183.047C223.282 183.411 222.853 183.895 222.537 184.5C222.22 185.105 222.062 185.762 222.062 186.47C222.062 187.205 222.225 187.871 222.551 188.467C222.876 189.063 223.31 189.538 223.85 189.892C224.399 190.237 224.995 190.409 225.638 190.409ZM249.589 184.626L249.589 193.455L246.18 193.455L246.18 185.52C246.18 184.971 246.045 184.473 245.775 184.026C245.505 183.569 245.142 183.211 244.686 182.95C244.239 182.68 243.741 182.545 243.191 182.545C242.642 182.545 242.139 182.68 241.682 182.95C241.235 183.211 240.877 183.569 240.607 184.026C240.346 184.473 240.216 184.971 240.216 185.52L240.215 193.455L236.807 193.455L236.793 179.485L240.202 179.486L240.216 180.729C240.691 180.226 241.259 179.83 241.92 179.541C242.581 179.243 243.294 179.095 244.057 179.095C245.072 179.095 245.999 179.346 246.837 179.849C247.675 180.343 248.341 181.008 248.835 181.847C249.338 182.675 249.589 183.602 249.589 184.626ZM166.39 227.816C165.068 227.816 163.824 227.555 162.66 227.034C161.496 226.503 160.472 225.772 159.587 224.841C158.712 223.909 158.023 222.834 157.52 221.614C157.026 220.384 156.779 219.071 156.78 217.674C156.78 216.268 157.026 214.955 157.52 213.735C158.023 212.506 158.712 211.43 159.588 210.508C160.472 209.577 161.497 208.85 162.661 208.329C163.825 207.798 165.068 207.533 166.391 207.533C167.974 207.533 169.431 207.901 170.763 208.636C172.095 209.363 173.198 210.336 174.074 211.556L171.028 213.19C170.479 212.511 169.794 211.966 168.975 211.556C168.165 211.146 167.303 210.941 166.391 210.941C165.534 210.941 164.728 211.118 163.974 211.472C163.219 211.817 162.558 212.301 161.99 212.925C161.422 213.539 160.98 214.257 160.663 215.076C160.346 215.886 160.188 216.752 160.188 217.674C160.188 218.606 160.346 219.476 160.663 220.287C160.989 221.097 161.436 221.814 162.004 222.438C162.572 223.053 163.228 223.537 163.974 223.891C164.728 224.235 165.533 224.408 166.39 224.408C167.321 224.408 168.188 224.203 168.988 223.793C169.799 223.374 170.479 222.825 171.028 222.145L174.073 223.793C173.198 225.004 172.094 225.977 170.763 226.713C169.431 227.448 167.973 227.816 166.39 227.816ZM178.61 227.453L178.596 213.484L182.005 213.484L182.019 214.727C182.494 214.224 183.062 213.829 183.723 213.54C184.384 213.242 185.097 213.093 185.86 213.093C186.373 213.093 186.885 213.168 187.397 213.317L186.056 216.753C185.702 216.613 185.348 216.543 184.994 216.543C184.445 216.543 183.942 216.678 183.485 216.949C183.038 217.209 182.68 217.568 182.41 218.024C182.149 218.471 182.019 218.969 182.019 219.519L182.018 227.453L178.61 227.453ZM196.451 227.817C195.166 227.817 193.992 227.486 192.931 226.825C191.878 226.164 191.036 225.274 190.402 224.157C189.778 223.039 189.467 221.805 189.467 220.455C189.467 219.44 189.648 218.49 190.011 217.605C190.375 216.711 190.873 215.929 191.506 215.258C192.149 214.579 192.894 214.048 193.741 213.666C194.589 213.284 195.492 213.093 196.451 213.093C197.541 213.093 198.537 213.326 199.441 213.792C200.353 214.248 201.126 214.877 201.76 215.678C202.393 216.479 202.854 217.391 203.143 218.416C203.431 219.44 203.496 220.511 203.338 221.629L193.126 221.628C193.257 222.15 193.471 222.62 193.769 223.039C194.067 223.449 194.444 223.78 194.901 224.031C195.357 224.273 195.874 224.399 196.451 224.408C197.047 224.418 197.587 224.278 198.072 223.989C198.565 223.691 198.975 223.291 199.301 222.788L202.779 223.598C202.211 224.837 201.364 225.852 200.237 226.644C199.11 227.426 197.848 227.817 196.451 227.817ZM193.015 219.072L199.888 219.072C199.785 218.513 199.566 218.011 199.231 217.564C198.905 217.107 198.5 216.744 198.016 216.474C197.532 216.204 197.01 216.069 196.451 216.069C195.893 216.069 195.376 216.204 194.901 216.474C194.426 216.735 194.021 217.093 193.685 217.549C193.359 217.996 193.136 218.504 193.015 219.072ZM218.222 206.5L221.631 206.5L221.63 227.454L218.222 227.454L218.222 225.708C217.775 226.332 217.211 226.84 216.531 227.231C215.852 227.622 215.065 227.817 214.171 227.817C213.155 227.817 212.206 227.626 211.321 227.245C210.436 226.863 209.654 226.337 208.974 225.666C208.304 224.986 207.777 224.204 207.396 223.319C207.014 222.434 206.823 221.484 206.823 220.469C206.823 219.454 207.014 218.504 207.396 217.62C207.778 216.735 208.304 215.957 208.974 215.287C209.654 214.607 210.436 214.076 211.321 213.694C212.206 213.313 213.156 213.122 214.171 213.122C215.065 213.122 215.852 213.317 216.532 213.708C217.212 214.09 217.775 214.598 218.222 215.231L218.222 206.5ZM214.213 224.535C214.939 224.535 215.582 224.353 216.14 223.99C216.699 223.627 217.137 223.138 217.453 222.523C217.77 221.899 217.928 221.215 217.928 220.47C217.928 219.715 217.77 219.031 217.454 218.416C217.137 217.792 216.695 217.299 216.127 216.935C215.568 216.572 214.93 216.391 214.213 216.391C213.496 216.39 212.839 216.577 212.243 216.949C211.656 217.312 211.186 217.801 210.832 218.416C210.488 219.031 210.315 219.715 210.315 220.469C210.315 221.224 210.492 221.908 210.846 222.523C211.2 223.138 211.67 223.627 212.257 223.99C212.853 224.353 213.505 224.535 214.213 224.535ZM226.982 213.485L230.39 213.485L230.39 227.455L226.982 227.454L226.982 213.485ZM228.714 211.683C228.211 211.683 227.788 211.52 227.443 211.194C227.098 210.859 226.926 210.44 226.926 209.937C226.926 209.443 227.099 209.029 227.443 208.694C227.788 208.359 228.207 208.191 228.7 208.191C229.194 208.191 229.608 208.359 229.944 208.694C230.288 209.029 230.46 209.444 230.46 209.937C230.46 210.44 230.293 210.859 229.957 211.194C229.622 211.52 229.208 211.683 228.714 211.683ZM243.231 216.894L240.521 216.894L240.521 227.455L237.113 227.455L237.113 216.894L235.045 216.894L235.045 213.485L237.113 213.485L237.113 209.099L240.522 209.099L240.521 213.486L243.231 213.486L243.231 216.894Z" fill="white"/>
</svg>
