<svg width="218" height="218" viewBox="0 0 218 218" fill="none" xmlns="http://www.w3.org/2000/svg">
<g clip-path="url(#clip0_219_417)">
<path d="M200.545 108.832C200.545 159.582 159.438 200.701 108.754 200.701C58.0705 200.701 16.9627 159.582 16.9627 108.832C16.9627 58.0825 58.0705 16.9627 108.754 16.9627C159.438 16.9627 200.545 58.0825 200.545 108.832Z" fill="#C5C055" stroke="#002321" stroke-width="33.9253"/>
<path d="M67.404 101.25C66.0816 101.25 64.8384 100.989 63.6743 100.467C62.5102 99.9365 61.4858 99.2055 60.6011 98.2742C59.7257 97.3428 59.0366 96.2672 58.5337 95.0472C58.0402 93.8179 57.7934 92.5048 57.7935 91.1079C57.7935 89.7016 58.0403 88.3885 58.5339 87.1685C59.0369 85.9393 59.726 84.8636 60.6015 83.9417C61.4862 83.0104 62.5106 82.2841 63.6748 81.7626C64.8389 81.2318 66.0821 80.9664 67.4046 80.9664C68.9877 80.9665 70.4452 81.3343 71.7769 82.0701C73.1086 82.7965 74.2122 83.7698 75.0876 84.9898L72.0422 86.6241C71.4928 85.9442 70.8083 85.3994 69.9888 84.9896C69.1786 84.5798 68.3171 84.3749 67.4045 84.3749C66.5477 84.3749 65.7421 84.5518 64.9878 84.9057C64.2334 85.2502 63.5722 85.7345 63.0041 86.3584C62.436 86.9731 61.9936 87.6901 61.677 88.5097C61.3603 89.3199 61.202 90.186 61.202 91.1079C61.2019 92.0392 61.3602 92.91 61.6768 93.7202C62.0028 94.5304 62.4498 95.2475 63.0178 95.8715C63.5859 96.4862 64.2424 96.9704 64.9875 97.3244C65.7418 97.6689 66.5474 97.8413 67.4041 97.8413C68.3354 97.8413 69.2015 97.6364 70.0024 97.2267C70.8127 96.8076 71.4925 96.2582 72.042 95.5784L75.0872 97.2268C74.2118 98.4375 73.1082 99.4106 71.7765 100.146C70.4447 100.882 68.9872 101.25 67.404 101.25ZM89.5155 86.9179L92.924 86.918L92.9237 100.887L89.5152 100.887L89.3616 99.1549C88.9797 99.7789 88.4722 100.286 87.8389 100.678C87.2149 101.059 86.4745 101.25 85.6177 101.25C84.584 101.25 83.6155 101.055 82.7122 100.663C81.8088 100.272 81.0126 99.7321 80.3235 99.043C79.6436 98.3538 79.1082 97.5575 78.717 96.6542C78.3352 95.7508 78.1444 94.7823 78.1444 93.7486C78.1444 92.7521 78.326 91.8161 78.6893 90.9408C79.0618 90.0654 79.5787 89.2971 80.2399 88.6359C80.9011 87.9747 81.6648 87.4578 82.5309 87.0853C83.397 86.7128 84.3283 86.5266 85.3248 86.5266C86.2467 86.5267 87.0709 86.7316 87.7973 87.1413C88.533 87.5511 89.157 88.0727 89.6691 88.7059L89.5155 86.9179ZM85.534 97.9675C86.2604 97.9675 86.903 97.7859 87.4618 97.4227C88.0206 97.0595 88.4583 96.5706 88.7749 95.956C89.0916 95.332 89.2499 94.6475 89.2499 93.9025C89.25 93.1482 89.0917 92.4637 88.775 91.849C88.4584 91.225 88.0161 90.7314 87.448 90.3682C86.8892 90.005 86.2513 89.8234 85.5342 89.8234C84.8171 89.8234 84.1606 90.0096 83.5645 90.3821C82.9778 90.7453 82.5075 91.2342 82.1536 91.8488C81.809 92.4635 81.6367 93.148 81.6367 93.9023C81.6367 94.6566 81.8136 95.3411 82.1675 95.9558C82.5213 96.5705 82.9916 97.0594 83.5783 97.4226C84.1743 97.7858 84.8262 97.9674 85.534 97.9675ZM97.7168 100.887L97.7032 86.9181L101.112 86.9182L101.126 88.1614C101.601 87.6586 102.169 87.2628 102.83 86.9741C103.491 86.6761 104.204 86.5271 104.967 86.5271C105.479 86.5271 105.992 86.6017 106.504 86.7507L105.163 90.1871C104.809 90.0474 104.455 89.9775 104.101 89.9775C103.552 89.9775 103.049 90.1125 102.592 90.3826C102.145 90.6433 101.787 91.0019 101.517 91.4582C101.256 91.9052 101.126 92.4034 101.126 92.9529L101.125 100.887L97.7168 100.887ZM117.498 86.5275C118.858 86.5275 120.097 86.8581 121.214 87.5194C122.332 88.1806 123.221 89.07 123.882 90.1876C124.543 91.2958 124.874 92.5251 124.874 93.8755C124.874 94.8906 124.683 95.8451 124.301 96.7391C123.919 97.6332 123.388 98.4201 122.709 99.0999C122.038 99.7704 121.256 100.297 120.362 100.678C119.477 101.06 118.522 101.251 117.498 101.251C116.623 101.251 115.845 101.055 115.165 100.664C114.495 100.264 113.931 99.7469 113.475 99.1136L113.475 100.888L110.066 100.888L110.067 79.9338L113.475 79.9339L113.475 88.6646C113.931 88.0314 114.495 87.5192 115.165 87.1281C115.845 86.7276 116.623 86.5274 117.498 86.5275ZM117.456 97.9543C118.183 97.9543 118.839 97.7727 119.426 97.4095C120.022 97.0371 120.497 96.5435 120.851 95.9288C121.205 95.3142 121.382 94.6297 121.382 93.8754C121.382 93.1304 121.205 92.4505 120.851 91.8359C120.497 91.2119 120.022 90.7183 119.426 90.3551C118.83 89.9919 118.173 89.8102 117.456 89.8102C116.749 89.8102 116.115 89.9964 115.556 90.3689C114.998 90.7321 114.56 91.2257 114.243 91.8497C113.927 92.4643 113.768 93.1395 113.768 93.8752C113.768 94.6295 113.927 95.3187 114.243 95.9426C114.56 96.5573 114.998 97.0462 115.556 97.4095C116.115 97.7727 116.748 97.9543 117.456 97.9543ZM135.261 101.251C133.976 101.251 132.802 100.921 131.74 100.26C130.688 99.5984 129.845 98.7136 129.212 97.6054C128.588 96.4878 128.276 95.2539 128.276 93.9035C128.276 92.8791 128.458 91.9245 128.821 91.0398C129.184 90.1458 129.683 89.3635 130.316 88.693C130.958 88.0132 131.704 87.4824 132.551 87.1006C133.398 86.7188 134.302 86.5279 135.261 86.5279C136.546 86.5279 137.715 86.8586 138.767 87.5198C139.829 88.181 140.672 89.0704 141.296 90.188C141.929 91.3056 142.246 92.5442 142.245 93.9038C142.245 94.9189 142.064 95.8688 141.701 96.7536C141.337 97.6383 140.834 98.4205 140.192 99.1004C139.559 99.7709 138.818 100.297 137.971 100.679C137.133 101.061 136.229 101.252 135.261 101.251ZM135.261 97.843C135.941 97.843 136.551 97.6614 137.091 97.2982C137.631 96.9351 138.055 96.4555 138.362 95.8594C138.679 95.2634 138.837 94.6115 138.837 93.9038C138.837 93.1774 138.674 92.5161 138.348 91.9201C138.031 91.3148 137.598 90.8351 137.049 90.4812C136.509 90.118 135.913 89.9364 135.261 89.9364C134.59 89.9364 133.985 90.118 133.445 90.4812C132.905 90.8443 132.476 91.3286 132.16 91.9339C131.843 92.5393 131.685 93.1958 131.685 93.9036C131.685 94.6393 131.848 95.3052 132.174 95.9012C132.5 96.4972 132.933 96.9722 133.473 97.3261C134.022 97.6707 134.618 97.843 135.261 97.843ZM159.212 92.0603L159.212 100.889L155.803 100.889L155.804 92.9543C155.804 92.4048 155.669 91.9066 155.398 91.4596C155.128 91.0032 154.765 90.6447 154.309 90.3839C153.862 90.1138 153.364 89.9788 152.814 89.9788C152.265 89.9787 151.762 90.1138 151.305 90.3838C150.858 90.6446 150.5 91.0031 150.23 91.4594C149.969 91.9064 149.839 92.4047 149.839 92.9541L149.838 100.889L146.43 100.889L146.416 86.9193L149.825 86.9194L149.839 88.1627C150.314 87.6598 150.882 87.264 151.543 86.9753C152.204 86.6773 152.917 86.5283 153.68 86.5284C154.695 86.5284 155.622 86.7799 156.46 87.2828C157.298 87.7764 157.964 88.4423 158.458 89.2804C158.961 90.1093 159.212 91.0359 159.212 92.0603ZM76.0131 135.25C74.6907 135.25 73.4475 134.989 72.2834 134.468C71.1193 133.937 70.0949 133.206 69.2102 132.274C68.3348 131.343 67.6457 130.267 67.1428 129.047C66.6493 127.818 66.4025 126.505 66.4026 125.108C66.4026 123.702 66.6494 122.389 67.143 121.169C67.6459 119.939 68.3351 118.864 69.2106 117.942C70.0953 117.011 71.1197 116.284 72.2838 115.763C73.448 115.232 74.6912 114.967 76.0137 114.967C77.5968 114.967 79.0543 115.335 80.386 116.07C81.7177 116.797 82.8213 117.77 83.6966 118.99L80.6513 120.624C80.1019 119.944 79.4174 119.4 78.5979 118.99C77.7877 118.58 76.9262 118.375 76.0136 118.375C75.1568 118.375 74.3512 118.552 73.5969 118.906C72.8425 119.25 72.1813 119.735 71.6132 120.359C71.0451 120.973 70.6027 121.69 70.2861 122.51C69.9694 123.32 69.8111 124.186 69.811 125.108C69.811 126.039 69.9693 126.91 70.2859 127.72C70.6119 128.531 71.0589 129.248 71.6269 129.872C72.195 130.486 72.8515 130.971 73.5966 131.325C74.3509 131.669 75.1564 131.841 76.0132 131.841C76.9445 131.842 77.8106 131.637 78.6115 131.227C79.4218 130.808 80.1016 130.258 80.6511 129.579L83.6963 131.227C82.8209 132.438 81.7173 133.411 80.3855 134.147C79.0538 134.882 77.5963 135.25 76.0131 135.25ZM88.2329 134.887L88.2193 120.918L91.6278 120.918L91.6418 122.161C92.1167 121.658 92.6848 121.263 93.346 120.974C94.0073 120.676 94.7197 120.527 95.4834 120.527C95.9956 120.527 96.5078 120.601 97.02 120.75L95.6788 124.187C95.3249 124.047 94.9711 123.977 94.6172 123.977C94.0677 123.977 93.5648 124.112 93.1085 124.382C92.6615 124.643 92.3029 125.002 92.0328 125.458C91.772 125.905 91.6417 126.403 91.6416 126.953L91.6414 134.887L88.2329 134.887ZM106.074 135.251C104.789 135.251 103.615 134.92 102.554 134.259C101.501 133.598 100.659 132.708 100.025 131.591C99.4015 130.473 99.0896 129.239 99.0896 127.889C99.0896 126.874 99.2713 125.924 99.6345 125.039C99.9977 124.145 100.496 123.363 101.129 122.692C101.772 122.012 102.517 121.482 103.364 121.1C104.212 120.718 105.115 120.527 106.074 120.527C107.164 120.527 108.16 120.76 109.064 121.226C109.976 121.682 110.749 122.311 111.383 123.112C112.016 123.913 112.477 124.825 112.766 125.85C113.054 126.874 113.119 127.945 112.961 129.063L102.75 129.062C102.88 129.584 103.094 130.054 103.392 130.473C103.69 130.883 104.067 131.214 104.524 131.465C104.98 131.707 105.497 131.833 106.074 131.842C106.67 131.852 107.21 131.712 107.695 131.423C108.188 131.125 108.598 130.725 108.924 130.222L112.402 131.032C111.834 132.271 110.987 133.286 109.86 134.077C108.733 134.86 107.471 135.251 106.074 135.251ZM102.638 126.506L109.511 126.506C109.408 125.947 109.189 125.444 108.854 124.997C108.528 124.541 108.123 124.178 107.639 123.908C107.155 123.638 106.633 123.503 106.074 123.503C105.516 123.503 104.999 123.638 104.524 123.908C104.049 124.168 103.644 124.527 103.308 124.983C102.982 125.43 102.759 125.938 102.638 126.506ZM127.845 113.934L131.254 113.934L131.253 134.888L127.845 134.888L127.845 133.142C127.398 133.766 126.834 134.273 126.154 134.665C125.475 135.056 124.688 135.251 123.794 135.251C122.778 135.251 121.829 135.06 120.944 134.678C120.059 134.297 119.277 133.77 118.597 133.1C117.927 132.42 117.4 131.638 117.019 130.753C116.637 129.868 116.446 128.918 116.446 127.903C116.446 126.888 116.637 125.938 117.019 125.053C117.401 124.169 117.927 123.391 118.597 122.721C119.277 122.041 120.059 121.51 120.944 121.128C121.829 120.746 122.779 120.556 123.794 120.556C124.688 120.556 125.475 120.751 126.155 121.142C126.835 121.524 127.398 122.032 127.845 122.665L127.845 113.934ZM123.836 131.968C124.562 131.968 125.205 131.787 125.763 131.424C126.322 131.06 126.76 130.572 127.076 129.957C127.393 129.333 127.551 128.648 127.551 127.903C127.552 127.149 127.393 126.465 127.077 125.85C126.76 125.226 126.318 124.732 125.75 124.369C125.191 124.006 124.553 123.824 123.836 123.824C123.119 123.824 122.462 124.011 121.866 124.383C121.279 124.746 120.809 125.235 120.455 125.85C120.111 126.464 119.938 127.149 119.938 127.903C119.938 128.658 120.115 129.342 120.469 129.957C120.823 130.571 121.293 131.06 121.88 131.424C122.476 131.787 123.128 131.968 123.836 131.968ZM136.605 120.919L140.014 120.919L140.013 134.888L136.605 134.888L136.605 120.919ZM138.337 119.117C137.834 119.117 137.411 118.954 137.066 118.628C136.722 118.293 136.549 117.874 136.549 117.371C136.549 116.877 136.722 116.463 137.066 116.128C137.411 115.792 137.83 115.625 138.323 115.625C138.817 115.625 139.231 115.792 139.567 116.128C139.911 116.463 140.083 116.877 140.083 117.371C140.083 117.874 139.916 118.293 139.581 118.628C139.245 118.954 138.831 119.117 138.337 119.117ZM152.854 124.328L150.144 124.328L150.144 134.889L146.736 134.889L146.736 124.328L144.668 124.328L144.669 120.919L146.736 120.919L146.736 116.533L150.145 116.533L150.144 120.919L152.855 120.919L152.854 124.328Z" fill="white"/>
</g>
<defs>
<clipPath id="clip0_219_417">
<rect width="217.508" height="217.664" fill="white"/>
</clipPath>
</defs>
</svg>
