<svg width="218" height="218" viewBox="0 0 218 218" fill="none" xmlns="http://www.w3.org/2000/svg">
<g clip-path="url(#clip0_219_413)">
<path d="M200.545 108.832C200.545 159.582 159.438 200.701 108.754 200.701C58.0705 200.701 16.9627 159.582 16.9627 108.832C16.9627 58.0825 58.0705 16.9627 108.754 16.9627C159.438 16.9627 200.545 58.0825 200.545 108.832Z" fill="black" stroke="#002321" stroke-width="33.9253"/>
<path d="M67.404 101.25C66.0816 101.249 64.8384 100.989 63.6743 100.467C62.5102 99.9363 61.4858 99.2052 60.6011 98.2739C59.7257 97.3426 59.0366 96.267 58.5337 95.047C58.0402 93.8176 57.7934 92.5045 57.7935 91.1076C57.7935 89.7014 58.0403 88.3883 58.5339 87.1683C59.0369 85.939 59.726 84.8634 60.6015 83.9414C61.4862 83.0102 62.5106 82.2838 63.6748 81.7623C64.8389 81.2315 66.0821 80.9661 67.4046 80.9662C68.9877 80.9662 70.4452 81.3341 71.7769 82.0699C73.1086 82.7963 74.2122 83.7695 75.0876 84.9895L72.0422 86.6238C71.4928 85.944 70.8083 85.3992 69.9888 84.9894C69.1786 84.5796 68.3171 84.3747 67.4045 84.3747C66.5477 84.3746 65.7421 84.5516 64.9878 84.9054C64.2334 85.25 63.5722 85.7342 63.0041 86.3582C62.436 86.9728 61.9936 87.6899 61.677 88.5094C61.3603 89.3196 61.202 90.1857 61.202 91.1077C61.2019 92.039 61.3602 92.9097 61.6768 93.72C62.0028 94.5302 62.4498 95.2473 63.0178 95.8713C63.5859 96.4859 64.2424 96.9702 64.9875 97.3241C65.7418 97.6687 66.5474 97.841 67.4041 97.841C68.3354 97.8411 69.2015 97.6362 70.0024 97.2265C70.8127 96.8074 71.4925 96.258 72.042 95.5781L75.0872 97.2266C74.2118 98.4372 73.1082 99.4104 71.7765 100.146C70.4447 100.882 68.9872 101.25 67.404 101.25ZM89.5155 86.9176L92.924 86.9177L92.9237 100.887L89.5152 100.887L89.3616 99.1547C88.9797 99.7786 88.4722 100.286 87.8389 100.677C87.2149 101.059 86.4745 101.25 85.6177 101.25C84.584 101.25 83.6155 101.054 82.7122 100.663C81.8088 100.272 81.0126 99.7319 80.3235 99.0427C79.6436 98.3535 79.1082 97.5573 78.717 96.6539C78.3352 95.7506 78.1444 94.782 78.1444 93.7483C78.1444 92.7518 78.326 91.8159 78.6893 90.9405C79.0618 90.0651 79.5787 89.2968 80.2399 88.6356C80.9011 87.9744 81.6648 87.4576 82.5309 87.0851C83.397 86.7126 84.3283 86.5264 85.3248 86.5264C86.2467 86.5264 87.0709 86.7313 87.7973 87.1411C88.533 87.5509 89.157 88.0724 89.6691 88.7057L89.5155 86.9176ZM85.534 97.9672C86.2604 97.9672 86.903 97.7856 87.4618 97.4225C88.0206 97.0593 88.4583 96.5704 88.7749 95.9557C89.0916 95.3318 89.2499 94.6473 89.2499 93.9023C89.25 93.1479 89.0917 92.4634 88.775 91.8488C88.4584 91.2248 88.0161 90.7312 87.448 90.368C86.8892 90.0048 86.2513 89.8232 85.5342 89.8231C84.8171 89.8231 84.1606 90.0094 83.5645 90.3819C82.9778 90.745 82.5075 91.234 82.1536 91.8486C81.809 92.4632 81.6367 93.1477 81.6367 93.9021C81.6367 94.6564 81.8136 95.3409 82.1675 95.9556C82.5213 96.5702 82.9916 97.0591 83.5783 97.4224C84.1743 97.7856 84.8262 97.9672 85.534 97.9672ZM97.7168 100.887L97.7032 86.9178L101.112 86.9179L101.126 88.1612C101.601 87.6583 102.169 87.2625 102.83 86.9738C103.491 86.6759 104.204 86.5269 104.967 86.5269C105.479 86.5269 105.992 86.6014 106.504 86.7504L105.163 90.1868C104.809 90.0471 104.455 89.9773 104.101 89.9773C103.552 89.9773 103.049 90.1123 102.592 90.3823C102.145 90.6431 101.787 91.0016 101.517 91.4579C101.256 91.905 101.126 92.4032 101.126 92.9526L101.125 100.887L97.7168 100.887ZM117.498 86.5272C118.858 86.5272 120.097 86.8579 121.214 87.5191C122.332 88.1804 123.221 89.0698 123.882 90.1873C124.543 91.2956 124.874 92.5249 124.874 93.8752C124.874 94.8903 124.683 95.8449 124.301 96.7389C123.919 97.6329 123.388 98.4198 122.709 99.0997C122.038 99.7702 121.256 100.296 120.362 100.678C119.477 101.06 118.522 101.251 117.498 101.251C116.623 101.251 115.845 101.055 115.165 100.664C114.495 100.264 113.931 99.7467 113.475 99.1134L113.475 100.887L110.066 100.887L110.067 79.9335L113.475 79.9336L113.475 88.6644C113.931 88.0311 114.495 87.5189 115.165 87.1278C115.845 86.7274 116.623 86.5272 117.498 86.5272ZM117.456 97.9541C118.183 97.9541 118.839 97.7725 119.426 97.4093C120.022 97.0368 120.497 96.5432 120.851 95.9286C121.205 95.314 121.382 94.6295 121.382 93.8751C121.382 93.1301 121.205 92.4503 120.851 91.8356C120.497 91.2116 120.022 90.718 119.426 90.3548C118.83 89.9916 118.173 89.81 117.456 89.81C116.749 89.81 116.115 89.9962 115.556 90.3687C114.998 90.7319 114.56 91.2255 114.243 91.8494C113.927 92.464 113.768 93.1392 113.768 93.8749C113.768 94.6293 113.927 95.3184 114.243 95.9424C114.56 96.5571 114.998 97.046 115.556 97.4092C116.115 97.7724 116.748 97.954 117.456 97.9541ZM135.261 101.251C133.976 101.251 132.802 100.921 131.74 100.259C130.688 99.5981 129.845 98.7134 129.212 97.6051C128.588 96.4876 128.276 95.2536 128.276 93.9032C128.276 92.8788 128.458 91.9243 128.821 91.0396C129.184 90.1455 129.683 89.3633 130.316 88.6928C130.958 88.0129 131.704 87.4821 132.551 87.1003C133.398 86.7185 134.302 86.5276 135.261 86.5277C136.546 86.5277 137.715 86.8583 138.767 87.5196C139.829 88.1808 140.672 89.0702 141.296 90.1878C141.929 91.3053 142.246 92.5439 142.245 93.9036C142.245 94.9187 142.064 95.8686 141.701 96.7533C141.337 97.638 140.834 98.4203 140.192 99.1001C139.559 99.7706 138.818 100.297 137.971 100.679C137.133 101.06 136.229 101.251 135.261 101.251ZM135.261 97.8428C135.941 97.8428 136.551 97.6612 137.091 97.298C137.631 96.9348 138.055 96.4552 138.362 95.8592C138.679 95.2632 138.837 94.6113 138.837 93.9035C138.837 93.1771 138.674 92.5159 138.348 91.9199C138.031 91.3145 137.598 90.8349 137.049 90.481C136.509 90.1178 135.913 89.9362 135.261 89.9362C134.59 89.9361 133.985 90.1177 133.445 90.4809C132.905 90.8441 132.476 91.3284 132.16 91.9337C131.843 92.539 131.685 93.1956 131.685 93.9033C131.685 94.639 131.848 95.3049 132.174 95.9009C132.5 96.497 132.933 96.9719 133.473 97.3258C134.022 97.6704 134.618 97.8427 135.261 97.8428ZM159.212 92.0601L159.212 100.889L155.803 100.889L155.804 92.954C155.804 92.4046 155.669 91.9063 155.398 91.4593C155.128 91.003 154.765 90.6444 154.309 90.3837C153.862 90.1136 153.364 89.9785 152.814 89.9785C152.265 89.9785 151.762 90.1135 151.305 90.3836C150.858 90.6443 150.5 91.0029 150.23 91.4592C149.969 91.9062 149.839 92.4044 149.839 92.9539L149.838 100.888L146.43 100.888L146.416 86.9191L149.825 86.9192L149.839 88.1624C150.314 87.6595 150.882 87.2638 151.543 86.9751C152.204 86.6771 152.917 86.5281 153.68 86.5281C154.695 86.5282 155.622 86.7796 156.46 87.2825C157.298 87.7761 157.964 88.442 158.458 89.2802C158.961 90.109 159.212 91.0357 159.212 92.0601ZM76.0131 135.25C74.6907 135.25 73.4475 134.989 72.2834 134.467C71.1193 133.937 70.0949 133.205 69.2102 132.274C68.3348 131.343 67.6457 130.267 67.1428 129.047C66.6493 127.818 66.4025 126.505 66.4026 125.108C66.4026 123.702 66.6494 122.388 67.143 121.169C67.6459 119.939 68.3351 118.864 69.2106 117.942C70.0953 117.01 71.1197 116.284 72.2838 115.763C73.448 115.232 74.6912 114.966 76.0137 114.966C77.5968 114.966 79.0543 115.334 80.386 116.07C81.7177 116.797 82.8213 117.77 83.6966 118.99L80.6513 120.624C80.1019 119.944 79.4174 119.399 78.5979 118.99C77.7877 118.58 76.9262 118.375 76.0136 118.375C75.1568 118.375 74.3512 118.552 73.5969 118.906C72.8425 119.25 72.1813 119.734 71.6132 120.358C71.0451 120.973 70.6027 121.69 70.2861 122.51C69.9694 123.32 69.8111 124.186 69.811 125.108C69.811 126.039 69.9693 126.91 70.2859 127.72C70.6119 128.53 71.0589 129.247 71.6269 129.871C72.195 130.486 72.8515 130.97 73.5966 131.324C74.3509 131.669 75.1564 131.841 76.0132 131.841C76.9445 131.841 77.8106 131.636 78.6115 131.227C79.4218 130.808 80.1016 130.258 80.6511 129.578L83.6963 131.227C82.8209 132.437 81.7173 133.411 80.3855 134.146C79.0538 134.882 77.5963 135.25 76.0131 135.25ZM88.2329 134.887L88.2193 120.918L91.6278 120.918L91.6418 122.161C92.1167 121.658 92.6848 121.262 93.346 120.974C94.0073 120.676 94.7197 120.527 95.4834 120.527C95.9956 120.527 96.5078 120.601 97.02 120.75L95.6788 124.187C95.3249 124.047 94.9711 123.977 94.6172 123.977C94.0677 123.977 93.5648 124.112 93.1085 124.382C92.6615 124.643 92.3029 125.001 92.0328 125.458C91.772 125.905 91.6417 126.403 91.6416 126.952L91.6414 134.887L88.2329 134.887ZM106.074 135.251C104.789 135.25 103.615 134.92 102.554 134.259C101.501 133.597 100.659 132.708 100.025 131.59C99.4015 130.473 99.0896 129.239 99.0896 127.889C99.0896 126.873 99.2713 125.924 99.6345 125.039C99.9977 124.145 100.496 123.363 101.129 122.692C101.772 122.012 102.517 121.481 103.364 121.1C104.212 120.718 105.115 120.527 106.074 120.527C107.164 120.527 108.16 120.76 109.064 121.225C109.976 121.682 110.749 122.31 111.383 123.111C112.016 123.912 112.477 124.825 112.766 125.849C113.054 126.874 113.119 127.945 112.961 129.062L102.75 129.062C102.88 129.584 103.094 130.054 103.392 130.473C103.69 130.883 104.067 131.213 104.524 131.465C104.98 131.707 105.497 131.833 106.074 131.842C106.67 131.851 107.21 131.712 107.695 131.423C108.188 131.125 108.598 130.725 108.924 130.222L112.402 131.032C111.834 132.271 110.987 133.286 109.86 134.077C108.733 134.859 107.471 135.251 106.074 135.251ZM102.638 126.506L109.511 126.506C109.408 125.947 109.189 125.444 108.854 124.997C108.528 124.541 108.123 124.178 107.639 123.908C107.155 123.637 106.633 123.502 106.074 123.502C105.516 123.502 104.999 123.637 104.524 123.907C104.049 124.168 103.644 124.527 103.308 124.983C102.982 125.43 102.759 125.938 102.638 126.506ZM127.845 113.934L131.254 113.934L131.253 134.888L127.845 134.888L127.845 133.142C127.398 133.766 126.834 134.273 126.154 134.664C125.475 135.055 124.688 135.251 123.794 135.251C122.778 135.251 121.829 135.06 120.944 134.678C120.059 134.296 119.277 133.77 118.597 133.1C117.927 132.42 117.4 131.637 117.019 130.753C116.637 129.868 116.446 128.918 116.446 127.903C116.446 126.888 116.637 125.938 117.019 125.053C117.401 124.169 117.927 123.391 118.597 122.72C119.277 122.041 120.059 121.51 120.944 121.128C121.829 120.746 122.779 120.555 123.794 120.555C124.688 120.555 125.475 120.751 126.155 121.142C126.835 121.524 127.398 122.031 127.845 122.665L127.845 113.934ZM123.836 131.968C124.562 131.968 125.205 131.787 125.763 131.423C126.322 131.06 126.76 130.571 127.076 129.957C127.393 129.333 127.551 128.648 127.551 127.903C127.552 127.149 127.393 126.464 127.077 125.85C126.76 125.226 126.318 124.732 125.75 124.369C125.191 124.006 124.553 123.824 123.836 123.824C123.119 123.824 122.462 124.01 121.866 124.383C121.279 124.746 120.809 125.235 120.455 125.85C120.111 126.464 119.938 127.149 119.938 127.903C119.938 128.657 120.115 129.342 120.469 129.957C120.823 130.571 121.293 131.06 121.88 131.423C122.476 131.787 123.128 131.968 123.836 131.968ZM136.605 120.919L140.014 120.919L140.013 134.888L136.605 134.888L136.605 120.919ZM138.337 119.117C137.834 119.117 137.411 118.954 137.066 118.628C136.722 118.293 136.549 117.874 136.549 117.371C136.549 116.877 136.722 116.463 137.066 116.127C137.411 115.792 137.83 115.625 138.323 115.625C138.817 115.625 139.231 115.792 139.567 116.127C139.911 116.463 140.083 116.877 140.083 117.371C140.083 117.874 139.916 118.293 139.581 118.628C139.245 118.954 138.831 119.117 138.337 119.117ZM152.854 124.328L150.144 124.328L150.144 134.888L146.736 134.888L146.736 124.328L144.668 124.328L144.669 120.919L146.736 120.919L146.736 116.533L150.145 116.533L150.144 120.919L152.855 120.919L152.854 124.328Z" fill="white"/>
</g>
<defs>
<clipPath id="clip0_219_413">
<rect width="217.508" height="217.664" fill="white"/>
</clipPath>
</defs>
</svg>
