<svg width="400" height="400" viewBox="0 0 400 400" fill="none" xmlns="http://www.w3.org/2000/svg">
<g clip-path="url(#clip0_219_414)">
<path d="M378.991 200.243C378.991 298.972 299.017 378.981 200.396 378.981C101.775 378.981 21.8015 298.972 21.8015 200.243C21.8015 101.515 101.775 21.5056 200.396 21.5056C299.017 21.5056 378.991 101.515 378.991 200.243Z" fill="#072C2A" stroke="#01413E" stroke-width="41.9078"/>
<path d="M369.363 209.422C369.391 208.188 369.61 207.006 370.02 205.876C370.439 204.757 371.021 203.781 371.764 202.946C372.518 202.112 373.41 201.521 374.44 201.172L375.696 204.858C375.267 204.997 374.872 205.291 374.51 205.741C374.148 206.19 373.853 206.742 373.625 207.397C373.397 208.052 373.274 208.757 373.257 209.512C373.239 210.289 373.339 211.015 373.558 211.691C373.787 212.378 374.109 212.934 374.525 213.358C374.952 213.783 375.453 214.003 376.027 214.016C376.612 214.03 377.096 213.823 377.479 213.395C377.872 212.968 378.188 212.416 378.427 211.74C378.666 211.064 378.853 210.366 378.987 209.645C379.268 208.065 379.679 206.654 380.219 205.41C380.758 204.166 381.489 203.188 382.41 202.475C383.332 201.772 384.51 201.437 385.947 201.471C387.298 201.502 388.47 201.918 389.463 202.718C390.456 203.518 391.22 204.558 391.754 205.837C392.289 207.116 392.539 208.49 392.505 209.959C392.477 211.182 392.258 212.359 391.849 213.488C391.439 214.618 390.858 215.6 390.104 216.434C389.35 217.279 388.452 217.876 387.412 218.224L386.172 214.523C386.601 214.383 386.996 214.089 387.358 213.64C387.72 213.19 388.009 212.638 388.227 211.983C388.455 211.328 388.578 210.623 388.595 209.868C388.623 209.113 388.517 208.392 388.278 207.705C388.049 207.029 387.726 206.473 387.31 206.037C386.895 205.602 386.41 205.378 385.857 205.365C385.144 205.348 384.602 205.533 384.231 205.918C383.86 206.314 383.582 206.845 383.396 207.512C383.221 208.178 383.054 208.92 382.897 209.736C382.629 211.22 382.203 212.589 381.62 213.842C381.038 215.096 380.275 216.095 379.331 216.839C378.398 217.584 377.267 217.941 375.937 217.91C374.586 217.879 373.408 217.468 372.404 216.679C371.411 215.889 370.647 214.855 370.113 213.575C369.578 212.296 369.328 210.912 369.363 209.422Z" fill="white"/>
<path d="M366.989 230.219C367.243 228.449 367.898 226.957 368.954 225.743C370.008 224.54 371.315 223.674 372.874 223.145C374.444 222.618 376.12 222.482 377.9 222.738L390.795 224.589L390.242 228.445L377.347 226.594C376.294 226.443 375.297 226.498 374.356 226.761C373.424 227.036 372.642 227.504 372.009 228.166C371.386 228.84 370.998 229.709 370.845 230.773C370.691 231.848 370.819 232.791 371.23 233.602C371.651 234.415 372.271 235.074 373.091 235.579C373.92 236.096 374.862 236.43 375.915 236.582L388.81 238.433L388.257 242.289L375.362 240.437C374.024 240.245 372.801 239.855 371.692 239.265C370.593 238.677 369.658 237.93 368.884 237.024C368.111 236.117 367.555 235.085 367.215 233.929C366.874 232.783 366.799 231.547 366.989 230.219Z" fill="white"/>
<path d="M361.918 250.912C362.25 249.722 362.753 248.631 363.429 247.637C364.111 246.656 364.915 245.853 365.841 245.228C366.777 244.605 367.787 244.252 368.871 244.168L369.181 248.05C368.73 248.079 368.275 248.267 367.814 248.613C367.352 248.96 366.931 249.422 366.548 250C366.166 250.579 365.873 251.232 365.67 251.96C365.461 252.708 365.38 253.437 365.425 254.146C365.478 254.867 365.653 255.486 365.952 256C366.261 256.517 366.692 256.853 367.245 257.008C367.809 257.165 368.329 257.084 368.805 256.764C369.291 256.447 369.734 255.99 370.132 255.394C370.53 254.798 370.883 254.167 371.19 253.502C371.852 252.04 372.598 250.773 373.427 249.701C374.257 248.628 375.206 247.86 376.274 247.396C377.34 246.943 378.565 246.909 379.949 247.296C381.251 247.659 382.284 248.351 383.049 249.372C383.814 250.392 384.298 251.588 384.501 252.96C384.704 254.332 384.608 255.725 384.214 257.14C383.885 258.319 383.383 259.405 382.708 260.399C382.033 261.393 381.227 262.201 380.291 262.824C379.352 263.457 378.336 263.813 377.241 263.894L376.952 260.001C377.402 259.972 377.857 259.784 378.319 259.438C378.78 259.092 379.197 258.628 379.569 258.047C379.951 257.468 380.244 256.815 380.447 256.087C380.66 255.362 380.735 254.638 380.672 253.913C380.617 253.201 380.441 252.583 380.145 252.058C379.85 251.534 379.435 251.197 378.902 251.048C378.215 250.856 377.645 250.901 377.191 251.183C376.733 251.475 376.333 251.921 375.988 252.521C375.655 253.124 375.311 253.802 374.957 254.554C374.331 255.926 373.582 257.148 372.709 258.219C371.835 259.29 370.85 260.07 369.752 260.559C368.664 261.051 367.48 261.118 366.199 260.76C364.897 260.396 363.857 259.708 363.079 258.695C362.311 257.685 361.825 256.494 361.622 255.122C361.419 253.75 361.518 252.347 361.918 250.912Z" fill="white"/>
<path d="M372.347 286.771L368.748 285.28L371.361 278.966L354.312 271.9L355.802 268.3L372.851 275.367L375.464 269.053L379.062 270.545L372.347 286.771Z" fill="white"/>
<path d="M365.465 298.331L363.255 302.236L339.808 298.291L341.844 294.692L345.996 295.393L350.713 287.056L347.975 283.854L350.011 280.255L365.465 298.331ZM353.402 290.213L350.093 296.063L359.766 297.672L353.402 290.213Z" fill="white"/>
<path d="M336.316 301.705L354.241 315.056L351.916 318.182L333.991 304.83L336.316 301.705Z" fill="white"/>
<path d="M330.573 309.008L347.478 323.629L344.723 326.819L326.976 323.945L338.556 333.96L336.01 336.908L319.105 322.287L321.849 319.11L339.607 321.972L328.026 311.957L330.573 309.008Z" fill="white"/>
<path d="M314.627 325.639L329.722 342.123L326.851 344.756L311.756 328.272L314.627 325.639Z" fill="#D8F4E7"/>
<path d="M315.559 353.928L312.031 356.699L291.848 344.13L295.1 341.576L298.673 343.804L306.206 337.888L304.893 333.885L308.145 331.331L315.559 353.928ZM307.493 341.831L302.207 345.982L310.54 351.15L307.493 341.831Z" fill="#79ECA5"/>
<path d="M288.414 345.388L295.721 366.956L292.921 368.556L281.097 358.819L283.467 373.958L280.667 375.558L265.82 358.3L269.271 356.327L278.452 367.005L276.219 352.945L278.534 351.622L289.499 360.692L284.962 347.361L288.414 345.388Z" fill="#79ECA5"/>
<path d="M99.7037 336.373C100.718 337.077 101.583 337.912 102.3 338.877C103.002 339.844 103.496 340.868 103.783 341.948C104.063 343.038 104.065 344.108 103.788 345.16L100.022 344.176C100.142 343.741 100.114 343.249 99.9388 342.699C99.7632 342.149 99.4651 341.599 99.0446 341.047C98.624 340.496 98.1035 340.004 97.483 339.573C96.8449 339.13 96.1838 338.813 95.4997 338.623C94.8008 338.435 94.1595 338.398 93.576 338.511C92.9863 338.632 92.5277 338.929 92.2 339.401C91.8663 339.882 91.7724 340.4 91.9184 340.955C92.0583 341.519 92.3442 342.087 92.7762 342.66C93.2081 343.232 93.6879 343.773 94.2155 344.282C95.3782 345.388 96.3296 346.509 97.0697 347.646C97.8098 348.782 98.2235 349.931 98.3108 351.094C98.3894 352.25 98.0191 353.418 97.2 354.599C96.4294 355.709 95.4369 356.458 94.2224 356.846C93.0079 357.233 91.7199 357.297 90.3582 357.038C88.9965 356.778 87.7126 356.23 86.5065 355.391C85.5014 354.693 84.6404 353.861 83.9237 352.897C83.2069 351.932 82.7083 350.905 82.4277 349.816C82.1384 348.721 82.1351 347.643 82.4178 346.582L86.1886 347.589C86.0682 348.023 86.0958 348.516 86.2714 349.065C86.447 349.615 86.7481 350.161 87.1747 350.704C87.5953 351.255 88.1158 351.747 88.7364 352.178C89.3508 352.618 90.0106 352.927 90.7156 353.106C91.4058 353.288 92.047 353.325 92.6393 353.218C93.2317 353.111 93.6856 352.831 94.0011 352.376C94.4076 351.79 94.5524 351.236 94.4353 350.714C94.3094 350.186 94.0198 349.661 93.5662 349.138C93.1066 348.624 92.5797 348.077 91.9856 347.495C90.8955 346.453 89.9881 345.343 89.2636 344.165C88.539 342.988 88.126 341.8 88.0246 340.602C87.9172 339.413 88.2427 338.271 89.0011 337.178C89.7717 336.068 90.7629 335.312 91.9747 334.909C93.1804 334.516 94.4641 334.449 95.8258 334.708C97.1875 334.968 98.4801 335.522 99.7037 336.373Z" fill="white"/>
<path d="M83.5389 322.765C84.8741 323.954 85.7565 325.324 86.1859 326.875C86.6074 328.42 86.6082 329.988 86.1885 331.581C85.7617 333.182 84.9507 334.655 83.7553 335.999L75.098 345.733L72.189 343.142L80.8463 333.408C81.5536 332.613 82.0573 331.75 82.3574 330.82C82.6424 329.891 82.6836 328.98 82.4809 328.087C82.2631 327.194 81.7529 326.391 80.9501 325.676C80.1394 324.954 79.2826 324.54 78.3797 324.434C77.4697 324.336 76.5781 324.49 75.7049 324.895C74.8167 325.301 74.0189 325.902 73.3116 326.697L64.6543 336.432L61.7453 333.841L70.4026 324.106C71.3009 323.096 72.3016 322.292 73.4046 321.692C74.5005 321.1 75.6397 320.732 76.8219 320.588C78.0042 320.444 79.1709 320.549 80.322 320.905C81.4651 321.253 82.5374 321.873 83.5389 322.765Z" fill="white"/>
<path d="M69.2081 307.233C70.0184 308.164 70.6529 309.185 71.1115 310.296C71.5551 311.406 71.7834 312.52 71.7966 313.638C71.8018 314.762 71.5414 315.801 71.0155 316.753L67.6048 314.876C67.828 314.484 67.9218 314 67.8862 313.424C67.8506 312.848 67.6965 312.241 67.4239 311.603C67.1513 310.965 66.767 310.362 66.271 309.791C65.761 309.205 65.1977 308.736 64.5811 308.384C63.9494 308.031 63.3368 307.838 62.7434 307.804C62.1419 307.778 61.6245 307.953 61.1912 308.331C60.7498 308.715 60.5319 309.195 60.5375 309.768C60.535 310.349 60.6731 310.97 60.9516 311.631C61.2302 312.292 61.5629 312.933 61.9496 313.556C62.806 314.914 63.4537 316.234 63.8928 317.517C64.332 318.8 64.4515 320.016 64.2514 321.164C64.0443 322.304 63.3991 323.346 62.3158 324.29C61.2966 325.178 60.1509 325.661 58.8786 325.739C57.6063 325.817 56.3418 325.564 55.0852 324.979C53.8285 324.394 52.7182 323.547 51.7541 322.439C50.9508 321.516 50.3198 320.499 49.8612 319.388C49.4026 318.277 49.1707 317.159 49.1656 316.034C49.1534 314.901 49.4143 313.855 49.9482 312.896L53.3574 314.796C53.1342 315.188 53.0404 315.672 53.076 316.248C53.1116 316.824 53.2697 317.427 53.5503 318.058C53.823 318.696 54.2073 319.3 54.7033 319.87C55.1912 320.447 55.7551 320.908 56.3947 321.255C57.0194 321.6 57.632 321.793 58.2324 321.834C58.8328 321.876 59.3417 321.715 59.759 321.351C60.2966 320.883 60.5726 320.381 60.587 319.847C60.5944 319.304 60.4422 318.723 60.1305 318.106C59.8108 317.495 59.4341 316.835 59.0005 316.126C58.1991 314.848 57.5913 313.549 57.1773 312.23C56.7633 310.911 56.6538 309.658 56.849 308.472C57.0362 307.293 57.6313 306.266 58.6344 305.392C59.6535 304.504 60.7998 304.013 62.0731 303.92C63.3385 303.834 64.5995 304.084 65.8561 304.669C67.1127 305.254 68.23 306.108 69.2081 307.233Z" fill="white"/>
<path d="M33.5117 296.171L36.7348 293.983L40.5684 299.64L55.8386 289.275L58.0241 292.5L42.7539 302.864L46.5875 308.52L43.3644 310.708L33.5117 296.171Z" fill="white"/>
<path d="M27.5406 283.846L25.5068 279.847L41.739 262.46L43.6135 266.145L40.7369 269.223L45.0795 277.761L49.2589 277.245L51.1335 280.93L27.5406 283.846ZM40.9643 278.262L37.9172 272.272L31.2361 279.455L40.9643 278.262Z" fill="white"/>
<path d="M40.9006 257.962L19.8891 265.583L18.5626 261.92L39.5741 254.3L40.9006 257.962Z" fill="white"/>
<path d="M37.9415 249.1L16.4149 255.114L15.2824 251.054L27.493 237.847L12.7472 241.966L11.7006 238.214L33.2272 232.2L34.3554 236.244L22.1491 249.467L36.8949 245.348L37.9415 249.1Z" fill="white"/>
<path d="M32.9495 227.07L10.877 230.586L10.265 226.739L32.3376 223.223L32.9495 227.07Z" fill="#D8F4E7"/>
<path d="M8.82403 212.186L8.4613 207.714L30.0817 197.805L30.416 201.927L26.5859 203.679L27.3604 213.227L31.4229 214.338L31.7572 218.46L8.82403 212.186ZM23.3629 212.126L22.8194 205.427L13.9103 209.53L23.3629 212.126Z" fill="#79ECA5"/>
<path d="M30.8968 193.832L8.87855 188.033L9.08977 184.815L23.736 180.322L9.8029 173.951L10.0141 170.733L32.6012 167.865L32.3409 171.832L18.3694 173.602L31.326 179.493L31.1514 182.153L17.536 186.298L31.1572 189.865L30.8968 193.832Z" fill="#79ECA5"/>
<path d="M131.882 45.3527C130.768 45.8843 129.615 46.2223 128.422 46.3667C127.234 46.4969 126.101 46.4187 125.021 46.1319C123.937 45.8355 123.007 45.3063 122.231 44.5442L124.954 41.7594C125.272 42.0796 125.712 42.2997 126.276 42.4197C126.841 42.5398 127.466 42.5538 128.153 42.4619C128.84 42.3699 129.525 42.1613 130.207 41.8359C130.908 41.5014 131.511 41.084 132.016 40.584C132.525 40.0697 132.876 39.531 133.067 38.9679C133.254 38.3952 133.224 37.8495 132.977 37.3306C132.725 36.8021 132.322 36.4637 131.768 36.3152C131.21 36.1572 130.575 36.124 129.864 36.2155C129.153 36.307 128.446 36.4557 127.742 36.6616C126.206 37.1234 124.761 37.3941 123.407 37.4736C122.054 37.5532 120.852 37.3427 119.8 36.8421C118.757 36.337 117.927 35.4359 117.309 34.1387C116.728 32.9184 116.571 31.6845 116.837 30.4372C117.103 29.1898 117.687 28.0389 118.587 26.9843C119.488 25.9297 120.601 25.0862 121.927 24.4538C123.031 23.9268 124.18 23.591 125.373 23.4466C126.565 23.3022 127.704 23.3782 128.788 23.6746C129.882 23.9664 130.819 24.4981 131.599 25.2697L128.855 28.047C128.538 27.7268 128.097 27.5067 127.533 27.3867C126.969 27.2667 126.345 27.2574 125.663 27.359C124.976 27.4509 124.291 27.6596 123.609 27.985C122.922 28.3007 122.327 28.7205 121.822 29.2444C121.322 29.7541 120.971 30.2928 120.77 30.8605C120.569 31.4281 120.587 31.9618 120.825 32.4614C121.132 33.1052 121.541 33.5057 122.052 33.6628C122.573 33.8154 123.172 33.8242 123.851 33.6892C124.524 33.5446 125.261 33.3584 126.06 33.1304C127.506 32.7002 128.919 32.4623 130.3 32.4166C131.681 32.3709 132.917 32.6011 134.007 33.1071C135.092 33.6035 135.921 34.4523 136.493 35.6533C137.074 36.8736 137.239 38.11 136.986 39.3624C136.73 40.6052 136.151 41.7538 135.25 42.8084C134.35 43.863 133.227 44.7111 131.882 45.3527Z" fill="white"/>
<path d="M151.888 37.9376C150.192 38.5027 148.564 38.5848 147.007 38.1839C145.459 37.7796 144.1 36.9984 142.929 35.8402C141.755 34.6719 140.885 33.2344 140.317 31.5276L136.205 19.1663L139.9 17.9351L144.013 30.2964C144.349 31.3063 144.844 32.1732 145.5 32.8971C146.163 33.6075 146.931 34.0974 147.806 34.3669C148.688 34.6229 149.639 34.5811 150.658 34.2413C151.688 33.8982 152.474 33.3615 153.017 32.6311C153.556 31.8907 153.867 31.0408 153.952 30.0815C154.043 29.1087 153.921 28.1174 153.585 27.1075L149.473 14.7461L153.169 13.515L157.281 25.8763C157.708 27.1589 157.905 28.4279 157.874 29.6835C157.84 30.9289 157.59 32.1003 157.125 33.1976C156.66 34.2948 155.987 35.254 155.105 36.0751C154.232 36.8929 153.16 37.5137 151.888 37.9376Z" fill="white"/>
<path d="M172.495 33.1864C171.283 33.4225 170.082 33.4614 168.891 33.3031C167.708 33.1323 166.63 32.7731 165.656 32.2255C164.68 31.6675 163.912 30.9226 163.351 29.9909L166.683 27.9754C166.911 28.3648 167.283 28.6881 167.799 28.9454C168.315 29.2026 168.918 29.3726 169.606 29.4553C170.294 29.5381 171.009 29.5072 171.751 29.3627C172.514 29.2141 173.202 28.9608 173.815 28.6027C174.437 28.2321 174.911 27.7982 175.237 27.3009C175.561 26.7932 175.668 26.2573 175.559 25.6931C175.447 25.1185 175.141 24.6901 174.642 24.4079C174.14 24.1152 173.534 23.9244 172.823 23.8352C172.111 23.7461 171.389 23.7133 170.657 23.7368C169.053 23.7998 167.586 23.7006 166.256 23.4393C164.926 23.1781 163.814 22.6736 162.92 21.926C162.037 21.1764 161.458 20.0964 161.184 18.686C160.926 17.3592 161.081 16.1253 161.651 14.9842C162.221 13.8431 163.073 12.8746 164.208 12.0787C165.344 11.2827 166.632 10.7443 168.074 10.4634C169.275 10.2294 170.472 10.1915 171.663 10.3498C172.854 10.5081 173.937 10.8663 174.913 11.4243C175.9 11.9803 176.674 12.7294 177.237 13.6715L173.886 15.6744C173.658 15.285 173.286 14.9617 172.77 14.7045C172.254 14.4473 171.653 14.2825 170.966 14.2102C170.278 14.1274 169.563 14.1583 168.821 14.3028C168.077 14.4369 167.396 14.6944 166.776 15.0754C166.164 15.444 165.69 15.8779 165.354 16.3772C165.017 16.8765 164.902 17.3978 165.007 17.9411C165.144 18.641 165.44 19.131 165.895 19.4109C166.361 19.6887 166.94 19.8471 167.63 19.886C168.319 19.9145 169.079 19.9183 169.91 19.8974C171.417 19.8423 172.845 19.9652 174.194 20.2663C175.543 20.5673 176.682 21.099 177.611 21.8614C178.538 22.6133 179.128 23.6422 179.382 24.9481C179.64 26.2749 179.491 27.5131 178.934 28.6626C178.375 29.8017 177.528 30.7691 176.392 31.5651C175.257 32.361 173.958 32.9014 172.495 33.1864Z" fill="white"/>
<path d="M199.512 7.73842L199.797 11.6234L192.982 12.1241L194.333 30.53L190.448 30.8155L189.097 12.4096L182.283 12.9103L181.998 9.02532L199.512 7.73842Z" fill="white"/>
<path d="M214.348 8.6692L218.827 8.9116L225.735 31.6689L221.607 31.4455L220.386 27.4144L210.821 26.8968L209.172 30.7727L205.043 30.5492L214.348 8.6692ZM212.45 23.0838L219.161 23.447L216.294 14.0666L212.45 23.0838Z" fill="white"/>
<path d="M229.983 33.1197L233.916 11.1176L237.75 11.8039L233.817 33.806L229.983 33.1197Z" fill="white"/>
<path d="M239.708 35.0933L245.305 13.4545L249.385 14.5112L254.685 31.6994L258.519 16.8768L262.29 17.8535L256.693 39.4923L252.629 38.4396L247.313 21.2474L243.479 36.07L239.708 35.0933Z" fill="white"/>
<path d="M261.593 41.9338L269.675 21.0953L273.307 22.5056L265.225 43.3441L261.593 41.9338Z" fill="#D8F4E7"/>
<path d="M285.884 28.2269L289.933 30.1584L287.655 53.8355L283.923 52.0552L284.329 47.8621L275.684 43.7377L272.684 46.6935L268.952 44.9131L285.884 28.2269ZM278.641 40.8327L284.708 43.7267L285.629 33.9599L278.641 40.8327Z" fill="#79ECA5"/>
<path d="M290.71 56.5078L306.784 40.3859L309.459 42.1872L305.983 57.1116L318.49 48.2689L321.165 50.0702L312.295 71.0431L308.998 68.8227L314.488 55.8517L302.887 64.0917L300.675 62.6024L303.934 48.7445L294.007 58.7282L290.71 56.5078Z" fill="#79ECA5"/>
</g>
<defs>
<clipPath id="clip0_219_414">
<rect width="400" height="400" fill="white" transform="translate(0 -0.000244141)"/>
</clipPath>
</defs>
</svg>
