<svg width="97" height="96" viewBox="0 0 97 96" fill="none" xmlns="http://www.w3.org/2000/svg">
<rect x="0.279785" width="96" height="96" rx="48" fill="white" fill-opacity="0.08"/>
<path d="M37.4805 58.7992H43.4816V61.1988H37.4805V67.2002L35.0805 67.1999V61.1988H29.0795V58.7992H35.0805V52.8015H37.4805V58.7992ZM72.2798 43.2C72.2798 53.8054 63.6826 62.4 53.0797 62.4C51.3751 62.4 49.7242 62.1774 48.1504 61.7605C47.299 67.554 42.3098 72 36.2798 72C29.6513 72 24.2798 66.6284 24.2798 60C24.2798 53.9698 28.7266 48.9796 34.5193 48.1293C34.1027 46.5557 33.8794 44.904 33.8794 43.2001C33.8794 32.5946 42.4766 24 53.0795 24C63.6824 24 72.2795 32.5946 72.2795 43.2001L72.2798 43.2ZM45.8797 60C45.8797 54.7072 41.5715 50.4 36.2797 50.4C30.9878 50.4 26.6796 54.7072 26.6796 60C26.6796 65.2929 30.9878 69.6001 36.2797 69.6001C41.5715 69.6001 45.8797 65.2929 45.8797 60ZM62.2015 54.7196C62.2015 49.6912 58.1096 45.6004 53.0797 45.6004C49.2376 45.6004 45.9436 47.987 44.6013 51.3547C46.7104 53.3851 48.0781 56.1805 48.2586 59.2943C51.5107 60.2707 56.9526 60.7083 62.2018 57.3015L62.2015 54.7196ZM53.0797 42.7195C55.9903 42.7195 58.3578 40.352 58.3578 37.4414C58.3578 34.5281 55.9903 32.1586 53.0797 32.1586C50.1691 32.1586 47.8016 34.5284 47.8016 37.4414C47.8016 40.352 50.1691 42.7195 53.0797 42.7195ZM66.7186 52.9959C66.6674 52.9185 66.6332 52.8218 66.6312 52.7039C66.6563 52.3242 66.9707 52.1692 67.2413 52.2278C67.7773 51.3897 68.2421 50.5011 68.6251 49.5706C68.3385 49.7973 67.8192 49.655 67.8095 49.1695C67.8524 48.5287 68.7185 48.5253 68.8026 49.119C68.9044 48.8491 68.9995 48.5765 69.0879 48.3006C69.0289 48.221 68.9904 48.1182 68.9874 47.9909C69.0042 47.7438 69.1435 47.5922 69.3139 47.5316C69.4368 47.0702 69.5399 46.6004 69.6239 46.1236C69.3407 46.1959 68.9955 46.0295 68.9874 45.6341C69.0182 45.1757 69.4712 45.0438 69.7572 45.2223C69.8215 44.6912 69.8613 44.1532 69.8744 43.6084C69.6156 43.9285 68.9988 43.8077 68.9874 43.2773C69.0229 42.7473 69.6229 42.6528 69.8774 42.9719C69.8697 42.4218 69.8362 41.878 69.7769 41.3416C69.4866 41.5395 68.9978 41.3915 68.9874 40.9208C69.0149 40.5136 69.3748 40.364 69.6557 40.4604C69.5774 39.9846 69.4799 39.5158 69.3621 39.0545C69.1642 39.0046 68.9934 38.8405 68.9881 38.5643C68.9981 38.418 69.052 38.3052 69.1287 38.2248C68.821 37.2344 68.4232 36.2841 67.9464 35.3811C67.8919 35.3235 67.8504 35.2502 67.8283 35.1605C67.6719 34.8749 67.5065 34.5946 67.3344 34.3191C67.0431 34.4396 66.6406 34.2782 66.6323 33.851C66.6423 33.695 66.7023 33.5778 66.7876 33.4968C66.6557 33.3106 66.5184 33.1271 66.3788 32.9466C66.1498 33.336 65.4648 33.2312 65.4534 32.6724C65.4698 32.4253 65.6087 32.2726 65.7791 32.2127C65.6094 32.0165 65.4339 31.824 65.2551 31.6358C65.1179 32.1752 64.2879 32.1099 64.2751 31.4942C64.2928 31.2267 64.4552 31.0723 64.6437 31.0238C64.4542 30.8443 64.261 30.6692 64.0645 30.4981C63.8961 30.992 63.1102 30.9156 63.0968 30.3163C63.1109 30.115 63.2057 29.9774 63.3319 29.9001C63.1518 29.7608 62.9696 29.6252 62.7838 29.4929C62.5136 29.7819 61.9293 29.6537 61.9182 29.1377C61.9236 29.0657 61.94 29.0034 61.9634 28.9472C61.6862 28.7741 61.404 28.608 61.116 28.45C61.0353 28.4302 60.959 28.391 60.8967 28.3328C59.9947 27.8567 59.0454 27.4593 58.0564 27.1519C57.8069 27.3946 57.3248 27.3089 57.2247 26.9172C56.7633 26.7997 56.2936 26.7016 55.8167 26.6235C55.8331 26.6704 55.8455 26.721 55.8489 26.7776C55.8358 27.4696 54.8625 27.4472 54.8484 26.7809C54.8561 26.6681 54.8903 26.5763 54.9402 26.503C54.4031 26.4434 53.8584 26.4099 53.3076 26.4022C53.4083 26.4832 53.4813 26.6081 53.4927 26.7776C53.4786 27.4696 52.5053 27.4472 52.4916 26.7809C52.504 26.6105 52.5743 26.4863 52.6717 26.4052C52.1259 26.4183 51.5872 26.4581 51.0562 26.5224C51.0997 26.5924 51.1295 26.6764 51.1362 26.7782C51.1231 27.4703 50.1498 27.4479 50.1357 26.7816C50.1387 26.7354 50.1468 26.6942 50.1575 26.655C49.6794 26.7391 49.2086 26.8445 48.7452 26.9681C48.6286 27.3012 48.2302 27.3702 47.9824 27.1914C47.7069 27.2791 47.4343 27.3742 47.1651 27.476C47.3821 27.5028 47.5833 27.6632 47.6021 27.9565C47.5887 28.6485 46.6153 28.6261 46.6016 27.9595C46.6103 27.8333 46.6505 27.7325 46.7111 27.6551C45.7809 28.0378 44.891 28.5009 44.0529 29.0376C44.0596 29.0684 44.065 29.1006 44.0673 29.1351C44.0576 29.6209 43.5768 29.7531 43.2848 29.5593C43.1 29.6922 42.9182 29.8285 42.7391 29.9691C42.8211 30.0498 42.8794 30.1636 42.8894 30.3133C42.8784 30.8842 42.2154 30.9675 41.9754 30.6056C41.8026 30.7576 41.6322 30.9136 41.4651 31.073C41.597 31.1493 41.6974 31.289 41.7108 31.4915C41.6998 32.0724 41.0144 32.1478 40.7854 31.7641C40.629 31.9325 40.4753 32.1039 40.3257 32.278C40.4375 32.358 40.5209 32.4876 40.5329 32.6691C40.5229 33.1851 39.9805 33.3032 39.6985 33.0551C39.5583 33.2396 39.4226 33.4261 39.2901 33.6163C39.3246 33.6816 39.348 33.7579 39.3544 33.8477C39.347 34.2177 39.0657 34.3814 38.8039 34.3539C38.2977 35.1685 37.8587 36.029 37.495 36.9287C37.7783 36.8239 38.1503 36.9783 38.1767 37.3824C38.1647 37.979 37.4418 38.0433 37.2325 37.6235C37.1398 37.887 37.0534 38.1535 36.9727 38.4227C36.9857 38.4649 36.9948 38.5111 36.9981 38.561C36.9944 38.7428 36.9241 38.874 36.823 38.9584C36.6968 39.4419 36.5927 39.9334 36.5096 40.4319C36.7453 40.4383 36.978 40.601 36.9988 40.9171C36.9908 41.3212 36.6559 41.4796 36.3764 41.4109C36.3265 41.8804 36.2957 42.3545 36.2856 42.8346C36.5722 42.7043 36.972 42.8537 36.9988 43.2739C36.9901 43.7202 36.5833 43.8675 36.2907 43.7386C36.3054 44.2161 36.3405 44.6885 36.3958 45.1552C36.665 45.1023 36.9747 45.2627 36.9988 45.6303C36.9921 45.9568 36.7728 46.1222 36.5408 46.1382C36.6338 46.6653 36.753 47.1835 36.8947 47.6925C36.9526 47.7685 36.9911 47.8666 36.9988 47.9868C36.9988 47.9989 36.9968 48.0099 36.9965 48.0213C37.4702 48.0491 37.9363 48.1057 38.3937 48.187C38.3713 48.1291 38.3562 48.0642 38.3542 47.9902C38.3984 47.3322 39.3132 47.3446 39.355 47.9872C39.3516 48.1522 39.293 48.2758 39.2063 48.3601C40.1759 48.6029 41.098 48.9635 41.9572 49.4263C41.9174 49.3546 41.891 49.2699 41.8886 49.1685C41.9321 48.5105 42.8476 48.5222 42.8894 49.1651C42.8827 49.5073 42.6416 49.6744 42.3982 49.6754C42.4816 49.7253 42.5656 49.7752 42.6483 49.8267C42.87 49.3559 43.1241 48.9026 43.4047 48.4693C43.2222 48.4087 43.0726 48.2487 43.0669 47.9899C43.1024 47.4582 43.7071 47.3644 43.9592 47.6879C44.0968 47.5104 44.2384 47.3366 44.3854 47.1672C44.3037 47.0832 44.2484 46.9656 44.2451 46.8116C44.2776 46.3211 44.7952 46.2036 45.0741 46.442C45.2335 46.2873 45.3976 46.1366 45.566 45.9913C45.4826 45.9069 45.4264 45.7884 45.4233 45.6334C45.4598 45.0786 46.1151 45.0022 46.3451 45.3769C46.5524 45.2266 46.7633 45.0816 46.9806 44.946C46.7804 44.8971 46.6076 44.7327 46.6019 44.4548C46.6455 43.7969 47.5606 43.8093 47.6024 44.4518C47.6014 44.5047 47.5927 44.5516 47.5816 44.5968C48.0366 44.349 48.5094 44.1294 48.9989 43.9435C48.863 43.8582 48.7297 43.7684 48.5995 43.6747C48.3142 43.906 47.7892 43.7651 47.7792 43.2762C47.7855 43.1889 47.8076 43.1139 47.8401 43.0502C47.6683 42.8899 47.5036 42.7214 47.3472 42.5463C47.0539 42.7024 46.6113 42.5467 46.6019 42.0983C46.6116 41.9554 46.6635 41.8459 46.7369 41.7659C46.6049 41.572 46.48 41.3714 46.3659 41.1649C46.1553 41.5887 45.4357 41.4933 45.4237 40.9201C45.4481 40.5515 45.7461 40.3934 46.0113 40.4386C45.6202 39.5175 45.4023 38.5047 45.4023 37.4406C45.4023 36.3377 45.6366 35.2897 46.0545 34.3411C45.7726 34.4108 45.4314 34.2434 45.4237 33.8506C45.4632 33.2573 46.2095 33.2108 46.3866 33.6789C46.5061 33.4656 46.6361 33.2593 46.775 33.0598C46.6752 32.9747 46.6056 32.8461 46.6026 32.6724C46.6334 32.2016 47.1108 32.0757 47.3951 32.2773C47.5471 32.1099 47.7075 31.9495 47.8736 31.7958C47.8183 31.7171 47.7828 31.6167 47.7798 31.4938C47.8143 30.9765 48.3865 30.8757 48.65 31.1673C48.8458 31.0291 49.0477 30.8995 49.2567 30.7796C49.0926 30.7096 48.964 30.5546 48.9587 30.3156C49.0029 29.6576 49.9176 29.6693 49.9595 30.3122C49.9585 30.3531 49.9538 30.3909 49.9471 30.4271C50.9044 29.9978 51.964 29.7574 53.081 29.7574C54.1273 29.7574 55.1234 29.9677 56.0315 30.3464C56.0311 30.3356 56.0281 30.3263 56.0281 30.3156C56.0716 29.6576 56.9871 29.6693 57.0286 30.3122C57.0249 30.5114 56.9402 30.6497 56.823 30.7321C57.0256 30.8452 57.2224 30.9668 57.4129 31.0977C57.6975 30.8948 58.1767 31.0291 58.2065 31.4904C58.2045 31.5654 58.1907 31.6307 58.169 31.6887C58.3568 31.8551 58.5356 32.0298 58.706 32.2133C58.9886 32.1105 59.3583 32.2652 59.3847 32.6683C59.3817 32.7812 59.3529 32.8733 59.308 32.9486C59.443 33.1358 59.5695 33.3286 59.6877 33.5278C59.9502 33.2258 60.5298 33.3377 60.5623 33.8469C60.5559 34.17 60.341 34.3354 60.1119 34.3542C60.508 35.2565 60.735 36.2492 60.7548 37.2933C60.8747 36.7311 61.7017 36.7709 61.7412 37.382C61.7292 38.0265 60.8854 38.0506 60.7578 37.5129C60.7478 38.5502 60.5321 39.5386 60.1498 40.4386C60.3577 40.4741 60.5449 40.6345 60.5626 40.917C60.5526 41.4377 59.9994 41.5539 59.7202 41.2957C59.6007 41.5006 59.4721 41.6999 59.3351 41.8921C59.3619 41.9506 59.3793 42.0186 59.385 42.0956C59.3763 42.4951 59.0499 42.6554 58.772 42.5918C58.5882 42.7944 58.3943 42.9869 58.1897 43.1687C58.1984 43.2012 58.2038 43.2364 58.2065 43.2739C58.1967 43.7289 57.7745 43.8735 57.4806 43.7302C57.3754 43.8036 57.2693 43.8755 57.1605 43.9442C57.5957 44.1203 58.0042 44.3115 58.3903 44.5141C58.3883 44.4943 58.3846 44.4762 58.3836 44.4555C58.4278 43.7975 59.3426 43.8099 59.3847 44.4524C59.3794 44.6929 59.2582 44.8452 59.1025 44.9155C59.3084 45.0407 59.5066 45.1693 59.6968 45.3016C59.9633 45.0126 60.5295 45.1278 60.5623 45.6307C60.5603 45.7395 60.5325 45.8286 60.4914 45.9019C60.6772 46.0556 60.8546 46.2119 61.0241 46.3716C61.3107 46.2391 61.7138 46.3874 61.7406 46.8093C61.7386 46.903 61.7188 46.9834 61.6867 47.0513C61.8447 47.2281 61.9954 47.4066 62.137 47.5871C62.4229 47.3955 62.8897 47.5325 62.9195 47.9878C62.9158 48.1847 62.8331 48.3213 62.7183 48.4044C62.8602 48.6237 62.9915 48.844 63.1133 49.0643C63.2426 48.5148 64.0585 48.5597 64.0977 49.1661C64.0887 49.602 63.7003 49.754 63.4093 49.6402C63.8834 50.6289 64.1754 51.5972 64.3515 52.45C64.5805 52.066 65.2404 52.1567 65.2749 52.7001C65.2652 53.1993 64.7583 53.3246 64.4703 53.1076C64.561 53.6979 64.5979 54.2082 64.6106 54.5976C64.8245 54.5269 65.0814 54.6012 65.2039 54.8159C65.3636 54.6488 65.5203 54.478 65.6733 54.3043C65.5484 54.2222 65.4574 54.0816 65.453 53.8814C65.4865 53.3724 66.041 53.2666 66.3098 53.5412C66.4494 53.3624 66.5854 53.1799 66.7183 52.9958L66.7186 52.9959ZM48.9577 27.9595C48.9718 28.6261 49.9451 28.6492 49.9585 27.9565C49.917 27.314 49.0019 27.3019 48.9577 27.9595ZM51.3145 27.9595C51.3286 28.6261 52.3013 28.6492 52.315 27.9565C52.2738 27.314 51.3584 27.3019 51.3145 27.9595ZM53.6703 27.9595C53.6844 28.6261 54.6577 28.6492 54.6711 27.9565C54.6299 27.314 53.7145 27.3019 53.6703 27.9595ZM56.0278 27.9595C56.0418 28.6261 57.0152 28.6492 57.0282 27.9565C56.9867 27.314 56.071 27.3019 56.0278 27.9595ZM58.3836 27.9595C58.3976 28.6261 59.371 28.6492 59.3847 27.9565C59.3425 27.314 58.4278 27.3019 58.3836 27.9595ZM45.4235 29.1377C45.4376 29.8044 46.411 29.8271 46.424 29.1347C46.3825 28.4922 45.4671 28.4798 45.4235 29.1377ZM47.7793 29.1377C47.7934 29.8044 48.7667 29.8271 48.7804 29.1347C48.7383 28.4922 47.8235 28.4798 47.7793 29.1377ZM50.1361 29.1377C50.1502 29.8044 51.1235 29.8271 51.1366 29.1347C51.095 28.4922 50.1796 28.4798 50.1361 29.1377ZM52.4919 29.1377C52.506 29.8044 53.4793 29.8271 53.493 29.1347C53.4508 28.4922 52.5361 28.4798 52.4919 29.1377ZM54.849 29.1377C54.8631 29.8044 55.8365 29.8271 55.8495 29.1347C55.8083 28.4922 54.8922 28.4798 54.849 29.1377ZM57.2055 29.1377C57.2196 29.8044 58.1922 29.8271 58.2063 29.1347C58.1641 28.4922 57.249 28.4798 57.2055 29.1377ZM59.5616 29.1377C59.5757 29.8044 60.5491 29.8271 60.5621 29.1347C60.5209 28.4922 59.6059 28.4798 59.5616 29.1377ZM44.2444 30.3163C44.2585 30.9826 45.2319 31.0057 45.2452 30.313C45.2034 29.6701 44.2887 29.658 44.2444 30.3163ZM46.6012 30.3163C46.6146 30.9826 47.588 31.0057 47.6017 30.313C47.5598 29.6701 46.6451 29.658 46.6012 30.3163ZM58.3827 30.3163C58.3968 30.9826 59.3701 31.0057 59.3839 30.313C59.3417 29.6701 58.4269 29.658 58.3827 30.3163ZM60.7395 30.3163C60.7536 30.9826 61.7269 31.0057 61.74 30.313C61.6985 29.6701 60.7831 29.658 60.7395 30.3163ZM43.066 31.4942C43.0801 32.1608 44.0535 32.1839 44.0668 31.4912C44.025 30.849 43.1096 30.8366 43.066 31.4942ZM45.4228 31.4942C45.4369 32.1608 46.4103 32.1839 46.4233 31.4912C46.3818 30.849 45.4664 30.8366 45.4228 31.4942ZM59.5615 31.4942C59.5755 32.1608 60.5489 32.1839 60.5619 31.4912C60.5207 30.849 59.6057 30.8366 59.5615 31.4942ZM61.9179 31.4942C61.932 32.1608 62.9054 32.1839 62.9187 31.4912C62.8769 30.849 61.9615 30.8366 61.9179 31.4942ZM41.8881 32.6724C41.9022 33.3391 42.8756 33.3618 42.8889 32.6691C42.8471 32.0269 41.9313 32.0148 41.8881 32.6724ZM44.2443 32.6724C44.2583 33.3391 45.2317 33.3618 45.2451 32.6691C45.2032 32.0269 44.2885 32.0148 44.2443 32.6724ZM60.74 32.6724C60.7541 33.3391 61.7275 33.3618 61.7405 32.6691C61.699 32.0269 60.7836 32.0148 60.74 32.6724ZM63.0958 32.6724C63.1099 33.3391 64.0832 33.3618 64.097 32.6691C64.0548 32.0269 63.14 32.0148 63.0958 32.6724ZM40.7097 33.851C40.7238 34.5173 41.6965 34.5404 41.7102 33.8477C41.6693 33.2055 40.7536 33.1927 40.7097 33.851ZM43.0662 33.851C43.0803 34.5173 44.0536 34.5404 44.067 33.8477C44.0251 33.2055 43.1097 33.1927 43.0662 33.851ZM61.9174 33.851C61.9315 34.5173 62.9048 34.5404 62.9182 33.8477C62.8764 33.2055 61.9609 33.1927 61.9174 33.851ZM64.2735 33.851C64.2876 34.5173 65.261 34.5404 65.274 33.8477C65.2328 33.2055 64.3178 33.1927 64.2735 33.851ZM39.5312 35.0292C39.5452 35.6955 40.5186 35.7186 40.532 35.0262C40.4901 34.3837 39.5754 34.3713 39.5312 35.0292ZM41.888 35.0292C41.902 35.6955 42.8754 35.7186 42.8888 35.0262C42.8469 34.3837 41.9312 34.3713 41.888 35.0292ZM44.2441 35.0292C44.2581 35.6955 45.2315 35.7186 45.2449 35.0262C45.203 34.3837 44.2883 34.3713 44.2441 35.0292ZM60.7399 35.0292C60.7539 35.6955 61.7273 35.7186 61.7403 35.0262C61.6988 34.3837 60.7834 34.3713 60.7399 35.0292ZM63.0956 35.0292C63.1097 35.6955 64.0831 35.7186 64.0968 35.0262C64.0546 34.3837 63.1399 34.3713 63.0956 35.0292ZM65.4524 35.0292C65.4665 35.6955 66.4399 35.7186 66.4529 35.0262C66.4114 34.3837 65.496 34.3713 65.4524 35.0292ZM38.3529 36.2078C38.367 36.8744 39.3404 36.8972 39.3537 36.2048C39.3119 35.5616 38.3972 35.5495 38.3529 36.2078ZM40.7097 36.2078C40.7238 36.8744 41.6965 36.8972 41.7102 36.2048C41.6693 35.5616 40.7536 35.5495 40.7097 36.2078ZM43.0662 36.2078C43.0803 36.8744 44.0536 36.8972 44.067 36.2048C44.0251 35.5616 43.1097 35.5495 43.0662 36.2078ZM61.9174 36.2078C61.9315 36.8744 62.9048 36.8972 62.9182 36.2048C62.8764 35.5616 61.9609 35.5495 61.9174 36.2078ZM64.2735 36.2078C64.2876 36.8744 65.261 36.8972 65.274 36.2048C65.2328 35.5616 64.3178 35.5495 64.2735 36.2078ZM67.6308 36.2045C67.5889 35.5616 66.6735 35.5492 66.6303 36.2075C66.6444 36.8741 67.6174 36.8969 67.6308 36.2045ZM39.531 37.386C39.545 38.0523 40.5184 38.0754 40.5318 37.3827C40.4899 36.7402 39.5752 36.7281 39.531 37.386ZM41.8878 37.386C41.9019 38.0523 42.8752 38.0754 42.8886 37.3827C42.8467 36.7402 41.931 36.7281 41.8878 37.386ZM44.2439 37.386C44.258 38.0523 45.2313 38.0754 45.2447 37.3827C45.2029 36.7402 44.2881 36.7281 44.2439 37.386ZM63.0951 37.386C63.1092 38.0523 64.0826 38.0754 64.0963 37.3827C64.0541 36.7402 63.1394 36.7281 63.0951 37.386ZM65.4519 37.386C65.466 38.0523 66.4394 38.0754 66.4524 37.3827C66.4109 36.7402 65.4955 36.7281 65.4519 37.386ZM68.8092 37.3827C68.767 36.7398 67.8519 36.7281 67.8084 37.386C67.8221 38.0523 68.7951 38.0748 68.8092 37.3827ZM38.3522 38.5639C38.3663 39.2302 39.3397 39.2533 39.353 38.5609C39.3112 37.9184 38.3965 37.9063 38.3522 38.5639ZM40.709 38.5639C40.7231 39.2302 41.6958 39.2533 41.7095 38.5609C41.6687 37.9184 40.7529 37.9063 40.709 38.5639ZM43.0655 38.5639C43.0796 39.2302 44.0529 39.2533 44.0663 38.5609C44.0245 37.9184 43.1091 37.9063 43.0655 38.5639ZM61.9167 38.5639C61.9308 39.2302 62.9042 39.2533 62.9175 38.5609C62.8757 37.9184 61.9603 37.9063 61.9167 38.5639ZM64.2728 38.5639C64.2869 39.2302 65.2603 39.2533 65.2733 38.5609C65.2321 37.9184 64.3171 37.9063 64.2728 38.5639ZM67.6301 38.5612C67.5883 37.9184 66.6728 37.9067 66.6296 38.5643C66.6437 39.2302 67.6167 39.2533 67.6301 38.5612ZM37.174 39.7425C37.1881 40.4091 38.1607 40.4322 38.1748 39.7395C38.1326 39.0969 37.2179 39.0842 37.174 39.7425ZM39.5305 39.7425C39.5445 40.4091 40.5179 40.4322 40.5313 39.7395C40.4894 39.0969 39.5747 39.0842 39.5305 39.7425ZM41.8873 39.7425C41.9013 40.4091 42.8747 40.4322 42.8881 39.7395C42.8462 39.0969 41.9305 39.0842 41.8873 39.7425ZM44.2434 39.7425C44.2575 40.4091 45.2308 40.4322 45.2442 39.7395C45.2024 39.0969 44.2876 39.0842 44.2434 39.7425ZM60.7392 39.7425C60.7532 40.4091 61.7266 40.4322 61.7396 39.7395C61.6981 39.0969 60.7827 39.0842 60.7392 39.7425ZM63.095 39.7425C63.109 40.4091 64.0824 40.4322 64.0961 39.7395C64.0539 39.0969 63.1392 39.0842 63.095 39.7425ZM65.4518 39.7425C65.4658 40.4091 66.4392 40.4322 66.4522 39.7395C66.4107 39.0969 65.4953 39.0842 65.4518 39.7425ZM68.809 39.7395C68.7668 39.0966 67.8518 39.0842 67.8082 39.7425C67.822 40.4091 68.795 40.4315 68.809 39.7395ZM38.3521 40.9207C38.3661 41.5873 39.3395 41.6101 39.3529 40.9177C39.311 40.2752 38.3963 40.2628 38.3521 40.9207ZM40.7089 40.9207C40.7229 41.5873 41.6956 41.6101 41.7093 40.9177C41.6685 40.2752 40.7528 40.2628 40.7089 40.9207ZM43.0653 40.9207C43.0794 41.5873 44.0528 41.6101 44.0661 40.9177C44.0243 40.2752 43.1089 40.2628 43.0653 40.9207ZM61.9165 40.9207C61.9306 41.5873 62.904 41.6101 62.9174 40.9177C62.8755 40.2752 61.9601 40.2628 61.9165 40.9207ZM64.2727 40.9207C64.2867 41.5873 65.2601 41.6101 65.2731 40.9177C65.2319 40.2752 64.3169 40.2628 64.2727 40.9207ZM67.6299 40.918C67.5881 40.2758 66.6727 40.2628 66.6295 40.921C66.6435 41.5877 67.6166 41.6101 67.6299 40.918ZM37.1738 42.0992C37.1879 42.7655 38.1606 42.7886 38.1746 42.0962C38.1324 41.453 37.2177 41.441 37.1738 42.0992ZM39.5303 42.0992C39.5444 42.7655 40.5177 42.7886 40.5311 42.0962C40.4892 41.453 39.5745 41.441 39.5303 42.0992ZM41.8871 42.0992C41.9012 42.7655 42.8745 42.7886 42.8879 42.0962C42.8461 41.453 41.9303 41.441 41.8871 42.0992ZM44.2432 42.0992C44.2573 42.7655 45.2307 42.7886 45.244 42.0962C45.2022 41.453 44.2875 41.441 44.2432 42.0992ZM60.739 42.0992C60.7531 42.7655 61.7264 42.7886 61.7395 42.0962C61.6979 41.453 60.7825 41.441 60.739 42.0992ZM63.0948 42.0992C63.1088 42.7655 64.0822 42.7886 64.0959 42.0962C64.0537 41.453 63.139 41.441 63.0948 42.0992ZM65.4516 42.0992C65.4657 42.7655 66.439 42.7886 66.452 42.0962C66.4105 41.453 65.4951 41.441 65.4516 42.0992ZM68.8089 42.0959C68.7667 41.453 67.8516 41.4413 67.8081 42.0989C67.8218 42.7655 68.7948 42.7883 68.8089 42.0959ZM38.3519 43.2771C38.366 43.9438 39.3393 43.9669 39.3527 43.2741C39.3108 42.6316 38.3961 42.6195 38.3519 43.2771ZM40.7087 43.2771C40.7228 43.9438 41.6954 43.9669 41.7092 43.2741C41.6683 42.6316 40.7526 42.6195 40.7087 43.2771ZM43.0652 43.2771C43.0792 43.9438 44.0526 43.9669 44.066 43.2741C44.0241 42.6316 43.1087 42.6195 43.0652 43.2771ZM46.4221 43.2741C46.3809 42.6313 45.4655 42.6189 45.4216 43.2771C45.4357 43.9438 46.4087 43.9669 46.4221 43.2741ZM59.5604 43.2771C59.5745 43.9438 60.5479 43.9669 60.5609 43.2741C60.5197 42.6316 59.6047 42.6195 59.5604 43.2771ZM61.9169 43.2771C61.931 43.9438 62.9043 43.9669 62.9177 43.2741C62.8758 42.6316 61.9604 42.6195 61.9169 43.2771ZM64.273 43.2771C64.2871 43.9438 65.2604 43.9669 65.2735 43.2741C65.2323 42.6316 64.3172 42.6195 64.273 43.2771ZM67.6303 43.2741C67.5884 42.6313 66.673 42.6189 66.6298 43.2771C66.6439 43.9438 67.6169 43.9669 67.6303 43.2741ZM37.1742 44.4554C37.1882 45.122 38.1609 45.1448 38.175 44.4523C38.1328 43.8098 37.2181 43.7978 37.1742 44.4554ZM39.5306 44.4554C39.5447 45.122 40.5181 45.1448 40.5314 44.4523C40.4896 43.8098 39.5749 43.7978 39.5306 44.4554ZM41.8874 44.4554C41.9015 45.122 42.8749 45.1448 42.8883 44.4523C42.8464 43.8098 41.9306 43.7978 41.8874 44.4554ZM44.2436 44.4554C44.2576 45.122 45.231 45.1448 45.2444 44.4523C45.2025 43.8098 44.2878 43.7978 44.2436 44.4554ZM60.7393 44.4554C60.7534 45.122 61.7268 45.1448 61.7398 44.4523C61.6983 43.8098 60.7829 43.7978 60.7393 44.4554ZM63.0951 44.4554C63.1092 45.122 64.0826 45.1448 64.0963 44.4523C64.0541 43.8098 63.1394 43.7978 63.0951 44.4554ZM65.4519 44.4554C65.466 45.122 66.4394 45.1448 66.4524 44.4523C66.4109 43.8098 65.4955 43.7978 65.4519 44.4554ZM68.8092 44.4527C68.767 43.8098 67.8519 43.7981 67.8084 44.4557C67.8221 45.1223 68.7951 45.1448 68.8092 44.4527ZM38.3522 45.6339C38.3663 46.3002 39.3397 46.3233 39.353 45.6306C39.3112 44.9884 38.3965 44.9756 38.3522 45.6339ZM40.709 45.6339C40.7231 46.3002 41.6958 46.3233 41.7095 45.6306C41.6687 44.9884 40.7529 44.9756 40.709 45.6339ZM43.0655 45.6339C43.0796 46.3002 44.0529 46.3233 44.0663 45.6306C44.0245 44.9884 43.1091 44.9756 43.0655 45.6339ZM61.9167 45.6339C61.9308 46.3002 62.9042 46.3233 62.9175 45.6306C62.8757 44.9884 61.9603 44.9756 61.9167 45.6339ZM64.2728 45.6339C64.2869 46.3002 65.2603 46.3233 65.2733 45.6306C65.2321 44.9884 64.3171 44.9756 64.2728 45.6339ZM67.6301 45.6306C67.5883 44.9884 66.6728 44.976 66.6296 45.6339C66.6437 46.3002 67.6167 46.323 67.6301 45.6306ZM37.174 46.8118C37.1881 47.4784 38.1607 47.5015 38.1748 46.8088C38.1326 46.1666 37.2179 46.1542 37.174 46.8118ZM39.5305 46.8118C39.5445 47.4784 40.5179 47.5015 40.5313 46.8088C40.4894 46.1666 39.5747 46.1542 39.5305 46.8118ZM41.8873 46.8118C41.9013 47.4784 42.8747 47.5015 42.8881 46.8088C42.8462 46.1666 41.9305 46.1542 41.8873 46.8118ZM63.0948 46.8118C63.1088 47.4784 64.0822 47.5015 64.0959 46.8088C64.0537 46.1666 63.139 46.1542 63.0948 46.8118ZM65.4516 46.8118C65.4657 47.4784 66.439 47.5015 66.452 46.8088C66.4105 46.1666 65.4951 46.1542 65.4516 46.8118ZM68.8089 46.8094C68.7667 46.1666 67.8516 46.1549 67.8081 46.8125C67.8218 47.4784 68.7948 47.5015 68.8089 46.8094ZM40.709 47.99C40.7231 48.6566 41.6958 48.6794 41.7095 47.987C41.6687 47.3445 40.7529 47.3321 40.709 47.99ZM64.2728 47.99C64.2869 48.6566 65.2603 48.6794 65.2733 47.987C65.2321 47.3445 64.3171 47.3321 64.2728 47.99ZM67.6301 47.9873C67.5883 47.3445 66.6728 47.3321 66.6296 47.9903C66.6437 48.657 67.6167 48.6794 67.6301 47.9873ZM65.4514 49.1689C65.4655 49.8352 66.4389 49.8583 66.4519 49.1655C66.4104 48.523 65.495 48.5103 65.4514 49.1689ZM64.2728 50.3468C64.2869 51.0134 65.2603 51.0365 65.2733 50.3438C65.2321 49.7012 64.3171 49.6892 64.2728 50.3468ZM67.6301 50.3441C67.5883 49.7012 66.6728 49.6895 66.6296 50.3471C66.6437 51.0131 67.6167 51.0362 67.6301 50.3441ZM65.4514 51.5253C65.4655 52.192 66.4389 52.2151 66.4519 51.522C66.4104 50.8798 65.495 50.8671 65.4514 51.5253Z" fill="white" fill-opacity="0.8"/>
</svg>
