<svg width="97" height="96" viewBox="0 0 97 96" fill="none" xmlns="http://www.w3.org/2000/svg">
<rect x="0.839111" width="96" height="96" rx="48" fill="white" fill-opacity="0.08"/>
<path d="M26.8963 54.5682C26.7819 54.5682 26.7249 54.6254 26.6105 54.6254C26.0963 54.6254 25.6391 54.2814 25.5247 53.7655C25.0675 51.8159 24.8391 49.9236 24.8391 47.974C24.8391 47.3433 25.3533 46.8273 25.9819 46.8273C26.6104 46.8273 27.1246 47.3433 27.1246 47.974C27.1246 49.7515 27.353 51.4719 27.7532 53.1923C27.9246 53.7654 27.5249 54.3962 26.8963 54.5682ZM26.3821 43.5586C26.4965 43.5586 26.5535 43.6158 26.6679 43.6158C27.1821 43.6158 27.6393 43.2718 27.7538 42.7558C28.1539 41.0355 28.7821 39.43 29.5825 37.8244C29.8683 37.2508 29.6395 36.5629 29.1253 36.2761C28.5537 35.9893 27.8682 36.2189 27.5824 36.7349C26.668 38.4552 25.9824 40.29 25.5252 42.1822C25.3534 42.813 25.7535 43.4438 26.3821 43.5586ZM31.6962 33.8677C32.039 33.8677 32.3248 33.7529 32.5532 33.4661C33.696 32.1474 35.0102 31.0006 36.4962 29.9683C37.0104 29.6243 37.1248 28.8787 36.782 28.3627C36.4392 27.8467 35.6962 27.7319 35.182 28.0759C33.582 29.1655 32.1534 30.4843 30.8392 31.9178C30.439 32.3766 30.439 33.1222 30.9536 33.5234C31.182 33.8106 31.4679 33.8677 31.6962 33.8677ZM51.4106 26.2988C53.125 26.528 54.8394 26.9296 56.4964 27.5603C56.6108 27.6175 56.7822 27.6175 56.8966 27.6175C57.3538 27.6175 57.811 27.3307 57.9824 26.8719C58.2108 26.2983 57.9254 25.6104 57.2968 25.3811C55.468 24.6932 53.5827 24.2344 51.6969 24.0048C51.0683 23.9476 50.4967 24.4064 50.4397 24.9796C50.3823 25.668 50.7821 26.2411 51.4106 26.2988ZM40.7249 27.6748C40.8393 27.6748 41.0107 27.6748 41.1251 27.6176C42.782 26.9868 44.4394 26.5856 46.2108 26.3561C46.8394 26.2989 47.2966 25.7253 47.1822 25.0945C47.1248 24.4065 46.5536 23.9478 45.925 24.0626C43.9823 24.2918 42.0964 24.7506 40.3251 25.4389C39.7535 25.6681 39.4107 26.2989 39.6395 26.9297C39.8105 27.3881 40.2676 27.6748 40.7249 27.6748ZM69.925 42.6984C70.0394 43.2143 70.4966 43.5583 71.0109 43.5583C71.1253 43.5583 71.1823 43.5583 71.2966 43.5011C71.9252 43.3291 72.268 42.6984 72.1536 42.1248C71.6964 40.2325 71.0109 38.3978 70.0965 36.6774C69.8107 36.1039 69.1251 35.8747 68.5535 36.2186C67.9819 36.5626 67.7535 37.1934 68.0963 37.767C68.8963 39.3149 69.5248 40.978 69.925 42.6984ZM61.1248 30.0258C62.5534 31.0006 63.8675 32.2049 65.0678 33.5236C65.2962 33.7528 65.582 33.9252 65.9247 33.9252C66.2105 33.9252 66.4389 33.8104 66.6677 33.6384C67.1249 33.2369 67.1819 32.4917 66.7821 32.0329C65.525 30.5993 64.0394 29.2806 62.4393 28.191C61.9251 27.847 61.1822 27.9618 60.8393 28.4778C60.4961 28.9361 60.6105 29.6241 61.1247 30.0257L61.1248 30.0258ZM41.1247 68.3302C39.4677 67.6994 37.9247 66.8967 36.4962 65.8647C35.982 65.5207 35.239 65.6355 34.8962 66.1515C34.5534 66.6675 34.6678 67.413 35.182 67.7571C36.782 68.8467 38.4963 69.7642 40.3246 70.4521C40.439 70.5093 40.6104 70.5093 40.7248 70.5093C41.182 70.5093 41.6392 70.2225 41.8107 69.7638C41.9821 69.1906 41.6963 68.5598 41.1247 68.3302ZM71.6963 46.7696C71.0677 46.7696 70.5535 47.2856 70.5535 47.9164V47.9736C70.5535 49.7511 70.3251 51.4714 69.9249 53.1918C69.7535 53.8226 70.1533 54.4533 70.7819 54.5681C70.8963 54.5681 70.9533 54.6253 71.0677 54.6253C71.5819 54.6253 72.0391 54.2813 72.1535 53.7653C72.6107 51.873 72.8391 49.9807 72.8391 47.9739V47.9167C72.8391 47.2855 72.3249 46.7696 71.6963 46.7696L71.6963 46.7696ZM51.4104 69.5917C50.5535 69.7065 49.696 69.7637 48.7816 69.7637C47.9247 69.7637 47.0672 69.7065 46.2103 69.5917C45.5817 69.5345 45.0101 69.9357 44.9532 70.5665C44.8962 71.1973 45.296 71.7709 45.9245 71.828C46.8959 71.9428 47.8103 72 48.8387 72C49.8101 72 50.7815 71.9428 51.6959 71.828C52.3245 71.7708 52.7817 71.1972 52.6673 70.5665C52.6107 69.9361 52.0391 69.5345 51.4105 69.5917H51.4104ZM29.5817 58.066C29.2959 57.4924 28.6104 57.2632 28.0388 57.6072C27.4672 57.894 27.2388 58.582 27.5816 59.1555C28.496 60.8759 29.5818 62.4814 30.8959 63.9149C31.1243 64.1441 31.4101 64.3165 31.7529 64.3165C32.0387 64.3165 32.2671 64.2017 32.4958 64.0297C32.953 63.6281 33.01 62.883 32.6102 62.4241C31.41 61.0478 30.4388 59.6143 29.5817 58.066ZM48.839 42.5263C50.4959 42.5263 51.6962 43.4439 51.6962 44.3038C51.6962 45.3358 52.5531 46.1961 53.5819 46.1961C54.6103 46.1961 55.4676 45.3361 55.4676 44.3038C55.4676 41.7807 53.4674 39.6592 50.7247 38.9712V38.3977C50.7247 37.3657 49.8677 36.5054 48.839 36.5054C47.8106 36.5054 46.9533 37.3653 46.9533 38.3977V38.9712C44.2105 39.6592 42.2104 41.7811 42.2104 44.3038C42.2104 47.4001 45.1819 49.866 48.8961 49.866C50.5531 49.866 51.7533 50.7836 51.7533 51.6435C51.7533 52.5035 50.5531 53.421 48.8961 53.421C47.2392 53.421 46.039 52.5034 46.039 51.6435C46.039 50.6115 45.182 49.7512 44.1533 49.7512C43.1249 49.7512 42.2675 50.6112 42.2675 51.6435C42.2675 54.1666 44.2677 56.2881 47.0104 56.9761V57.4921C47.0104 58.524 47.8674 59.3844 48.8961 59.3844C49.9245 59.3844 50.7819 58.5244 50.7819 57.4921V56.9761C53.5246 56.2881 55.5247 54.1662 55.5247 51.6435C55.5247 48.5472 52.5532 46.0813 48.839 46.0813C47.182 46.0813 45.9818 45.1638 45.9818 44.3038C45.9818 43.4439 47.182 42.5263 48.839 42.5263ZM57.2961 67.9861C57.0103 68.1009 56.7819 68.2153 56.4961 68.3301C55.9245 68.5593 55.5817 69.1901 55.8105 69.8209C55.9819 70.2797 56.4391 70.5665 56.8963 70.5665C57.0107 70.5665 57.1821 70.5665 57.2965 70.5093C57.8107 70.3373 58.3249 70.1077 58.8395 69.8785C58.2675 69.3053 57.7532 68.6745 57.2961 67.9861ZM56.0963 64.7751C53.8108 65.7499 51.3534 66.2659 48.839 66.2659H48.782C43.9246 66.2659 39.2961 64.3164 35.8676 60.8756C32.4388 57.3778 30.5535 52.7903 30.5535 47.9164C30.5535 43.0421 32.4963 38.3975 35.9251 34.9571C39.3539 31.5164 43.9824 29.6245 48.8394 29.6245H48.8964C53.7538 29.6245 58.3823 31.574 61.8108 35.0147C65.2396 38.5126 67.1249 43.1001 67.1249 47.974C67.1249 50.3824 66.6677 52.7334 65.7534 54.9126C66.5534 55.0274 67.2963 55.2566 67.982 55.5434C68.8963 53.1918 69.4109 50.6116 69.4109 47.974C69.4109 42.469 67.2968 37.2511 63.4108 33.3518C59.5249 29.4526 54.3822 27.3308 48.8964 27.3308H48.8394C43.3535 27.3308 38.2108 29.4524 34.3251 33.3518C30.4391 37.1938 28.2676 42.4119 28.2676 47.9167C28.2676 53.4217 30.3818 58.6396 34.2677 62.5389C38.1533 66.4379 43.2963 68.617 48.7821 68.617H48.8391C51.5819 68.617 54.2676 68.0434 56.782 67.0115C56.4396 66.3235 56.2108 65.5779 56.0968 64.7751L56.0963 64.7751ZM71.6964 63.4563C71.6964 67.413 68.4965 70.6241 64.5535 70.6241C60.6105 70.6241 57.4106 67.413 57.4106 63.4563C57.4106 59.4996 60.6105 56.2886 64.5535 56.2886C68.4965 56.2886 71.6964 59.4996 71.6964 63.4563ZM69.982 63.4563C69.982 62.8256 69.4678 62.3096 68.8392 62.3096H65.6962V59.1557C65.6962 58.5249 65.182 58.009 64.5535 58.009C63.9249 58.009 63.4107 58.5249 63.4107 59.1557V62.3096H60.2677C59.6391 62.3096 59.125 62.8256 59.125 63.4563C59.125 64.0871 59.6392 64.6031 60.2677 64.6031H63.4107V67.757C63.4107 68.3878 63.9249 68.9037 64.5535 68.9037C65.182 68.9037 65.6962 68.3877 65.6962 67.757V64.6031H68.8392C69.4678 64.6031 69.982 64.0871 69.982 63.4563Z" fill="white" fill-opacity="0.8"/>
</svg>
