<svg width="97" height="96" viewBox="0 0 97 96" fill="none" xmlns="http://www.w3.org/2000/svg">
<rect x="0.398315" width="96" height="96" rx="48" fill="white" fill-opacity="0.08"/>
<path fill-rule="evenodd" clip-rule="evenodd" d="M42.5099 63.8497C42.7011 65.6634 42.5701 67.7166 42.2493 69.5743H37.3491C36.6753 69.5743 36.1292 70.1174 36.1292 70.7867C36.1292 71.4561 36.6757 72 37.3491 72H59.4058C60.0795 72 60.6248 71.4568 60.6248 70.7875C60.6248 70.1178 60.0787 69.575 59.4058 69.575H54.4911C54.1442 67.718 53.9886 65.6644 54.1787 63.8504H68.9523C70.8558 63.8504 72.3983 62.3163 72.3983 60.4231V32.5035C72.3983 30.9004 71.0837 29.5922 69.4712 29.5922H64.4418V31.7268H69.4712C69.8984 31.7268 70.2518 32.0779 70.2518 32.5032V57.0334H26.5455V32.5032C26.5455 32.0783 26.8985 31.7268 27.3261 31.7268H33.6174V29.5922H27.3254C25.7136 29.5922 24.3983 30.8997 24.3983 32.5035V60.4231C24.3983 62.3163 25.9408 63.8504 27.8443 63.8504L42.5099 63.8497ZM53.3259 52.0325C53.3259 52.5681 52.8893 53.0027 52.3504 53.0027C51.8118 53.0027 51.3748 52.5684 51.3748 52.0325V46.8107H51.0882C50.5507 46.8107 50.1126 46.3753 50.1126 45.8405V38.9346C50.1126 38.4001 50.5504 37.9643 51.0882 37.9643H51.3748V32.7422C51.3748 32.2066 51.8115 31.772 52.3504 31.772C52.8889 31.772 53.3259 32.2063 53.3259 32.7422V37.964H53.6126C54.15 37.964 54.5881 38.3994 54.5881 38.9342V45.8401C54.5881 46.3746 54.1503 46.8103 53.6126 46.8103H53.3259V52.0325ZM62.4906 31.1626V38.0685C62.4906 38.603 62.0528 39.0387 61.515 39.0387H61.2283V44.2605C61.2283 44.7961 60.7917 45.2307 60.2528 45.2307C59.7142 45.2307 59.2773 44.7964 59.2773 44.2605V39.0387H58.9906C58.4532 39.0387 58.015 38.6033 58.015 38.0685V31.1626C58.015 30.6281 58.4528 30.1924 58.9906 30.1924H59.2773L59.2776 24.9703C59.2776 24.4346 59.7143 24 60.2532 24C60.7917 24 61.2287 24.4343 61.2287 24.9703V30.192H61.5154C62.0524 30.1928 62.4906 30.6282 62.4906 31.1626ZM38.7808 38.9345V45.8404C38.7808 46.3749 38.343 46.8106 37.8053 46.8106H37.5186V52.0324C37.5186 52.568 37.0819 53.0026 36.543 53.0026C36.0045 53.0026 35.5675 52.5683 35.5675 52.0324V46.8106H35.2808C34.7434 46.8106 34.3053 46.3752 34.3053 45.8404V38.9345C34.3053 38.4 34.7431 37.9643 35.2808 37.9643H35.5675L35.5679 32.7421C35.5679 32.2065 36.0045 31.7719 36.5434 31.7719C37.082 31.7719 37.519 32.2062 37.519 32.7421V37.9639H37.8056C38.3431 37.9642 38.7808 38.4 38.7808 38.9345ZM46.6844 31.1626V38.0685C46.6844 38.603 46.2466 39.0387 45.7088 39.0387H45.4222V44.2605C45.4222 44.7961 44.9855 45.2307 44.4466 45.2307C43.9081 45.2307 43.4711 44.7964 43.4711 44.2605V39.0387H43.1844C42.647 39.0387 42.2089 38.6033 42.2089 38.0685V31.1626C42.2089 30.6281 42.6467 30.1924 43.1844 30.1924H43.4711L43.4715 24.9703C43.4707 24.4346 43.9077 24 44.447 24C44.9855 24 45.4225 24.4343 45.4225 24.9703V30.192H45.7092C46.2463 30.1928 46.6844 30.6282 46.6844 31.1626Z" fill="white" fill-opacity="0.8"/>
</svg>
