<svg width="24" height="25" viewBox="0 0 24 25" fill="none" xmlns="http://www.w3.org/2000/svg">
<path d="M2 15.5H18.5C20.43 15.5 22 17.07 22 19C22 20.93 20.43 22.5 18.5 22.5C16.57 22.5 15 20.93 15 19V18.5" stroke="white" stroke-width="1.5" stroke-miterlimit="10" stroke-linecap="round" stroke-linejoin="round"/>
<path d="M2 12.5H18.5C20.42 12.5 22 10.93 22 9C22 7.08 20.42 5.5 18.5 5.5C16.58 5.5 15 7.07 15 9V9.5" stroke="white" stroke-width="1.5" stroke-miterlimit="10" stroke-linecap="round" stroke-linejoin="round"/>
<path d="M2 9.5H9.31C10.8 9.5 12 8.29 12 6.81C12 5.32 10.79 4.12 9.31 4.12C7.82 4.12 6.62 5.33 6.62 6.81V7.19" stroke="white" stroke-width="1.5" stroke-miterlimit="10" stroke-linecap="round" stroke-linejoin="round"/>
</svg>
