<svg width="18" height="21" viewBox="0 0 18 21" fill="none" xmlns="http://www.w3.org/2000/svg">
<path d="M16.9163 12.5C16.4102 12.5 16.0011 12.9143 15.8866 13.4072C15.7124 14.1577 15.3609 14.9196 15 15.5C14.4905 16.3193 13.7554 16.7141 12.96 17.26C12.76 16.43 11.53 15.75 9.92 15.56C10.09 14.37 10.44 13.26 10.68 12.62C11.06 12.86 11.5 13 12 13C15.55 13 15 7 15 7C15 7 14.5 8 13 8H12C11.5552 7.99988 11.1184 8.11844 10.7347 8.34345C10.3509 8.56847 10.0342 8.89179 9.81715 9.28006C9.60009 9.66833 9.49055 10.1075 9.49984 10.5522C9.50913 10.9969 9.63691 11.4311 9.87 11.81C10.53 11.12 11.24 10.5 12 10C10.68 11.33 9.67 13 9 14.6C8.37 13.37 7.58 12.43 7 12C7.47 12.2 7.91 12.5 8.33 12.8C8.44 12.56 8.5 12.29 8.5 12C8.45 9.27 4 9.5 4 9.5C4.31 9.92 4.5 10.45 4.5 11V12C4.5 13.1 5.4 14 6.5 14C7 14 7.45 13.82 7.8 13.5C8.03 14.13 8.2 14.85 8.29 15.54C6.57 15.69 5.25 16.39 5.04 17.27C3.21 16 1.5 13.89 1.5 11.5C1.5 8.01992 4.45873 4.71867 7.86989 4.10253C8.48737 3.991 9 4.50866 9 5.13613C9 6.08879 10.102 6.61842 10.8459 6.0233L13.0239 4.28087C13.5243 3.88054 13.5243 3.11946 13.0239 2.71913L10.5822 0.76574C9.94455 0.255638 9 0.70961 9 1.52617C9 2.064 8.56269 2.49454 8.028 2.55261C5.9985 2.77303 4.09317 3.67891 2.63604 5.13604C0.948212 6.82387 0 9.11305 0 11.5C0 13.8869 0.948212 16.1761 2.63604 17.864C4.32387 19.5518 6.61305 20.5 9 20.5C13.2775 20.5 16.8551 17.5126 17.7694 13.5093C17.8909 12.9769 17.4624 12.5 16.9163 12.5Z" fill="white"/>
</svg>
