<svg width="25" height="25" viewBox="0 0 25 25" fill="none" xmlns="http://www.w3.org/2000/svg">
<path d="M9.76563 20.3126C9.76563 20.6234 9.64216 20.9215 9.42239 21.1413C9.20262 21.361 8.90455 21.4845 8.59375 21.4845H3.90625C3.42643 21.4842 2.95513 21.3576 2.53971 21.1175C2.12428 20.8774 1.77936 20.5322 1.53959 20.1165C1.29981 19.7009 1.17363 19.2295 1.17371 18.7497C1.17379 18.2699 1.30013 17.7985 1.54004 17.3829L4.41602 12.4142L3.95118 12.5382C3.8014 12.5816 3.64447 12.5947 3.48958 12.5767C3.33468 12.5587 3.18494 12.5099 3.04913 12.4333C2.91332 12.3567 2.79416 12.2537 2.69865 12.1305C2.60314 12.0072 2.53318 11.8661 2.49289 11.7155C2.4526 11.5648 2.44278 11.4077 2.464 11.2532C2.48522 11.0987 2.53707 10.95 2.61649 10.8158C2.69592 10.6816 2.80132 10.5646 2.92654 10.4717C3.05176 10.3787 3.19426 10.3117 3.34571 10.2746L6.5459 9.41811C6.84595 9.33785 7.16558 9.37999 7.43457 9.53527C7.70357 9.69055 7.89991 9.94627 7.98047 10.2462L8.83887 13.4464C8.88377 13.5965 8.8981 13.7541 8.88103 13.9099C8.86396 14.0657 8.81583 14.2164 8.73948 14.3532C8.66313 14.4901 8.56011 14.6102 8.43653 14.7065C8.31294 14.8028 8.1713 14.8734 8.01997 14.914C7.86864 14.9546 7.7107 14.9645 7.55549 14.943C7.40028 14.9215 7.25095 14.8692 7.11634 14.789C6.98173 14.7088 6.86457 14.6024 6.77179 14.4761C6.67901 14.3499 6.61249 14.2063 6.57617 14.0538L6.45313 13.5744L3.57227 18.5548C3.53816 18.6139 3.52011 18.6809 3.51992 18.7491C3.51973 18.8173 3.5374 18.8843 3.57118 18.9436C3.60496 19.0029 3.65366 19.0522 3.71245 19.0868C3.77123 19.1214 3.83805 19.14 3.90625 19.1408H8.59375C8.90455 19.1408 9.20262 19.2642 9.42239 19.484C9.64216 19.7038 9.76563 20.0018 9.76563 20.3126ZM12.5 3.51576C12.5688 3.51449 12.6366 3.53201 12.6961 3.56643C12.7557 3.60084 12.8047 3.65086 12.8379 3.71107L15.7139 8.67885L15.25 8.55482C15.0994 8.50896 14.9411 8.4939 14.7845 8.51056C14.628 8.52723 14.4764 8.57526 14.3388 8.6518C14.2013 8.72834 14.0805 8.83182 13.9838 8.95605C13.8871 9.08028 13.8164 9.22273 13.776 9.37488C13.7356 9.52703 13.7262 9.68577 13.7485 9.84163C13.7707 9.99748 13.8242 10.1472 13.9056 10.282C13.9871 10.4167 14.0948 10.5337 14.2224 10.6258C14.35 10.718 14.4949 10.7835 14.6484 10.8185L17.8486 11.6769C18.1487 11.7571 18.4683 11.715 18.7373 11.5597C19.0063 11.4044 19.2026 11.1487 19.2832 10.8488L20.1367 7.64662C20.2173 7.34618 20.1752 7.02605 20.0197 6.75665C19.8642 6.48725 19.6081 6.29065 19.3076 6.2101C19.0072 6.12955 18.687 6.17165 18.4176 6.32713C18.1482 6.48262 17.9516 6.73876 17.8711 7.0392L17.7432 7.51381L14.8662 2.5392C14.626 2.12438 14.2809 1.78 13.8656 1.5406C13.4503 1.30119 12.9794 1.17517 12.5 1.17517C12.0206 1.17517 11.5497 1.30119 11.1344 1.5406C10.7191 1.78 10.374 2.12438 10.1338 2.5392L7.87207 6.44545C7.78911 6.57885 7.73381 6.72757 7.70948 6.88277C7.68514 7.03797 7.69225 7.19648 7.73039 7.34887C7.76854 7.50126 7.83693 7.64443 7.93152 7.76987C8.0261 7.8953 8.14493 8.00043 8.28095 8.07902C8.41698 8.15761 8.56742 8.20805 8.72332 8.22734C8.87923 8.24663 9.03742 8.23437 9.1885 8.1913C9.33957 8.14823 9.48045 8.07522 9.60274 7.97662C9.72504 7.87801 9.82626 7.75583 9.90039 7.61732L12.1621 3.71107C12.1953 3.65086 12.2444 3.60084 12.3039 3.56643C12.3634 3.53201 12.4312 3.51449 12.5 3.51576ZM23.4561 17.3829L21.1963 13.4767C21.1222 13.3382 21.0209 13.216 20.8986 13.1174C20.7763 13.0188 20.6355 12.9458 20.4844 12.9027C20.3333 12.8597 20.1751 12.8474 20.0192 12.8667C19.8633 12.886 19.7129 12.9364 19.5769 13.015C19.4408 13.0936 19.322 13.1987 19.2274 13.3242C19.1328 13.4496 19.0644 13.5928 19.0263 13.7452C18.9881 13.8975 18.981 14.0561 19.0054 14.2113C19.0297 14.3665 19.085 14.5152 19.168 14.6486L21.4277 18.5548C21.462 18.6142 21.4801 18.6815 21.4801 18.75C21.4801 18.8186 21.4621 18.8859 21.4278 18.9453C21.3936 19.0046 21.3443 19.054 21.285 19.0883C21.2257 19.1226 21.1584 19.1407 21.0898 19.1408H15.332L15.6748 18.798C15.7838 18.689 15.8703 18.5596 15.9293 18.4171C15.9883 18.2747 16.0186 18.1221 16.0186 17.9679C16.0186 17.8138 15.9883 17.6611 15.9293 17.5187C15.8703 17.3762 15.7838 17.2468 15.6748 17.1378C15.5658 17.0288 15.4364 16.9424 15.294 16.8834C15.1515 16.8244 14.9989 16.794 14.8447 16.794C14.6906 16.794 14.5379 16.8244 14.3955 16.8834C14.2531 16.9424 14.1237 17.0288 14.0147 17.1378L11.6709 19.4816C11.5617 19.5905 11.475 19.7198 11.4158 19.8623C11.3567 20.0047 11.3262 20.1574 11.3262 20.3117C11.3262 20.4659 11.3567 20.6186 11.4158 20.7611C11.475 20.9035 11.5617 21.0329 11.6709 21.1417L14.0147 23.4855C14.1237 23.5945 14.2531 23.681 14.3955 23.74C14.5379 23.799 14.6906 23.8293 14.8447 23.8293C14.9989 23.8293 15.1515 23.799 15.294 23.74C15.4364 23.681 15.5658 23.5945 15.6748 23.4855C15.7838 23.3765 15.8703 23.2471 15.9293 23.1046C15.9883 22.9622 16.0186 22.8096 16.0186 22.6554C16.0186 22.5013 15.9883 22.3486 15.9293 22.2062C15.8703 22.0637 15.7838 21.9343 15.6748 21.8253L15.332 21.4845H21.0938C21.5736 21.4842 22.0449 21.3576 22.4603 21.1175C22.8757 20.8774 23.2206 20.5322 23.4604 20.1165C23.7002 19.7009 23.8264 19.2295 23.8263 18.7497C23.8262 18.2699 23.6999 17.7985 23.46 17.3829H23.4561Z" fill="white"/>
</svg>
