<svg width="22" height="21" viewBox="0 0 22 21" fill="none" xmlns="http://www.w3.org/2000/svg">
<path d="M20.75 9H20V6H18.5V9H17V6H15.5V9H14.75C14.5511 9 14.3603 9.07902 14.2197 9.21967C14.079 9.36032 14 9.55109 14 9.75V12.75C14.0011 13.6141 14.3001 14.4513 14.8466 15.1206C15.3931 15.7899 16.1536 16.2503 17 16.4242V18.75C17 18.9489 16.921 19.1397 16.7803 19.2803C16.6397 19.421 16.4489 19.5 16.25 19.5H2.75C2.55109 19.5 2.36032 19.421 2.21967 19.2803C2.07902 19.1397 2 18.9489 2 18.75C2 18.5511 2.07902 18.3603 2.21967 18.2197C2.36032 18.079 2.55109 18 2.75 18H6.5C7.09674 18 7.66903 17.7629 8.09099 17.341C8.51295 16.919 8.75 16.3467 8.75 15.75C8.75 15.1533 8.51295 14.581 8.09099 14.159C7.66903 13.7371 7.09674 13.5 6.5 13.5H2.75C2.55109 13.5 2.36032 13.421 2.21967 13.2803C2.07902 13.1397 2 12.9489 2 12.75C2 12.5511 2.07902 12.3603 2.21967 12.2197C2.36032 12.079 2.55109 12 2.75 12H6.5C7.09655 11.9994 7.6685 11.7622 8.09033 11.3403C8.51216 10.9185 8.7494 10.3466 8.75 9.75V6.75H9.5C10.2953 6.74901 11.0578 6.43262 11.6202 5.87022C12.1826 5.30783 12.499 4.54534 12.5 3.75V1.5H10.25C9.48211 1.50113 8.7442 1.79823 8.18975 2.3295C7.80121 1.62452 7.23081 1.03658 6.53791 0.626878C5.84501 0.217181 5.05496 0.000709383 4.25 0H2V2.25C2.00139 3.44305 2.47594 4.58683 3.31955 5.43045C4.16317 6.27406 5.30695 6.74861 6.5 6.75H7.25V9.75C7.25 9.94891 7.17098 10.1397 7.03033 10.2803C6.88968 10.421 6.69891 10.5 6.5 10.5H2.75C2.15326 10.5 1.58097 10.7371 1.15901 11.159C0.737053 11.581 0.5 12.1533 0.5 12.75C0.5 13.3467 0.737053 13.919 1.15901 14.341C1.58097 14.7629 2.15326 15 2.75 15H6.5C6.69891 15 6.88968 15.079 7.03033 15.2197C7.17098 15.3603 7.25 15.5511 7.25 15.75C7.25 15.9489 7.17098 16.1397 7.03033 16.2803C6.88968 16.421 6.69891 16.5 6.5 16.5H2.75C2.15326 16.5 1.58097 16.7371 1.15901 17.159C0.737053 17.581 0.5 18.1533 0.5 18.75C0.5 19.3467 0.737053 19.919 1.15901 20.341C1.58097 20.7629 2.15326 21 2.75 21H16.25C16.8466 20.9994 17.4185 20.7622 17.8403 20.3403C18.2622 19.9185 18.4994 19.3466 18.5 18.75V16.4242C19.3464 16.2503 20.1069 15.7899 20.6534 15.1206C21.1999 14.4513 21.4989 13.6141 21.5 12.75V9.75C21.5 9.55109 21.421 9.36032 21.2803 9.21967C21.1397 9.07902 20.9489 9 20.75 9ZM8.75 4.5C8.7504 4.1023 8.90856 3.721 9.18978 3.43978C9.471 3.15856 9.8523 3.0004 10.25 3H11V3.75C10.9996 4.1477 10.8414 4.529 10.5602 4.81022C10.279 5.09144 9.8977 5.2496 9.5 5.25H8.75V4.5ZM6.5 5.25C5.70466 5.24901 4.94217 4.93262 4.37978 4.37022C3.81738 3.80783 3.50099 3.04534 3.5 2.25V1.5H4.25C5.04534 1.50099 5.80783 1.81738 6.37022 2.37978C6.93262 2.94217 7.24901 3.70466 7.25 4.5V5.25H6.5ZM20 12.75C20 13.3467 19.7629 13.919 19.341 14.341C18.919 14.7629 18.3467 15 17.75 15C17.1533 15 16.581 14.7629 16.159 14.341C15.7371 13.919 15.5 13.3467 15.5 12.75V10.5H20V12.75Z" fill="white"/>
</svg>
