<svg width="24" height="25" viewBox="0 0 24 25" fill="none" xmlns="http://www.w3.org/2000/svg">
<path d="M16.1703 11.31H7.83022C6.97022 11.31 6.31025 10.97 6.01025 10.39C5.71025 9.79997 5.83022 9.06997 6.33022 8.37997L10.5002 2.53997C11.2402 1.47997 12.7702 1.47997 13.5202 2.54997L17.6902 8.37997C18.1902 9.06997 18.3102 9.79997 18.0102 10.39C17.6902 10.97 17.0303 11.31 16.1703 11.31ZM12.0002 3.19997C11.9102 3.19997 11.8102 3.27997 11.7202 3.39997L7.55023 9.24997C7.35023 9.51997 7.34024 9.67997 7.35024 9.70997C7.36024 9.72997 7.50023 9.80997 7.84023 9.80997H16.1802C16.5102 9.80997 16.6503 9.71996 16.6703 9.69997C16.6703 9.67997 16.6602 9.51997 16.4702 9.24997L12.3002 3.40997C12.1902 3.26997 12.0902 3.19997 12.0002 3.19997Z" fill="white"/>
<path d="M17.5901 19.2501H6.42017C4.99017 19.2501 4.42014 18.5601 4.21014 18.1501C4.00014 17.7401 3.78015 16.8801 4.62015 15.7201L8.61014 10.1201C8.75014 9.92006 8.98015 9.81006 9.22015 9.81006H14.7902C15.0302 9.81006 15.2601 9.93006 15.4001 10.1201L19.3902 15.7301C20.2302 16.8801 20.0002 17.7401 19.7902 18.1501C19.5802 18.5601 19.0202 19.2501 17.5901 19.2501ZM9.60016 11.3101L5.83014 16.6001C5.51014 17.0401 5.48016 17.3401 5.54016 17.4701C5.61016 17.6001 5.87016 17.7501 6.41016 17.7501H17.5801C18.1201 17.7501 18.3902 17.6001 18.4502 17.4701C18.5202 17.3401 18.4802 17.0401 18.1602 16.6001L14.3902 11.3001H9.60016V11.3101Z" fill="white"/>
<path d="M12 23.25C11.59 23.25 11.25 22.91 11.25 22.5V18.5C11.25 18.09 11.59 17.75 12 17.75C12.41 17.75 12.75 18.09 12.75 18.5V22.5C12.75 22.91 12.41 23.25 12 23.25Z" fill="white"/>
</svg>
